ISO-10303-21;
HEADER;
FILE_DESCRIPTION(('SIGHTLINE deterministic faceted BREP'),'2;1');
FILE_NAME('sightline_g0.step','2000-01-01T00:00:00',('SIGHTLINE'),('SIGHTLINE'),'','SIGHTLINE','');
FILE_SCHEMA(('AUTOMOTIVE_DESIGN_CC2'));
ENDSEC;
DATA;
#1=APPLICATION_CONTEXT('configuration controlled 3d designs of mechanical parts and assemblies');
#2=PRODUCT_CONTEXT('',#1,'mechanical');
#3=PRODUCT('fastener_placeholders','fastener_placeholders','',(#2));
#4=PRODUCT_DEFINITION_FORMATION_WITH_SPECIFIED_SOURCE('1','G0 faceted BREP',#3,.MADE.);
#5=PRODUCT_DEFINITION_CONTEXT('part definition',#1,'design');
#6=PRODUCT_DEFINITION('design','',#4,#5);
#7=PRODUCT_DEFINITION_SHAPE('','',#6);
#8=(LENGTH_UNIT() NAMED_UNIT(*) SI_UNIT(.MILLI.,.METRE.));
#9=(NAMED_UNIT(*) PLANE_ANGLE_UNIT() SI_UNIT($,.RADIAN.));
#10=(NAMED_UNIT(*) SOLID_ANGLE_UNIT() SI_UNIT($,.STERADIAN.));
#11=UNCERTAINTY_MEASURE_WITH_UNIT(LENGTH_MEASURE(0.01),#8,'distance_accuracy_value','G0 export');
#12=(GEOMETRIC_REPRESENTATION_CONTEXT(3) GLOBAL_UNCERTAINTY_ASSIGNED_CONTEXT((#11)) GLOBAL_UNIT_ASSIGNED_CONTEXT((#8,#9,#10)) REPRESENTATION_CONTEXT('3D','MODEL SPACE'));
#13=CARTESIAN_POINT('',(-56.000000,-44.000000,-4.000000));
#14=VERTEX_POINT('',#13);
#15=CARTESIAN_POINT('',(-56.152241,-43.234633,-4.000000));
#16=VERTEX_POINT('',#15);
#17=CARTESIAN_POINT('',(-56.585786,-42.585786,-4.000000));
#18=VERTEX_POINT('',#17);
#19=CARTESIAN_POINT('',(-57.234633,-42.152241,-4.000000));
#20=VERTEX_POINT('',#19);
#21=CARTESIAN_POINT('',(-58.000000,-42.000000,-4.000000));
#22=VERTEX_POINT('',#21);
#23=CARTESIAN_POINT('',(-58.765367,-42.152241,-4.000000));
#24=VERTEX_POINT('',#23);
#25=CARTESIAN_POINT('',(-59.414214,-42.585786,-4.000000));
#26=VERTEX_POINT('',#25);
#27=CARTESIAN_POINT('',(-59.847759,-43.234633,-4.000000));
#28=VERTEX_POINT('',#27);
#29=CARTESIAN_POINT('',(-60.000000,-44.000000,-4.000000));
#30=VERTEX_POINT('',#29);
#31=CARTESIAN_POINT('',(-59.847759,-44.765367,-4.000000));
#32=VERTEX_POINT('',#31);
#33=CARTESIAN_POINT('',(-59.414214,-45.414214,-4.000000));
#34=VERTEX_POINT('',#33);
#35=CARTESIAN_POINT('',(-58.765367,-45.847759,-4.000000));
#36=VERTEX_POINT('',#35);
#37=CARTESIAN_POINT('',(-58.000000,-46.000000,-4.000000));
#38=VERTEX_POINT('',#37);
#39=CARTESIAN_POINT('',(-57.234633,-45.847759,-4.000000));
#40=VERTEX_POINT('',#39);
#41=CARTESIAN_POINT('',(-56.585786,-45.414214,-4.000000));
#42=VERTEX_POINT('',#41);
#43=CARTESIAN_POINT('',(-56.152241,-44.765367,-4.000000));
#44=VERTEX_POINT('',#43);
#45=CARTESIAN_POINT('',(-56.000000,-44.000000,0.000000));
#46=VERTEX_POINT('',#45);
#47=CARTESIAN_POINT('',(-56.152241,-43.234633,0.000000));
#48=VERTEX_POINT('',#47);
#49=CARTESIAN_POINT('',(-56.585786,-42.585786,0.000000));
#50=VERTEX_POINT('',#49);
#51=CARTESIAN_POINT('',(-57.234633,-42.152241,0.000000));
#52=VERTEX_POINT('',#51);
#53=CARTESIAN_POINT('',(-58.000000,-42.000000,0.000000));
#54=VERTEX_POINT('',#53);
#55=CARTESIAN_POINT('',(-58.765367,-42.152241,0.000000));
#56=VERTEX_POINT('',#55);
#57=CARTESIAN_POINT('',(-59.414214,-42.585786,0.000000));
#58=VERTEX_POINT('',#57);
#59=CARTESIAN_POINT('',(-59.847759,-43.234633,0.000000));
#60=VERTEX_POINT('',#59);
#61=CARTESIAN_POINT('',(-60.000000,-44.000000,0.000000));
#62=VERTEX_POINT('',#61);
#63=CARTESIAN_POINT('',(-59.847759,-44.765367,0.000000));
#64=VERTEX_POINT('',#63);
#65=CARTESIAN_POINT('',(-59.414214,-45.414214,0.000000));
#66=VERTEX_POINT('',#65);
#67=CARTESIAN_POINT('',(-58.765367,-45.847759,0.000000));
#68=VERTEX_POINT('',#67);
#69=CARTESIAN_POINT('',(-58.000000,-46.000000,0.000000));
#70=VERTEX_POINT('',#69);
#71=CARTESIAN_POINT('',(-57.234633,-45.847759,0.000000));
#72=VERTEX_POINT('',#71);
#73=CARTESIAN_POINT('',(-56.585786,-45.414214,0.000000));
#74=VERTEX_POINT('',#73);
#75=CARTESIAN_POINT('',(-56.152241,-44.765367,0.000000));
#76=VERTEX_POINT('',#75);
#77=CARTESIAN_POINT('',(-58.000000,-44.000000,-4.000000));
#78=VERTEX_POINT('',#77);
#79=CARTESIAN_POINT('',(-58.000000,-44.000000,0.000000));
#80=VERTEX_POINT('',#79);
#81=CARTESIAN_POINT('',(-56.000000,-44.000000,-4.000000));
#82=DIRECTION('',(0.980785,0.195090,0.000000));
#83=DIRECTION('',(0.000000,0.000000,1.000000));
#84=AXIS2_PLACEMENT_3D('',#81,#82,#83);
#85=PLANE('',#84);
#86=DIRECTION('',(-0.195090,0.980785,0.000000));
#87=VECTOR('',#86,0.780361);
#88=LINE('',#13,#87);
#89=EDGE_CURVE('',#14,#16,#88,.T.);
#90=ORIENTED_EDGE('',*,*,#89,.T.);
#91=DIRECTION('',(0.000000,0.000000,1.000000));
#92=VECTOR('',#91,4.000000);
#93=LINE('',#15,#92);
#94=EDGE_CURVE('',#16,#48,#93,.T.);
#95=ORIENTED_EDGE('',*,*,#94,.T.);
#96=DIRECTION('',(0.037356,-0.187801,-0.981496));
#97=VECTOR('',#96,4.075410);
#98=LINE('',#47,#97);
#99=EDGE_CURVE('',#48,#14,#98,.T.);
#100=ORIENTED_EDGE('',*,*,#99,.T.);
#101=EDGE_LOOP('',(#90,#95,#100));
#102=FACE_OUTER_BOUND('',#101,.T.);
#103=ADVANCED_FACE('',(#102),#85,.T.);
#104=CARTESIAN_POINT('',(-56.000000,-44.000000,-4.000000));
#105=DIRECTION('',(0.980785,0.195090,0.000000));
#106=DIRECTION('',(0.000000,0.000000,1.000000));
#107=AXIS2_PLACEMENT_3D('',#104,#105,#106);
#108=PLANE('',#107);
#109=DIRECTION('',(-0.037356,0.187801,0.981496));
#110=VECTOR('',#109,4.075410);
#111=LINE('',#13,#110);
#112=EDGE_CURVE('',#14,#48,#111,.T.);
#113=ORIENTED_EDGE('',*,*,#112,.T.);
#114=DIRECTION('',(0.195090,-0.980785,0.000000));
#115=VECTOR('',#114,0.780361);
#116=LINE('',#47,#115);
#117=EDGE_CURVE('',#48,#46,#116,.T.);
#118=ORIENTED_EDGE('',*,*,#117,.T.);
#119=DIRECTION('',(0.000000,0.000000,-1.000000));
#120=VECTOR('',#119,4.000000);
#121=LINE('',#45,#120);
#122=EDGE_CURVE('',#46,#14,#121,.T.);
#123=ORIENTED_EDGE('',*,*,#122,.T.);
#124=EDGE_LOOP('',(#113,#118,#123));
#125=FACE_OUTER_BOUND('',#124,.T.);
#126=ADVANCED_FACE('',(#125),#108,.T.);
#127=CARTESIAN_POINT('',(-56.152241,-43.234633,-4.000000));
#128=DIRECTION('',(0.831470,0.555570,0.000000));
#129=DIRECTION('',(0.000000,0.000000,1.000000));
#130=AXIS2_PLACEMENT_3D('',#127,#128,#129);
#131=PLANE('',#130);
#132=DIRECTION('',(-0.555570,0.831470,0.000000));
#133=VECTOR('',#132,0.780361);
#134=LINE('',#15,#133);
#135=EDGE_CURVE('',#16,#18,#134,.T.);
#136=ORIENTED_EDGE('',*,*,#135,.T.);
#137=DIRECTION('',(0.000000,0.000000,1.000000));
#138=VECTOR('',#137,4.000000);
#139=LINE('',#17,#138);
#140=EDGE_CURVE('',#18,#50,#139,.T.);
#141=ORIENTED_EDGE('',*,*,#140,.T.);
#142=DIRECTION('',(0.106381,-0.159210,-0.981496));
#143=VECTOR('',#142,4.075410);
#144=LINE('',#49,#143);
#145=EDGE_CURVE('',#50,#16,#144,.T.);
#146=ORIENTED_EDGE('',*,*,#145,.T.);
#147=EDGE_LOOP('',(#136,#141,#146));
#148=FACE_OUTER_BOUND('',#147,.T.);
#149=ADVANCED_FACE('',(#148),#131,.T.);
#150=CARTESIAN_POINT('',(-56.152241,-43.234633,-4.000000));
#151=DIRECTION('',(0.831470,0.555570,0.000000));
#152=DIRECTION('',(0.000000,0.000000,1.000000));
#153=AXIS2_PLACEMENT_3D('',#150,#151,#152);
#154=PLANE('',#153);
#155=DIRECTION('',(-0.106381,0.159210,0.981496));
#156=VECTOR('',#155,4.075410);
#157=LINE('',#15,#156);
#158=EDGE_CURVE('',#16,#50,#157,.T.);
#159=ORIENTED_EDGE('',*,*,#158,.T.);
#160=DIRECTION('',(0.555570,-0.831470,0.000000));
#161=VECTOR('',#160,0.780361);
#162=LINE('',#49,#161);
#163=EDGE_CURVE('',#50,#48,#162,.T.);
#164=ORIENTED_EDGE('',*,*,#163,.T.);
#165=DIRECTION('',(0.000000,0.000000,-1.000000));
#166=VECTOR('',#165,4.000000);
#167=LINE('',#47,#166);
#168=EDGE_CURVE('',#48,#16,#167,.T.);
#169=ORIENTED_EDGE('',*,*,#168,.T.);
#170=EDGE_LOOP('',(#159,#164,#169));
#171=FACE_OUTER_BOUND('',#170,.T.);
#172=ADVANCED_FACE('',(#171),#154,.T.);
#173=CARTESIAN_POINT('',(-56.585786,-42.585786,-4.000000));
#174=DIRECTION('',(0.555570,0.831470,0.000000));
#175=DIRECTION('',(0.000000,0.000000,1.000000));
#176=AXIS2_PLACEMENT_3D('',#173,#174,#175);
#177=PLANE('',#176);
#178=DIRECTION('',(-0.831470,0.555570,0.000000));
#179=VECTOR('',#178,0.780361);
#180=LINE('',#17,#179);
#181=EDGE_CURVE('',#18,#20,#180,.T.);
#182=ORIENTED_EDGE('',*,*,#181,.T.);
#183=DIRECTION('',(0.000000,0.000000,1.000000));
#184=VECTOR('',#183,4.000000);
#185=LINE('',#19,#184);
#186=EDGE_CURVE('',#20,#52,#185,.T.);
#187=ORIENTED_EDGE('',*,*,#186,.T.);
#188=DIRECTION('',(0.159210,-0.106381,-0.981496));
#189=VECTOR('',#188,4.075410);
#190=LINE('',#51,#189);
#191=EDGE_CURVE('',#52,#18,#190,.T.);
#192=ORIENTED_EDGE('',*,*,#191,.T.);
#193=EDGE_LOOP('',(#182,#187,#192));
#194=FACE_OUTER_BOUND('',#193,.T.);
#195=ADVANCED_FACE('',(#194),#177,.T.);
#196=CARTESIAN_POINT('',(-56.585786,-42.585786,-4.000000));
#197=DIRECTION('',(0.555570,0.831470,0.000000));
#198=DIRECTION('',(0.000000,0.000000,1.000000));
#199=AXIS2_PLACEMENT_3D('',#196,#197,#198);
#200=PLANE('',#199);
#201=DIRECTION('',(-0.159210,0.106381,0.981496));
#202=VECTOR('',#201,4.075410);
#203=LINE('',#17,#202);
#204=EDGE_CURVE('',#18,#52,#203,.T.);
#205=ORIENTED_EDGE('',*,*,#204,.T.);
#206=DIRECTION('',(0.831470,-0.555570,0.000000));
#207=VECTOR('',#206,0.780361);
#208=LINE('',#51,#207);
#209=EDGE_CURVE('',#52,#50,#208,.T.);
#210=ORIENTED_EDGE('',*,*,#209,.T.);
#211=DIRECTION('',(0.000000,0.000000,-1.000000));
#212=VECTOR('',#211,4.000000);
#213=LINE('',#49,#212);
#214=EDGE_CURVE('',#50,#18,#213,.T.);
#215=ORIENTED_EDGE('',*,*,#214,.T.);
#216=EDGE_LOOP('',(#205,#210,#215));
#217=FACE_OUTER_BOUND('',#216,.T.);
#218=ADVANCED_FACE('',(#217),#200,.T.);
#219=CARTESIAN_POINT('',(-57.234633,-42.152241,-4.000000));
#220=DIRECTION('',(0.195090,0.980785,0.000000));
#221=DIRECTION('',(0.000000,0.000000,1.000000));
#222=AXIS2_PLACEMENT_3D('',#219,#220,#221);
#223=PLANE('',#222);
#224=DIRECTION('',(-0.980785,0.195090,0.000000));
#225=VECTOR('',#224,0.780361);
#226=LINE('',#19,#225);
#227=EDGE_CURVE('',#20,#22,#226,.T.);
#228=ORIENTED_EDGE('',*,*,#227,.T.);
#229=DIRECTION('',(0.000000,0.000000,1.000000));
#230=VECTOR('',#229,4.000000);
#231=LINE('',#21,#230);
#232=EDGE_CURVE('',#22,#54,#231,.T.);
#233=ORIENTED_EDGE('',*,*,#232,.T.);
#234=DIRECTION('',(0.187801,-0.037356,-0.981496));
#235=VECTOR('',#234,4.075410);
#236=LINE('',#53,#235);
#237=EDGE_CURVE('',#54,#20,#236,.T.);
#238=ORIENTED_EDGE('',*,*,#237,.T.);
#239=EDGE_LOOP('',(#228,#233,#238));
#240=FACE_OUTER_BOUND('',#239,.T.);
#241=ADVANCED_FACE('',(#240),#223,.T.);
#242=CARTESIAN_POINT('',(-57.234633,-42.152241,-4.000000));
#243=DIRECTION('',(0.195090,0.980785,0.000000));
#244=DIRECTION('',(0.000000,0.000000,1.000000));
#245=AXIS2_PLACEMENT_3D('',#242,#243,#244);
#246=PLANE('',#245);
#247=DIRECTION('',(-0.187801,0.037356,0.981496));
#248=VECTOR('',#247,4.075410);
#249=LINE('',#19,#248);
#250=EDGE_CURVE('',#20,#54,#249,.T.);
#251=ORIENTED_EDGE('',*,*,#250,.T.);
#252=DIRECTION('',(0.980785,-0.195090,0.000000));
#253=VECTOR('',#252,0.780361);
#254=LINE('',#53,#253);
#255=EDGE_CURVE('',#54,#52,#254,.T.);
#256=ORIENTED_EDGE('',*,*,#255,.T.);
#257=DIRECTION('',(0.000000,0.000000,-1.000000));
#258=VECTOR('',#257,4.000000);
#259=LINE('',#51,#258);
#260=EDGE_CURVE('',#52,#20,#259,.T.);
#261=ORIENTED_EDGE('',*,*,#260,.T.);
#262=EDGE_LOOP('',(#251,#256,#261));
#263=FACE_OUTER_BOUND('',#262,.T.);
#264=ADVANCED_FACE('',(#263),#246,.T.);
#265=CARTESIAN_POINT('',(-58.000000,-42.000000,-4.000000));
#266=DIRECTION('',(-0.195090,0.980785,0.000000));
#267=DIRECTION('',(0.000000,0.000000,1.000000));
#268=AXIS2_PLACEMENT_3D('',#265,#266,#267);
#269=PLANE('',#268);
#270=DIRECTION('',(-0.980785,-0.195090,0.000000));
#271=VECTOR('',#270,0.780361);
#272=LINE('',#21,#271);
#273=EDGE_CURVE('',#22,#24,#272,.T.);
#274=ORIENTED_EDGE('',*,*,#273,.T.);
#275=DIRECTION('',(0.000000,0.000000,1.000000));
#276=VECTOR('',#275,4.000000);
#277=LINE('',#23,#276);
#278=EDGE_CURVE('',#24,#56,#277,.T.);
#279=ORIENTED_EDGE('',*,*,#278,.T.);
#280=DIRECTION('',(0.187801,0.037356,-0.981496));
#281=VECTOR('',#280,4.075410);
#282=LINE('',#55,#281);
#283=EDGE_CURVE('',#56,#22,#282,.T.);
#284=ORIENTED_EDGE('',*,*,#283,.T.);
#285=EDGE_LOOP('',(#274,#279,#284));
#286=FACE_OUTER_BOUND('',#285,.T.);
#287=ADVANCED_FACE('',(#286),#269,.T.);
#288=CARTESIAN_POINT('',(-58.000000,-42.000000,-4.000000));
#289=DIRECTION('',(-0.195090,0.980785,0.000000));
#290=DIRECTION('',(0.000000,0.000000,1.000000));
#291=AXIS2_PLACEMENT_3D('',#288,#289,#290);
#292=PLANE('',#291);
#293=DIRECTION('',(-0.187801,-0.037356,0.981496));
#294=VECTOR('',#293,4.075410);
#295=LINE('',#21,#294);
#296=EDGE_CURVE('',#22,#56,#295,.T.);
#297=ORIENTED_EDGE('',*,*,#296,.T.);
#298=DIRECTION('',(0.980785,0.195090,0.000000));
#299=VECTOR('',#298,0.780361);
#300=LINE('',#55,#299);
#301=EDGE_CURVE('',#56,#54,#300,.T.);
#302=ORIENTED_EDGE('',*,*,#301,.T.);
#303=DIRECTION('',(0.000000,0.000000,-1.000000));
#304=VECTOR('',#303,4.000000);
#305=LINE('',#53,#304);
#306=EDGE_CURVE('',#54,#22,#305,.T.);
#307=ORIENTED_EDGE('',*,*,#306,.T.);
#308=EDGE_LOOP('',(#297,#302,#307));
#309=FACE_OUTER_BOUND('',#308,.T.);
#310=ADVANCED_FACE('',(#309),#292,.T.);
#311=CARTESIAN_POINT('',(-58.765367,-42.152241,-4.000000));
#312=DIRECTION('',(-0.555570,0.831470,0.000000));
#313=DIRECTION('',(0.000000,0.000000,1.000000));
#314=AXIS2_PLACEMENT_3D('',#311,#312,#313);
#315=PLANE('',#314);
#316=DIRECTION('',(-0.831470,-0.555570,0.000000));
#317=VECTOR('',#316,0.780361);
#318=LINE('',#23,#317);
#319=EDGE_CURVE('',#24,#26,#318,.T.);
#320=ORIENTED_EDGE('',*,*,#319,.T.);
#321=DIRECTION('',(0.000000,0.000000,1.000000));
#322=VECTOR('',#321,4.000000);
#323=LINE('',#25,#322);
#324=EDGE_CURVE('',#26,#58,#323,.T.);
#325=ORIENTED_EDGE('',*,*,#324,.T.);
#326=DIRECTION('',(0.159210,0.106381,-0.981496));
#327=VECTOR('',#326,4.075410);
#328=LINE('',#57,#327);
#329=EDGE_CURVE('',#58,#24,#328,.T.);
#330=ORIENTED_EDGE('',*,*,#329,.T.);
#331=EDGE_LOOP('',(#320,#325,#330));
#332=FACE_OUTER_BOUND('',#331,.T.);
#333=ADVANCED_FACE('',(#332),#315,.T.);
#334=CARTESIAN_POINT('',(-58.765367,-42.152241,-4.000000));
#335=DIRECTION('',(-0.555570,0.831470,0.000000));
#336=DIRECTION('',(0.000000,0.000000,1.000000));
#337=AXIS2_PLACEMENT_3D('',#334,#335,#336);
#338=PLANE('',#337);
#339=DIRECTION('',(-0.159210,-0.106381,0.981496));
#340=VECTOR('',#339,4.075410);
#341=LINE('',#23,#340);
#342=EDGE_CURVE('',#24,#58,#341,.T.);
#343=ORIENTED_EDGE('',*,*,#342,.T.);
#344=DIRECTION('',(0.831470,0.555570,0.000000));
#345=VECTOR('',#344,0.780361);
#346=LINE('',#57,#345);
#347=EDGE_CURVE('',#58,#56,#346,.T.);
#348=ORIENTED_EDGE('',*,*,#347,.T.);
#349=DIRECTION('',(0.000000,0.000000,-1.000000));
#350=VECTOR('',#349,4.000000);
#351=LINE('',#55,#350);
#352=EDGE_CURVE('',#56,#24,#351,.T.);
#353=ORIENTED_EDGE('',*,*,#352,.T.);
#354=EDGE_LOOP('',(#343,#348,#353));
#355=FACE_OUTER_BOUND('',#354,.T.);
#356=ADVANCED_FACE('',(#355),#338,.T.);
#357=CARTESIAN_POINT('',(-59.414214,-42.585786,-4.000000));
#358=DIRECTION('',(-0.831470,0.555570,0.000000));
#359=DIRECTION('',(0.000000,0.000000,1.000000));
#360=AXIS2_PLACEMENT_3D('',#357,#358,#359);
#361=PLANE('',#360);
#362=DIRECTION('',(-0.555570,-0.831470,0.000000));
#363=VECTOR('',#362,0.780361);
#364=LINE('',#25,#363);
#365=EDGE_CURVE('',#26,#28,#364,.T.);
#366=ORIENTED_EDGE('',*,*,#365,.T.);
#367=DIRECTION('',(0.000000,0.000000,1.000000));
#368=VECTOR('',#367,4.000000);
#369=LINE('',#27,#368);
#370=EDGE_CURVE('',#28,#60,#369,.T.);
#371=ORIENTED_EDGE('',*,*,#370,.T.);
#372=DIRECTION('',(0.106381,0.159210,-0.981496));
#373=VECTOR('',#372,4.075410);
#374=LINE('',#59,#373);
#375=EDGE_CURVE('',#60,#26,#374,.T.);
#376=ORIENTED_EDGE('',*,*,#375,.T.);
#377=EDGE_LOOP('',(#366,#371,#376));
#378=FACE_OUTER_BOUND('',#377,.T.);
#379=ADVANCED_FACE('',(#378),#361,.T.);
#380=CARTESIAN_POINT('',(-59.414214,-42.585786,-4.000000));
#381=DIRECTION('',(-0.831470,0.555570,0.000000));
#382=DIRECTION('',(0.000000,0.000000,1.000000));
#383=AXIS2_PLACEMENT_3D('',#380,#381,#382);
#384=PLANE('',#383);
#385=DIRECTION('',(-0.106381,-0.159210,0.981496));
#386=VECTOR('',#385,4.075410);
#387=LINE('',#25,#386);
#388=EDGE_CURVE('',#26,#60,#387,.T.);
#389=ORIENTED_EDGE('',*,*,#388,.T.);
#390=DIRECTION('',(0.555570,0.831470,0.000000));
#391=VECTOR('',#390,0.780361);
#392=LINE('',#59,#391);
#393=EDGE_CURVE('',#60,#58,#392,.T.);
#394=ORIENTED_EDGE('',*,*,#393,.T.);
#395=DIRECTION('',(0.000000,0.000000,-1.000000));
#396=VECTOR('',#395,4.000000);
#397=LINE('',#57,#396);
#398=EDGE_CURVE('',#58,#26,#397,.T.);
#399=ORIENTED_EDGE('',*,*,#398,.T.);
#400=EDGE_LOOP('',(#389,#394,#399));
#401=FACE_OUTER_BOUND('',#400,.T.);
#402=ADVANCED_FACE('',(#401),#384,.T.);
#403=CARTESIAN_POINT('',(-59.847759,-43.234633,-4.000000));
#404=DIRECTION('',(-0.980785,0.195090,0.000000));
#405=DIRECTION('',(0.000000,0.000000,1.000000));
#406=AXIS2_PLACEMENT_3D('',#403,#404,#405);
#407=PLANE('',#406);
#408=DIRECTION('',(-0.195090,-0.980785,0.000000));
#409=VECTOR('',#408,0.780361);
#410=LINE('',#27,#409);
#411=EDGE_CURVE('',#28,#30,#410,.T.);
#412=ORIENTED_EDGE('',*,*,#411,.T.);
#413=DIRECTION('',(0.000000,0.000000,1.000000));
#414=VECTOR('',#413,4.000000);
#415=LINE('',#29,#414);
#416=EDGE_CURVE('',#30,#62,#415,.T.);
#417=ORIENTED_EDGE('',*,*,#416,.T.);
#418=DIRECTION('',(0.037356,0.187801,-0.981496));
#419=VECTOR('',#418,4.075410);
#420=LINE('',#61,#419);
#421=EDGE_CURVE('',#62,#28,#420,.T.);
#422=ORIENTED_EDGE('',*,*,#421,.T.);
#423=EDGE_LOOP('',(#412,#417,#422));
#424=FACE_OUTER_BOUND('',#423,.T.);
#425=ADVANCED_FACE('',(#424),#407,.T.);
#426=CARTESIAN_POINT('',(-59.847759,-43.234633,-4.000000));
#427=DIRECTION('',(-0.980785,0.195090,0.000000));
#428=DIRECTION('',(0.000000,0.000000,1.000000));
#429=AXIS2_PLACEMENT_3D('',#426,#427,#428);
#430=PLANE('',#429);
#431=DIRECTION('',(-0.037356,-0.187801,0.981496));
#432=VECTOR('',#431,4.075410);
#433=LINE('',#27,#432);
#434=EDGE_CURVE('',#28,#62,#433,.T.);
#435=ORIENTED_EDGE('',*,*,#434,.T.);
#436=DIRECTION('',(0.195090,0.980785,0.000000));
#437=VECTOR('',#436,0.780361);
#438=LINE('',#61,#437);
#439=EDGE_CURVE('',#62,#60,#438,.T.);
#440=ORIENTED_EDGE('',*,*,#439,.T.);
#441=DIRECTION('',(0.000000,0.000000,-1.000000));
#442=VECTOR('',#441,4.000000);
#443=LINE('',#59,#442);
#444=EDGE_CURVE('',#60,#28,#443,.T.);
#445=ORIENTED_EDGE('',*,*,#444,.T.);
#446=EDGE_LOOP('',(#435,#440,#445));
#447=FACE_OUTER_BOUND('',#446,.T.);
#448=ADVANCED_FACE('',(#447),#430,.T.);
#449=CARTESIAN_POINT('',(-60.000000,-44.000000,-4.000000));
#450=DIRECTION('',(-0.980785,-0.195090,0.000000));
#451=DIRECTION('',(0.000000,0.000000,1.000000));
#452=AXIS2_PLACEMENT_3D('',#449,#450,#451);
#453=PLANE('',#452);
#454=DIRECTION('',(0.195090,-0.980785,0.000000));
#455=VECTOR('',#454,0.780361);
#456=LINE('',#29,#455);
#457=EDGE_CURVE('',#30,#32,#456,.T.);
#458=ORIENTED_EDGE('',*,*,#457,.T.);
#459=DIRECTION('',(0.000000,0.000000,1.000000));
#460=VECTOR('',#459,4.000000);
#461=LINE('',#31,#460);
#462=EDGE_CURVE('',#32,#64,#461,.T.);
#463=ORIENTED_EDGE('',*,*,#462,.T.);
#464=DIRECTION('',(-0.037356,0.187801,-0.981496));
#465=VECTOR('',#464,4.075410);
#466=LINE('',#63,#465);
#467=EDGE_CURVE('',#64,#30,#466,.T.);
#468=ORIENTED_EDGE('',*,*,#467,.T.);
#469=EDGE_LOOP('',(#458,#463,#468));
#470=FACE_OUTER_BOUND('',#469,.T.);
#471=ADVANCED_FACE('',(#470),#453,.T.);
#472=CARTESIAN_POINT('',(-60.000000,-44.000000,-4.000000));
#473=DIRECTION('',(-0.980785,-0.195090,0.000000));
#474=DIRECTION('',(0.000000,0.000000,1.000000));
#475=AXIS2_PLACEMENT_3D('',#472,#473,#474);
#476=PLANE('',#475);
#477=DIRECTION('',(0.037356,-0.187801,0.981496));
#478=VECTOR('',#477,4.075410);
#479=LINE('',#29,#478);
#480=EDGE_CURVE('',#30,#64,#479,.T.);
#481=ORIENTED_EDGE('',*,*,#480,.T.);
#482=DIRECTION('',(-0.195090,0.980785,0.000000));
#483=VECTOR('',#482,0.780361);
#484=LINE('',#63,#483);
#485=EDGE_CURVE('',#64,#62,#484,.T.);
#486=ORIENTED_EDGE('',*,*,#485,.T.);
#487=DIRECTION('',(0.000000,0.000000,-1.000000));
#488=VECTOR('',#487,4.000000);
#489=LINE('',#61,#488);
#490=EDGE_CURVE('',#62,#30,#489,.T.);
#491=ORIENTED_EDGE('',*,*,#490,.T.);
#492=EDGE_LOOP('',(#481,#486,#491));
#493=FACE_OUTER_BOUND('',#492,.T.);
#494=ADVANCED_FACE('',(#493),#476,.T.);
#495=CARTESIAN_POINT('',(-59.847759,-44.765367,-4.000000));
#496=DIRECTION('',(-0.831470,-0.555570,0.000000));
#497=DIRECTION('',(0.000000,0.000000,1.000000));
#498=AXIS2_PLACEMENT_3D('',#495,#496,#497);
#499=PLANE('',#498);
#500=DIRECTION('',(0.555570,-0.831470,0.000000));
#501=VECTOR('',#500,0.780361);
#502=LINE('',#31,#501);
#503=EDGE_CURVE('',#32,#34,#502,.T.);
#504=ORIENTED_EDGE('',*,*,#503,.T.);
#505=DIRECTION('',(0.000000,0.000000,1.000000));
#506=VECTOR('',#505,4.000000);
#507=LINE('',#33,#506);
#508=EDGE_CURVE('',#34,#66,#507,.T.);
#509=ORIENTED_EDGE('',*,*,#508,.T.);
#510=DIRECTION('',(-0.106381,0.159210,-0.981496));
#511=VECTOR('',#510,4.075410);
#512=LINE('',#65,#511);
#513=EDGE_CURVE('',#66,#32,#512,.T.);
#514=ORIENTED_EDGE('',*,*,#513,.T.);
#515=EDGE_LOOP('',(#504,#509,#514));
#516=FACE_OUTER_BOUND('',#515,.T.);
#517=ADVANCED_FACE('',(#516),#499,.T.);
#518=CARTESIAN_POINT('',(-59.847759,-44.765367,-4.000000));
#519=DIRECTION('',(-0.831470,-0.555570,0.000000));
#520=DIRECTION('',(0.000000,0.000000,1.000000));
#521=AXIS2_PLACEMENT_3D('',#518,#519,#520);
#522=PLANE('',#521);
#523=DIRECTION('',(0.106381,-0.159210,0.981496));
#524=VECTOR('',#523,4.075410);
#525=LINE('',#31,#524);
#526=EDGE_CURVE('',#32,#66,#525,.T.);
#527=ORIENTED_EDGE('',*,*,#526,.T.);
#528=DIRECTION('',(-0.555570,0.831470,0.000000));
#529=VECTOR('',#528,0.780361);
#530=LINE('',#65,#529);
#531=EDGE_CURVE('',#66,#64,#530,.T.);
#532=ORIENTED_EDGE('',*,*,#531,.T.);
#533=DIRECTION('',(0.000000,0.000000,-1.000000));
#534=VECTOR('',#533,4.000000);
#535=LINE('',#63,#534);
#536=EDGE_CURVE('',#64,#32,#535,.T.);
#537=ORIENTED_EDGE('',*,*,#536,.T.);
#538=EDGE_LOOP('',(#527,#532,#537));
#539=FACE_OUTER_BOUND('',#538,.T.);
#540=ADVANCED_FACE('',(#539),#522,.T.);
#541=CARTESIAN_POINT('',(-59.414214,-45.414214,-4.000000));
#542=DIRECTION('',(-0.555570,-0.831470,0.000000));
#543=DIRECTION('',(0.000000,0.000000,1.000000));
#544=AXIS2_PLACEMENT_3D('',#541,#542,#543);
#545=PLANE('',#544);
#546=DIRECTION('',(0.831470,-0.555570,0.000000));
#547=VECTOR('',#546,0.780361);
#548=LINE('',#33,#547);
#549=EDGE_CURVE('',#34,#36,#548,.T.);
#550=ORIENTED_EDGE('',*,*,#549,.T.);
#551=DIRECTION('',(0.000000,0.000000,1.000000));
#552=VECTOR('',#551,4.000000);
#553=LINE('',#35,#552);
#554=EDGE_CURVE('',#36,#68,#553,.T.);
#555=ORIENTED_EDGE('',*,*,#554,.T.);
#556=DIRECTION('',(-0.159210,0.106381,-0.981496));
#557=VECTOR('',#556,4.075410);
#558=LINE('',#67,#557);
#559=EDGE_CURVE('',#68,#34,#558,.T.);
#560=ORIENTED_EDGE('',*,*,#559,.T.);
#561=EDGE_LOOP('',(#550,#555,#560));
#562=FACE_OUTER_BOUND('',#561,.T.);
#563=ADVANCED_FACE('',(#562),#545,.T.);
#564=CARTESIAN_POINT('',(-59.414214,-45.414214,-4.000000));
#565=DIRECTION('',(-0.555570,-0.831470,0.000000));
#566=DIRECTION('',(0.000000,0.000000,1.000000));
#567=AXIS2_PLACEMENT_3D('',#564,#565,#566);
#568=PLANE('',#567);
#569=DIRECTION('',(0.159210,-0.106381,0.981496));
#570=VECTOR('',#569,4.075410);
#571=LINE('',#33,#570);
#572=EDGE_CURVE('',#34,#68,#571,.T.);
#573=ORIENTED_EDGE('',*,*,#572,.T.);
#574=DIRECTION('',(-0.831470,0.555570,0.000000));
#575=VECTOR('',#574,0.780361);
#576=LINE('',#67,#575);
#577=EDGE_CURVE('',#68,#66,#576,.T.);
#578=ORIENTED_EDGE('',*,*,#577,.T.);
#579=DIRECTION('',(0.000000,0.000000,-1.000000));
#580=VECTOR('',#579,4.000000);
#581=LINE('',#65,#580);
#582=EDGE_CURVE('',#66,#34,#581,.T.);
#583=ORIENTED_EDGE('',*,*,#582,.T.);
#584=EDGE_LOOP('',(#573,#578,#583));
#585=FACE_OUTER_BOUND('',#584,.T.);
#586=ADVANCED_FACE('',(#585),#568,.T.);
#587=CARTESIAN_POINT('',(-58.765367,-45.847759,-4.000000));
#588=DIRECTION('',(-0.195090,-0.980785,0.000000));
#589=DIRECTION('',(0.000000,0.000000,1.000000));
#590=AXIS2_PLACEMENT_3D('',#587,#588,#589);
#591=PLANE('',#590);
#592=DIRECTION('',(0.980785,-0.195090,0.000000));
#593=VECTOR('',#592,0.780361);
#594=LINE('',#35,#593);
#595=EDGE_CURVE('',#36,#38,#594,.T.);
#596=ORIENTED_EDGE('',*,*,#595,.T.);
#597=DIRECTION('',(0.000000,0.000000,1.000000));
#598=VECTOR('',#597,4.000000);
#599=LINE('',#37,#598);
#600=EDGE_CURVE('',#38,#70,#599,.T.);
#601=ORIENTED_EDGE('',*,*,#600,.T.);
#602=DIRECTION('',(-0.187801,0.037356,-0.981496));
#603=VECTOR('',#602,4.075410);
#604=LINE('',#69,#603);
#605=EDGE_CURVE('',#70,#36,#604,.T.);
#606=ORIENTED_EDGE('',*,*,#605,.T.);
#607=EDGE_LOOP('',(#596,#601,#606));
#608=FACE_OUTER_BOUND('',#607,.T.);
#609=ADVANCED_FACE('',(#608),#591,.T.);
#610=CARTESIAN_POINT('',(-58.765367,-45.847759,-4.000000));
#611=DIRECTION('',(-0.195090,-0.980785,0.000000));
#612=DIRECTION('',(0.000000,0.000000,1.000000));
#613=AXIS2_PLACEMENT_3D('',#610,#611,#612);
#614=PLANE('',#613);
#615=DIRECTION('',(0.187801,-0.037356,0.981496));
#616=VECTOR('',#615,4.075410);
#617=LINE('',#35,#616);
#618=EDGE_CURVE('',#36,#70,#617,.T.);
#619=ORIENTED_EDGE('',*,*,#618,.T.);
#620=DIRECTION('',(-0.980785,0.195090,0.000000));
#621=VECTOR('',#620,0.780361);
#622=LINE('',#69,#621);
#623=EDGE_CURVE('',#70,#68,#622,.T.);
#624=ORIENTED_EDGE('',*,*,#623,.T.);
#625=DIRECTION('',(0.000000,0.000000,-1.000000));
#626=VECTOR('',#625,4.000000);
#627=LINE('',#67,#626);
#628=EDGE_CURVE('',#68,#36,#627,.T.);
#629=ORIENTED_EDGE('',*,*,#628,.T.);
#630=EDGE_LOOP('',(#619,#624,#629));
#631=FACE_OUTER_BOUND('',#630,.T.);
#632=ADVANCED_FACE('',(#631),#614,.T.);
#633=CARTESIAN_POINT('',(-58.000000,-46.000000,-4.000000));
#634=DIRECTION('',(0.195090,-0.980785,0.000000));
#635=DIRECTION('',(0.000000,0.000000,1.000000));
#636=AXIS2_PLACEMENT_3D('',#633,#634,#635);
#637=PLANE('',#636);
#638=DIRECTION('',(0.980785,0.195090,0.000000));
#639=VECTOR('',#638,0.780361);
#640=LINE('',#37,#639);
#641=EDGE_CURVE('',#38,#40,#640,.T.);
#642=ORIENTED_EDGE('',*,*,#641,.T.);
#643=DIRECTION('',(0.000000,0.000000,1.000000));
#644=VECTOR('',#643,4.000000);
#645=LINE('',#39,#644);
#646=EDGE_CURVE('',#40,#72,#645,.T.);
#647=ORIENTED_EDGE('',*,*,#646,.T.);
#648=DIRECTION('',(-0.187801,-0.037356,-0.981496));
#649=VECTOR('',#648,4.075410);
#650=LINE('',#71,#649);
#651=EDGE_CURVE('',#72,#38,#650,.T.);
#652=ORIENTED_EDGE('',*,*,#651,.T.);
#653=EDGE_LOOP('',(#642,#647,#652));
#654=FACE_OUTER_BOUND('',#653,.T.);
#655=ADVANCED_FACE('',(#654),#637,.T.);
#656=CARTESIAN_POINT('',(-58.000000,-46.000000,-4.000000));
#657=DIRECTION('',(0.195090,-0.980785,0.000000));
#658=DIRECTION('',(0.000000,0.000000,1.000000));
#659=AXIS2_PLACEMENT_3D('',#656,#657,#658);
#660=PLANE('',#659);
#661=DIRECTION('',(0.187801,0.037356,0.981496));
#662=VECTOR('',#661,4.075410);
#663=LINE('',#37,#662);
#664=EDGE_CURVE('',#38,#72,#663,.T.);
#665=ORIENTED_EDGE('',*,*,#664,.T.);
#666=DIRECTION('',(-0.980785,-0.195090,0.000000));
#667=VECTOR('',#666,0.780361);
#668=LINE('',#71,#667);
#669=EDGE_CURVE('',#72,#70,#668,.T.);
#670=ORIENTED_EDGE('',*,*,#669,.T.);
#671=DIRECTION('',(0.000000,0.000000,-1.000000));
#672=VECTOR('',#671,4.000000);
#673=LINE('',#69,#672);
#674=EDGE_CURVE('',#70,#38,#673,.T.);
#675=ORIENTED_EDGE('',*,*,#674,.T.);
#676=EDGE_LOOP('',(#665,#670,#675));
#677=FACE_OUTER_BOUND('',#676,.T.);
#678=ADVANCED_FACE('',(#677),#660,.T.);
#679=CARTESIAN_POINT('',(-57.234633,-45.847759,-4.000000));
#680=DIRECTION('',(0.555570,-0.831470,0.000000));
#681=DIRECTION('',(0.000000,0.000000,1.000000));
#682=AXIS2_PLACEMENT_3D('',#679,#680,#681);
#683=PLANE('',#682);
#684=DIRECTION('',(0.831470,0.555570,0.000000));
#685=VECTOR('',#684,0.780361);
#686=LINE('',#39,#685);
#687=EDGE_CURVE('',#40,#42,#686,.T.);
#688=ORIENTED_EDGE('',*,*,#687,.T.);
#689=DIRECTION('',(0.000000,0.000000,1.000000));
#690=VECTOR('',#689,4.000000);
#691=LINE('',#41,#690);
#692=EDGE_CURVE('',#42,#74,#691,.T.);
#693=ORIENTED_EDGE('',*,*,#692,.T.);
#694=DIRECTION('',(-0.159210,-0.106381,-0.981496));
#695=VECTOR('',#694,4.075410);
#696=LINE('',#73,#695);
#697=EDGE_CURVE('',#74,#40,#696,.T.);
#698=ORIENTED_EDGE('',*,*,#697,.T.);
#699=EDGE_LOOP('',(#688,#693,#698));
#700=FACE_OUTER_BOUND('',#699,.T.);
#701=ADVANCED_FACE('',(#700),#683,.T.);
#702=CARTESIAN_POINT('',(-57.234633,-45.847759,-4.000000));
#703=DIRECTION('',(0.555570,-0.831470,0.000000));
#704=DIRECTION('',(0.000000,0.000000,1.000000));
#705=AXIS2_PLACEMENT_3D('',#702,#703,#704);
#706=PLANE('',#705);
#707=DIRECTION('',(0.159210,0.106381,0.981496));
#708=VECTOR('',#707,4.075410);
#709=LINE('',#39,#708);
#710=EDGE_CURVE('',#40,#74,#709,.T.);
#711=ORIENTED_EDGE('',*,*,#710,.T.);
#712=DIRECTION('',(-0.831470,-0.555570,0.000000));
#713=VECTOR('',#712,0.780361);
#714=LINE('',#73,#713);
#715=EDGE_CURVE('',#74,#72,#714,.T.);
#716=ORIENTED_EDGE('',*,*,#715,.T.);
#717=DIRECTION('',(0.000000,0.000000,-1.000000));
#718=VECTOR('',#717,4.000000);
#719=LINE('',#71,#718);
#720=EDGE_CURVE('',#72,#40,#719,.T.);
#721=ORIENTED_EDGE('',*,*,#720,.T.);
#722=EDGE_LOOP('',(#711,#716,#721));
#723=FACE_OUTER_BOUND('',#722,.T.);
#724=ADVANCED_FACE('',(#723),#706,.T.);
#725=CARTESIAN_POINT('',(-56.585786,-45.414214,-4.000000));
#726=DIRECTION('',(0.831470,-0.555570,0.000000));
#727=DIRECTION('',(0.000000,0.000000,1.000000));
#728=AXIS2_PLACEMENT_3D('',#725,#726,#727);
#729=PLANE('',#728);
#730=DIRECTION('',(0.555570,0.831470,0.000000));
#731=VECTOR('',#730,0.780361);
#732=LINE('',#41,#731);
#733=EDGE_CURVE('',#42,#44,#732,.T.);
#734=ORIENTED_EDGE('',*,*,#733,.T.);
#735=DIRECTION('',(0.000000,0.000000,1.000000));
#736=VECTOR('',#735,4.000000);
#737=LINE('',#43,#736);
#738=EDGE_CURVE('',#44,#76,#737,.T.);
#739=ORIENTED_EDGE('',*,*,#738,.T.);
#740=DIRECTION('',(-0.106381,-0.159210,-0.981496));
#741=VECTOR('',#740,4.075410);
#742=LINE('',#75,#741);
#743=EDGE_CURVE('',#76,#42,#742,.T.);
#744=ORIENTED_EDGE('',*,*,#743,.T.);
#745=EDGE_LOOP('',(#734,#739,#744));
#746=FACE_OUTER_BOUND('',#745,.T.);
#747=ADVANCED_FACE('',(#746),#729,.T.);
#748=CARTESIAN_POINT('',(-56.585786,-45.414214,-4.000000));
#749=DIRECTION('',(0.831470,-0.555570,0.000000));
#750=DIRECTION('',(0.000000,0.000000,1.000000));
#751=AXIS2_PLACEMENT_3D('',#748,#749,#750);
#752=PLANE('',#751);
#753=DIRECTION('',(0.106381,0.159210,0.981496));
#754=VECTOR('',#753,4.075410);
#755=LINE('',#41,#754);
#756=EDGE_CURVE('',#42,#76,#755,.T.);
#757=ORIENTED_EDGE('',*,*,#756,.T.);
#758=DIRECTION('',(-0.555570,-0.831470,0.000000));
#759=VECTOR('',#758,0.780361);
#760=LINE('',#75,#759);
#761=EDGE_CURVE('',#76,#74,#760,.T.);
#762=ORIENTED_EDGE('',*,*,#761,.T.);
#763=DIRECTION('',(0.000000,0.000000,-1.000000));
#764=VECTOR('',#763,4.000000);
#765=LINE('',#73,#764);
#766=EDGE_CURVE('',#74,#42,#765,.T.);
#767=ORIENTED_EDGE('',*,*,#766,.T.);
#768=EDGE_LOOP('',(#757,#762,#767));
#769=FACE_OUTER_BOUND('',#768,.T.);
#770=ADVANCED_FACE('',(#769),#752,.T.);
#771=CARTESIAN_POINT('',(-56.152241,-44.765367,-4.000000));
#772=DIRECTION('',(0.980785,-0.195090,0.000000));
#773=DIRECTION('',(0.000000,0.000000,1.000000));
#774=AXIS2_PLACEMENT_3D('',#771,#772,#773);
#775=PLANE('',#774);
#776=DIRECTION('',(0.195090,0.980785,0.000000));
#777=VECTOR('',#776,0.780361);
#778=LINE('',#43,#777);
#779=EDGE_CURVE('',#44,#14,#778,.T.);
#780=ORIENTED_EDGE('',*,*,#779,.T.);
#781=DIRECTION('',(0.000000,0.000000,1.000000));
#782=VECTOR('',#781,4.000000);
#783=LINE('',#13,#782);
#784=EDGE_CURVE('',#14,#46,#783,.T.);
#785=ORIENTED_EDGE('',*,*,#784,.T.);
#786=DIRECTION('',(-0.037356,-0.187801,-0.981496));
#787=VECTOR('',#786,4.075410);
#788=LINE('',#45,#787);
#789=EDGE_CURVE('',#46,#44,#788,.T.);
#790=ORIENTED_EDGE('',*,*,#789,.T.);
#791=EDGE_LOOP('',(#780,#785,#790));
#792=FACE_OUTER_BOUND('',#791,.T.);
#793=ADVANCED_FACE('',(#792),#775,.T.);
#794=CARTESIAN_POINT('',(-56.152241,-44.765367,-4.000000));
#795=DIRECTION('',(0.980785,-0.195090,0.000000));
#796=DIRECTION('',(0.000000,0.000000,1.000000));
#797=AXIS2_PLACEMENT_3D('',#794,#795,#796);
#798=PLANE('',#797);
#799=DIRECTION('',(0.037356,0.187801,0.981496));
#800=VECTOR('',#799,4.075410);
#801=LINE('',#43,#800);
#802=EDGE_CURVE('',#44,#46,#801,.T.);
#803=ORIENTED_EDGE('',*,*,#802,.T.);
#804=DIRECTION('',(-0.195090,-0.980785,0.000000));
#805=VECTOR('',#804,0.780361);
#806=LINE('',#45,#805);
#807=EDGE_CURVE('',#46,#76,#806,.T.);
#808=ORIENTED_EDGE('',*,*,#807,.T.);
#809=DIRECTION('',(0.000000,0.000000,-1.000000));
#810=VECTOR('',#809,4.000000);
#811=LINE('',#75,#810);
#812=EDGE_CURVE('',#76,#44,#811,.T.);
#813=ORIENTED_EDGE('',*,*,#812,.T.);
#814=EDGE_LOOP('',(#803,#808,#813));
#815=FACE_OUTER_BOUND('',#814,.T.);
#816=ADVANCED_FACE('',(#815),#798,.T.);
#817=CARTESIAN_POINT('',(-58.000000,-44.000000,-4.000000));
#818=DIRECTION('',(0.000000,0.000000,-1.000000));
#819=DIRECTION('',(1.000000,0.000000,0.000000));
#820=AXIS2_PLACEMENT_3D('',#817,#818,#819);
#821=PLANE('',#820);
#822=DIRECTION('',(0.923880,0.382684,0.000000));
#823=VECTOR('',#822,2.000000);
#824=LINE('',#77,#823);
#825=EDGE_CURVE('',#78,#16,#824,.T.);
#826=ORIENTED_EDGE('',*,*,#825,.T.);
#827=DIRECTION('',(0.195090,-0.980785,0.000000));
#828=VECTOR('',#827,0.780361);
#829=LINE('',#15,#828);
#830=EDGE_CURVE('',#16,#14,#829,.T.);
#831=ORIENTED_EDGE('',*,*,#830,.T.);
#832=DIRECTION('',(-1.000000,0.000000,0.000000));
#833=VECTOR('',#832,2.000000);
#834=LINE('',#13,#833);
#835=EDGE_CURVE('',#14,#78,#834,.T.);
#836=ORIENTED_EDGE('',*,*,#835,.T.);
#837=EDGE_LOOP('',(#826,#831,#836));
#838=FACE_OUTER_BOUND('',#837,.T.);
#839=ADVANCED_FACE('',(#838),#821,.T.);
#840=CARTESIAN_POINT('',(-58.000000,-44.000000,0.000000));
#841=DIRECTION('',(0.000000,0.000000,1.000000));
#842=DIRECTION('',(1.000000,0.000000,0.000000));
#843=AXIS2_PLACEMENT_3D('',#840,#841,#842);
#844=PLANE('',#843);
#845=DIRECTION('',(1.000000,0.000000,0.000000));
#846=VECTOR('',#845,2.000000);
#847=LINE('',#79,#846);
#848=EDGE_CURVE('',#80,#46,#847,.T.);
#849=ORIENTED_EDGE('',*,*,#848,.T.);
#850=DIRECTION('',(-0.195090,0.980785,0.000000));
#851=VECTOR('',#850,0.780361);
#852=LINE('',#45,#851);
#853=EDGE_CURVE('',#46,#48,#852,.T.);
#854=ORIENTED_EDGE('',*,*,#853,.T.);
#855=DIRECTION('',(-0.923880,-0.382684,0.000000));
#856=VECTOR('',#855,2.000000);
#857=LINE('',#47,#856);
#858=EDGE_CURVE('',#48,#80,#857,.T.);
#859=ORIENTED_EDGE('',*,*,#858,.T.);
#860=EDGE_LOOP('',(#849,#854,#859));
#861=FACE_OUTER_BOUND('',#860,.T.);
#862=ADVANCED_FACE('',(#861),#844,.T.);
#863=CARTESIAN_POINT('',(-58.000000,-44.000000,-4.000000));
#864=DIRECTION('',(0.000000,0.000000,-1.000000));
#865=DIRECTION('',(1.000000,0.000000,0.000000));
#866=AXIS2_PLACEMENT_3D('',#863,#864,#865);
#867=PLANE('',#866);
#868=DIRECTION('',(0.707107,0.707107,0.000000));
#869=VECTOR('',#868,2.000001);
#870=LINE('',#77,#869);
#871=EDGE_CURVE('',#78,#18,#870,.T.);
#872=ORIENTED_EDGE('',*,*,#871,.T.);
#873=DIRECTION('',(0.555570,-0.831470,0.000000));
#874=VECTOR('',#873,0.780361);
#875=LINE('',#17,#874);
#876=EDGE_CURVE('',#18,#16,#875,.T.);
#877=ORIENTED_EDGE('',*,*,#876,.T.);
#878=DIRECTION('',(-0.923880,-0.382684,0.000000));
#879=VECTOR('',#878,2.000000);
#880=LINE('',#15,#879);
#881=EDGE_CURVE('',#16,#78,#880,.T.);
#882=ORIENTED_EDGE('',*,*,#881,.T.);
#883=EDGE_LOOP('',(#872,#877,#882));
#884=FACE_OUTER_BOUND('',#883,.T.);
#885=ADVANCED_FACE('',(#884),#867,.T.);
#886=CARTESIAN_POINT('',(-58.000000,-44.000000,0.000000));
#887=DIRECTION('',(0.000000,0.000000,1.000000));
#888=DIRECTION('',(1.000000,0.000000,0.000000));
#889=AXIS2_PLACEMENT_3D('',#886,#887,#888);
#890=PLANE('',#889);
#891=DIRECTION('',(0.923880,0.382684,0.000000));
#892=VECTOR('',#891,2.000000);
#893=LINE('',#79,#892);
#894=EDGE_CURVE('',#80,#48,#893,.T.);
#895=ORIENTED_EDGE('',*,*,#894,.T.);
#896=DIRECTION('',(-0.555570,0.831470,0.000000));
#897=VECTOR('',#896,0.780361);
#898=LINE('',#47,#897);
#899=EDGE_CURVE('',#48,#50,#898,.T.);
#900=ORIENTED_EDGE('',*,*,#899,.T.);
#901=DIRECTION('',(-0.707107,-0.707107,0.000000));
#902=VECTOR('',#901,2.000001);
#903=LINE('',#49,#902);
#904=EDGE_CURVE('',#50,#80,#903,.T.);
#905=ORIENTED_EDGE('',*,*,#904,.T.);
#906=EDGE_LOOP('',(#895,#900,#905));
#907=FACE_OUTER_BOUND('',#906,.T.);
#908=ADVANCED_FACE('',(#907),#890,.T.);
#909=CARTESIAN_POINT('',(-58.000000,-44.000000,-4.000000));
#910=DIRECTION('',(0.000000,0.000000,-1.000000));
#911=DIRECTION('',(1.000000,0.000000,0.000000));
#912=AXIS2_PLACEMENT_3D('',#909,#910,#911);
#913=PLANE('',#912);
#914=DIRECTION('',(0.382684,0.923880,0.000000));
#915=VECTOR('',#914,2.000000);
#916=LINE('',#77,#915);
#917=EDGE_CURVE('',#78,#20,#916,.T.);
#918=ORIENTED_EDGE('',*,*,#917,.T.);
#919=DIRECTION('',(0.831470,-0.555570,0.000000));
#920=VECTOR('',#919,0.780361);
#921=LINE('',#19,#920);
#922=EDGE_CURVE('',#20,#18,#921,.T.);
#923=ORIENTED_EDGE('',*,*,#922,.T.);
#924=DIRECTION('',(-0.707107,-0.707107,0.000000));
#925=VECTOR('',#924,2.000001);
#926=LINE('',#17,#925);
#927=EDGE_CURVE('',#18,#78,#926,.T.);
#928=ORIENTED_EDGE('',*,*,#927,.T.);
#929=EDGE_LOOP('',(#918,#923,#928));
#930=FACE_OUTER_BOUND('',#929,.T.);
#931=ADVANCED_FACE('',(#930),#913,.T.);
#932=CARTESIAN_POINT('',(-58.000000,-44.000000,0.000000));
#933=DIRECTION('',(0.000000,0.000000,1.000000));
#934=DIRECTION('',(1.000000,0.000000,0.000000));
#935=AXIS2_PLACEMENT_3D('',#932,#933,#934);
#936=PLANE('',#935);
#937=DIRECTION('',(0.707107,0.707107,0.000000));
#938=VECTOR('',#937,2.000001);
#939=LINE('',#79,#938);
#940=EDGE_CURVE('',#80,#50,#939,.T.);
#941=ORIENTED_EDGE('',*,*,#940,.T.);
#942=DIRECTION('',(-0.831470,0.555570,0.000000));
#943=VECTOR('',#942,0.780361);
#944=LINE('',#49,#943);
#945=EDGE_CURVE('',#50,#52,#944,.T.);
#946=ORIENTED_EDGE('',*,*,#945,.T.);
#947=DIRECTION('',(-0.382684,-0.923880,0.000000));
#948=VECTOR('',#947,2.000000);
#949=LINE('',#51,#948);
#950=EDGE_CURVE('',#52,#80,#949,.T.);
#951=ORIENTED_EDGE('',*,*,#950,.T.);
#952=EDGE_LOOP('',(#941,#946,#951));
#953=FACE_OUTER_BOUND('',#952,.T.);
#954=ADVANCED_FACE('',(#953),#936,.T.);
#955=CARTESIAN_POINT('',(-58.000000,-44.000000,-4.000000));
#956=DIRECTION('',(0.000000,0.000000,-1.000000));
#957=DIRECTION('',(1.000000,0.000000,0.000000));
#958=AXIS2_PLACEMENT_3D('',#955,#956,#957);
#959=PLANE('',#958);
#960=DIRECTION('',(0.000000,1.000000,0.000000));
#961=VECTOR('',#960,2.000000);
#962=LINE('',#77,#961);
#963=EDGE_CURVE('',#78,#22,#962,.T.);
#964=ORIENTED_EDGE('',*,*,#963,.T.);
#965=DIRECTION('',(0.980785,-0.195090,0.000000));
#966=VECTOR('',#965,0.780361);
#967=LINE('',#21,#966);
#968=EDGE_CURVE('',#22,#20,#967,.T.);
#969=ORIENTED_EDGE('',*,*,#968,.T.);
#970=DIRECTION('',(-0.382684,-0.923880,0.000000));
#971=VECTOR('',#970,2.000000);
#972=LINE('',#19,#971);
#973=EDGE_CURVE('',#20,#78,#972,.T.);
#974=ORIENTED_EDGE('',*,*,#973,.T.);
#975=EDGE_LOOP('',(#964,#969,#974));
#976=FACE_OUTER_BOUND('',#975,.T.);
#977=ADVANCED_FACE('',(#976),#959,.T.);
#978=CARTESIAN_POINT('',(-58.000000,-44.000000,0.000000));
#979=DIRECTION('',(0.000000,0.000000,1.000000));
#980=DIRECTION('',(1.000000,0.000000,0.000000));
#981=AXIS2_PLACEMENT_3D('',#978,#979,#980);
#982=PLANE('',#981);
#983=DIRECTION('',(0.382684,0.923880,0.000000));
#984=VECTOR('',#983,2.000000);
#985=LINE('',#79,#984);
#986=EDGE_CURVE('',#80,#52,#985,.T.);
#987=ORIENTED_EDGE('',*,*,#986,.T.);
#988=DIRECTION('',(-0.980785,0.195090,0.000000));
#989=VECTOR('',#988,0.780361);
#990=LINE('',#51,#989);
#991=EDGE_CURVE('',#52,#54,#990,.T.);
#992=ORIENTED_EDGE('',*,*,#991,.T.);
#993=DIRECTION('',(0.000000,-1.000000,0.000000));
#994=VECTOR('',#993,2.000000);
#995=LINE('',#53,#994);
#996=EDGE_CURVE('',#54,#80,#995,.T.);
#997=ORIENTED_EDGE('',*,*,#996,.T.);
#998=EDGE_LOOP('',(#987,#992,#997));
#999=FACE_OUTER_BOUND('',#998,.T.);
#1000=ADVANCED_FACE('',(#999),#982,.T.);
#1001=CARTESIAN_POINT('',(-58.000000,-44.000000,-4.000000));
#1002=DIRECTION('',(0.000000,0.000000,-1.000000));
#1003=DIRECTION('',(1.000000,0.000000,0.000000));
#1004=AXIS2_PLACEMENT_3D('',#1001,#1002,#1003);
#1005=PLANE('',#1004);
#1006=DIRECTION('',(-0.382684,0.923880,0.000000));
#1007=VECTOR('',#1006,2.000000);
#1008=LINE('',#77,#1007);
#1009=EDGE_CURVE('',#78,#24,#1008,.T.);
#1010=ORIENTED_EDGE('',*,*,#1009,.T.);
#1011=DIRECTION('',(0.980785,0.195090,0.000000));
#1012=VECTOR('',#1011,0.780361);
#1013=LINE('',#23,#1012);
#1014=EDGE_CURVE('',#24,#22,#1013,.T.);
#1015=ORIENTED_EDGE('',*,*,#1014,.T.);
#1016=DIRECTION('',(0.000000,-1.000000,0.000000));
#1017=VECTOR('',#1016,2.000000);
#1018=LINE('',#21,#1017);
#1019=EDGE_CURVE('',#22,#78,#1018,.T.);
#1020=ORIENTED_EDGE('',*,*,#1019,.T.);
#1021=EDGE_LOOP('',(#1010,#1015,#1020));
#1022=FACE_OUTER_BOUND('',#1021,.T.);
#1023=ADVANCED_FACE('',(#1022),#1005,.T.);
#1024=CARTESIAN_POINT('',(-58.000000,-44.000000,0.000000));
#1025=DIRECTION('',(0.000000,0.000000,1.000000));
#1026=DIRECTION('',(1.000000,0.000000,0.000000));
#1027=AXIS2_PLACEMENT_3D('',#1024,#1025,#1026);
#1028=PLANE('',#1027);
#1029=DIRECTION('',(0.000000,1.000000,0.000000));
#1030=VECTOR('',#1029,2.000000);
#1031=LINE('',#79,#1030);
#1032=EDGE_CURVE('',#80,#54,#1031,.T.);
#1033=ORIENTED_EDGE('',*,*,#1032,.T.);
#1034=DIRECTION('',(-0.980785,-0.195090,0.000000));
#1035=VECTOR('',#1034,0.780361);
#1036=LINE('',#53,#1035);
#1037=EDGE_CURVE('',#54,#56,#1036,.T.);
#1038=ORIENTED_EDGE('',*,*,#1037,.T.);
#1039=DIRECTION('',(0.382684,-0.923880,0.000000));
#1040=VECTOR('',#1039,2.000000);
#1041=LINE('',#55,#1040);
#1042=EDGE_CURVE('',#56,#80,#1041,.T.);
#1043=ORIENTED_EDGE('',*,*,#1042,.T.);
#1044=EDGE_LOOP('',(#1033,#1038,#1043));
#1045=FACE_OUTER_BOUND('',#1044,.T.);
#1046=ADVANCED_FACE('',(#1045),#1028,.T.);
#1047=CARTESIAN_POINT('',(-58.000000,-44.000000,-4.000000));
#1048=DIRECTION('',(0.000000,0.000000,-1.000000));
#1049=DIRECTION('',(1.000000,0.000000,0.000000));
#1050=AXIS2_PLACEMENT_3D('',#1047,#1048,#1049);
#1051=PLANE('',#1050);
#1052=DIRECTION('',(-0.707107,0.707107,0.000000));
#1053=VECTOR('',#1052,2.000001);
#1054=LINE('',#77,#1053);
#1055=EDGE_CURVE('',#78,#26,#1054,.T.);
#1056=ORIENTED_EDGE('',*,*,#1055,.T.);
#1057=DIRECTION('',(0.831470,0.555570,0.000000));
#1058=VECTOR('',#1057,0.780361);
#1059=LINE('',#25,#1058);
#1060=EDGE_CURVE('',#26,#24,#1059,.T.);
#1061=ORIENTED_EDGE('',*,*,#1060,.T.);
#1062=DIRECTION('',(0.382684,-0.923880,0.000000));
#1063=VECTOR('',#1062,2.000000);
#1064=LINE('',#23,#1063);
#1065=EDGE_CURVE('',#24,#78,#1064,.T.);
#1066=ORIENTED_EDGE('',*,*,#1065,.T.);
#1067=EDGE_LOOP('',(#1056,#1061,#1066));
#1068=FACE_OUTER_BOUND('',#1067,.T.);
#1069=ADVANCED_FACE('',(#1068),#1051,.T.);
#1070=CARTESIAN_POINT('',(-58.000000,-44.000000,0.000000));
#1071=DIRECTION('',(0.000000,0.000000,1.000000));
#1072=DIRECTION('',(1.000000,0.000000,0.000000));
#1073=AXIS2_PLACEMENT_3D('',#1070,#1071,#1072);
#1074=PLANE('',#1073);
#1075=DIRECTION('',(-0.382684,0.923880,0.000000));
#1076=VECTOR('',#1075,2.000000);
#1077=LINE('',#79,#1076);
#1078=EDGE_CURVE('',#80,#56,#1077,.T.);
#1079=ORIENTED_EDGE('',*,*,#1078,.T.);
#1080=DIRECTION('',(-0.831470,-0.555570,0.000000));
#1081=VECTOR('',#1080,0.780361);
#1082=LINE('',#55,#1081);
#1083=EDGE_CURVE('',#56,#58,#1082,.T.);
#1084=ORIENTED_EDGE('',*,*,#1083,.T.);
#1085=DIRECTION('',(0.707107,-0.707107,0.000000));
#1086=VECTOR('',#1085,2.000001);
#1087=LINE('',#57,#1086);
#1088=EDGE_CURVE('',#58,#80,#1087,.T.);
#1089=ORIENTED_EDGE('',*,*,#1088,.T.);
#1090=EDGE_LOOP('',(#1079,#1084,#1089));
#1091=FACE_OUTER_BOUND('',#1090,.T.);
#1092=ADVANCED_FACE('',(#1091),#1074,.T.);
#1093=CARTESIAN_POINT('',(-58.000000,-44.000000,-4.000000));
#1094=DIRECTION('',(0.000000,0.000000,-1.000000));
#1095=DIRECTION('',(1.000000,0.000000,0.000000));
#1096=AXIS2_PLACEMENT_3D('',#1093,#1094,#1095);
#1097=PLANE('',#1096);
#1098=DIRECTION('',(-0.923880,0.382684,0.000000));
#1099=VECTOR('',#1098,2.000000);
#1100=LINE('',#77,#1099);
#1101=EDGE_CURVE('',#78,#28,#1100,.T.);
#1102=ORIENTED_EDGE('',*,*,#1101,.T.);
#1103=DIRECTION('',(0.555570,0.831470,0.000000));
#1104=VECTOR('',#1103,0.780361);
#1105=LINE('',#27,#1104);
#1106=EDGE_CURVE('',#28,#26,#1105,.T.);
#1107=ORIENTED_EDGE('',*,*,#1106,.T.);
#1108=DIRECTION('',(0.707107,-0.707107,0.000000));
#1109=VECTOR('',#1108,2.000001);
#1110=LINE('',#25,#1109);
#1111=EDGE_CURVE('',#26,#78,#1110,.T.);
#1112=ORIENTED_EDGE('',*,*,#1111,.T.);
#1113=EDGE_LOOP('',(#1102,#1107,#1112));
#1114=FACE_OUTER_BOUND('',#1113,.T.);
#1115=ADVANCED_FACE('',(#1114),#1097,.T.);
#1116=CARTESIAN_POINT('',(-58.000000,-44.000000,0.000000));
#1117=DIRECTION('',(0.000000,0.000000,1.000000));
#1118=DIRECTION('',(1.000000,0.000000,0.000000));
#1119=AXIS2_PLACEMENT_3D('',#1116,#1117,#1118);
#1120=PLANE('',#1119);
#1121=DIRECTION('',(-0.707107,0.707107,0.000000));
#1122=VECTOR('',#1121,2.000001);
#1123=LINE('',#79,#1122);
#1124=EDGE_CURVE('',#80,#58,#1123,.T.);
#1125=ORIENTED_EDGE('',*,*,#1124,.T.);
#1126=DIRECTION('',(-0.555570,-0.831470,0.000000));
#1127=VECTOR('',#1126,0.780361);
#1128=LINE('',#57,#1127);
#1129=EDGE_CURVE('',#58,#60,#1128,.T.);
#1130=ORIENTED_EDGE('',*,*,#1129,.T.);
#1131=DIRECTION('',(0.923880,-0.382684,0.000000));
#1132=VECTOR('',#1131,2.000000);
#1133=LINE('',#59,#1132);
#1134=EDGE_CURVE('',#60,#80,#1133,.T.);
#1135=ORIENTED_EDGE('',*,*,#1134,.T.);
#1136=EDGE_LOOP('',(#1125,#1130,#1135));
#1137=FACE_OUTER_BOUND('',#1136,.T.);
#1138=ADVANCED_FACE('',(#1137),#1120,.T.);
#1139=CARTESIAN_POINT('',(-58.000000,-44.000000,-4.000000));
#1140=DIRECTION('',(0.000000,0.000000,-1.000000));
#1141=DIRECTION('',(1.000000,0.000000,0.000000));
#1142=AXIS2_PLACEMENT_3D('',#1139,#1140,#1141);
#1143=PLANE('',#1142);
#1144=DIRECTION('',(-1.000000,0.000000,0.000000));
#1145=VECTOR('',#1144,2.000000);
#1146=LINE('',#77,#1145);
#1147=EDGE_CURVE('',#78,#30,#1146,.T.);
#1148=ORIENTED_EDGE('',*,*,#1147,.T.);
#1149=DIRECTION('',(0.195090,0.980785,0.000000));
#1150=VECTOR('',#1149,0.780361);
#1151=LINE('',#29,#1150);
#1152=EDGE_CURVE('',#30,#28,#1151,.T.);
#1153=ORIENTED_EDGE('',*,*,#1152,.T.);
#1154=DIRECTION('',(0.923880,-0.382684,0.000000));
#1155=VECTOR('',#1154,2.000000);
#1156=LINE('',#27,#1155);
#1157=EDGE_CURVE('',#28,#78,#1156,.T.);
#1158=ORIENTED_EDGE('',*,*,#1157,.T.);
#1159=EDGE_LOOP('',(#1148,#1153,#1158));
#1160=FACE_OUTER_BOUND('',#1159,.T.);
#1161=ADVANCED_FACE('',(#1160),#1143,.T.);
#1162=CARTESIAN_POINT('',(-58.000000,-44.000000,0.000000));
#1163=DIRECTION('',(0.000000,0.000000,1.000000));
#1164=DIRECTION('',(1.000000,0.000000,0.000000));
#1165=AXIS2_PLACEMENT_3D('',#1162,#1163,#1164);
#1166=PLANE('',#1165);
#1167=DIRECTION('',(-0.923880,0.382684,0.000000));
#1168=VECTOR('',#1167,2.000000);
#1169=LINE('',#79,#1168);
#1170=EDGE_CURVE('',#80,#60,#1169,.T.);
#1171=ORIENTED_EDGE('',*,*,#1170,.T.);
#1172=DIRECTION('',(-0.195090,-0.980785,0.000000));
#1173=VECTOR('',#1172,0.780361);
#1174=LINE('',#59,#1173);
#1175=EDGE_CURVE('',#60,#62,#1174,.T.);
#1176=ORIENTED_EDGE('',*,*,#1175,.T.);
#1177=DIRECTION('',(1.000000,0.000000,0.000000));
#1178=VECTOR('',#1177,2.000000);
#1179=LINE('',#61,#1178);
#1180=EDGE_CURVE('',#62,#80,#1179,.T.);
#1181=ORIENTED_EDGE('',*,*,#1180,.T.);
#1182=EDGE_LOOP('',(#1171,#1176,#1181));
#1183=FACE_OUTER_BOUND('',#1182,.T.);
#1184=ADVANCED_FACE('',(#1183),#1166,.T.);
#1185=CARTESIAN_POINT('',(-58.000000,-44.000000,-4.000000));
#1186=DIRECTION('',(0.000000,0.000000,-1.000000));
#1187=DIRECTION('',(1.000000,0.000000,0.000000));
#1188=AXIS2_PLACEMENT_3D('',#1185,#1186,#1187);
#1189=PLANE('',#1188);
#1190=DIRECTION('',(-0.923880,-0.382684,0.000000));
#1191=VECTOR('',#1190,2.000000);
#1192=LINE('',#77,#1191);
#1193=EDGE_CURVE('',#78,#32,#1192,.T.);
#1194=ORIENTED_EDGE('',*,*,#1193,.T.);
#1195=DIRECTION('',(-0.195090,0.980785,0.000000));
#1196=VECTOR('',#1195,0.780361);
#1197=LINE('',#31,#1196);
#1198=EDGE_CURVE('',#32,#30,#1197,.T.);
#1199=ORIENTED_EDGE('',*,*,#1198,.T.);
#1200=DIRECTION('',(1.000000,0.000000,0.000000));
#1201=VECTOR('',#1200,2.000000);
#1202=LINE('',#29,#1201);
#1203=EDGE_CURVE('',#30,#78,#1202,.T.);
#1204=ORIENTED_EDGE('',*,*,#1203,.T.);
#1205=EDGE_LOOP('',(#1194,#1199,#1204));
#1206=FACE_OUTER_BOUND('',#1205,.T.);
#1207=ADVANCED_FACE('',(#1206),#1189,.T.);
#1208=CARTESIAN_POINT('',(-58.000000,-44.000000,0.000000));
#1209=DIRECTION('',(0.000000,0.000000,1.000000));
#1210=DIRECTION('',(1.000000,0.000000,0.000000));
#1211=AXIS2_PLACEMENT_3D('',#1208,#1209,#1210);
#1212=PLANE('',#1211);
#1213=DIRECTION('',(-1.000000,0.000000,0.000000));
#1214=VECTOR('',#1213,2.000000);
#1215=LINE('',#79,#1214);
#1216=EDGE_CURVE('',#80,#62,#1215,.T.);
#1217=ORIENTED_EDGE('',*,*,#1216,.T.);
#1218=DIRECTION('',(0.195090,-0.980785,0.000000));
#1219=VECTOR('',#1218,0.780361);
#1220=LINE('',#61,#1219);
#1221=EDGE_CURVE('',#62,#64,#1220,.T.);
#1222=ORIENTED_EDGE('',*,*,#1221,.T.);
#1223=DIRECTION('',(0.923880,0.382684,0.000000));
#1224=VECTOR('',#1223,2.000000);
#1225=LINE('',#63,#1224);
#1226=EDGE_CURVE('',#64,#80,#1225,.T.);
#1227=ORIENTED_EDGE('',*,*,#1226,.T.);
#1228=EDGE_LOOP('',(#1217,#1222,#1227));
#1229=FACE_OUTER_BOUND('',#1228,.T.);
#1230=ADVANCED_FACE('',(#1229),#1212,.T.);
#1231=CARTESIAN_POINT('',(-58.000000,-44.000000,-4.000000));
#1232=DIRECTION('',(0.000000,0.000000,-1.000000));
#1233=DIRECTION('',(1.000000,0.000000,0.000000));
#1234=AXIS2_PLACEMENT_3D('',#1231,#1232,#1233);
#1235=PLANE('',#1234);
#1236=DIRECTION('',(-0.707107,-0.707107,0.000000));
#1237=VECTOR('',#1236,2.000001);
#1238=LINE('',#77,#1237);
#1239=EDGE_CURVE('',#78,#34,#1238,.T.);
#1240=ORIENTED_EDGE('',*,*,#1239,.T.);
#1241=DIRECTION('',(-0.555570,0.831470,0.000000));
#1242=VECTOR('',#1241,0.780361);
#1243=LINE('',#33,#1242);
#1244=EDGE_CURVE('',#34,#32,#1243,.T.);
#1245=ORIENTED_EDGE('',*,*,#1244,.T.);
#1246=DIRECTION('',(0.923880,0.382684,0.000000));
#1247=VECTOR('',#1246,2.000000);
#1248=LINE('',#31,#1247);
#1249=EDGE_CURVE('',#32,#78,#1248,.T.);
#1250=ORIENTED_EDGE('',*,*,#1249,.T.);
#1251=EDGE_LOOP('',(#1240,#1245,#1250));
#1252=FACE_OUTER_BOUND('',#1251,.T.);
#1253=ADVANCED_FACE('',(#1252),#1235,.T.);
#1254=CARTESIAN_POINT('',(-58.000000,-44.000000,0.000000));
#1255=DIRECTION('',(0.000000,0.000000,1.000000));
#1256=DIRECTION('',(1.000000,0.000000,0.000000));
#1257=AXIS2_PLACEMENT_3D('',#1254,#1255,#1256);
#1258=PLANE('',#1257);
#1259=DIRECTION('',(-0.923880,-0.382684,0.000000));
#1260=VECTOR('',#1259,2.000000);
#1261=LINE('',#79,#1260);
#1262=EDGE_CURVE('',#80,#64,#1261,.T.);
#1263=ORIENTED_EDGE('',*,*,#1262,.T.);
#1264=DIRECTION('',(0.555570,-0.831470,0.000000));
#1265=VECTOR('',#1264,0.780361);
#1266=LINE('',#63,#1265);
#1267=EDGE_CURVE('',#64,#66,#1266,.T.);
#1268=ORIENTED_EDGE('',*,*,#1267,.T.);
#1269=DIRECTION('',(0.707107,0.707107,0.000000));
#1270=VECTOR('',#1269,2.000001);
#1271=LINE('',#65,#1270);
#1272=EDGE_CURVE('',#66,#80,#1271,.T.);
#1273=ORIENTED_EDGE('',*,*,#1272,.T.);
#1274=EDGE_LOOP('',(#1263,#1268,#1273));
#1275=FACE_OUTER_BOUND('',#1274,.T.);
#1276=ADVANCED_FACE('',(#1275),#1258,.T.);
#1277=CARTESIAN_POINT('',(-58.000000,-44.000000,-4.000000));
#1278=DIRECTION('',(0.000000,0.000000,-1.000000));
#1279=DIRECTION('',(1.000000,0.000000,0.000000));
#1280=AXIS2_PLACEMENT_3D('',#1277,#1278,#1279);
#1281=PLANE('',#1280);
#1282=DIRECTION('',(-0.382684,-0.923880,0.000000));
#1283=VECTOR('',#1282,2.000000);
#1284=LINE('',#77,#1283);
#1285=EDGE_CURVE('',#78,#36,#1284,.T.);
#1286=ORIENTED_EDGE('',*,*,#1285,.T.);
#1287=DIRECTION('',(-0.831470,0.555570,0.000000));
#1288=VECTOR('',#1287,0.780361);
#1289=LINE('',#35,#1288);
#1290=EDGE_CURVE('',#36,#34,#1289,.T.);
#1291=ORIENTED_EDGE('',*,*,#1290,.T.);
#1292=DIRECTION('',(0.707107,0.707107,0.000000));
#1293=VECTOR('',#1292,2.000001);
#1294=LINE('',#33,#1293);
#1295=EDGE_CURVE('',#34,#78,#1294,.T.);
#1296=ORIENTED_EDGE('',*,*,#1295,.T.);
#1297=EDGE_LOOP('',(#1286,#1291,#1296));
#1298=FACE_OUTER_BOUND('',#1297,.T.);
#1299=ADVANCED_FACE('',(#1298),#1281,.T.);
#1300=CARTESIAN_POINT('',(-58.000000,-44.000000,0.000000));
#1301=DIRECTION('',(0.000000,0.000000,1.000000));
#1302=DIRECTION('',(1.000000,0.000000,0.000000));
#1303=AXIS2_PLACEMENT_3D('',#1300,#1301,#1302);
#1304=PLANE('',#1303);
#1305=DIRECTION('',(-0.707107,-0.707107,0.000000));
#1306=VECTOR('',#1305,2.000001);
#1307=LINE('',#79,#1306);
#1308=EDGE_CURVE('',#80,#66,#1307,.T.);
#1309=ORIENTED_EDGE('',*,*,#1308,.T.);
#1310=DIRECTION('',(0.831470,-0.555570,0.000000));
#1311=VECTOR('',#1310,0.780361);
#1312=LINE('',#65,#1311);
#1313=EDGE_CURVE('',#66,#68,#1312,.T.);
#1314=ORIENTED_EDGE('',*,*,#1313,.T.);
#1315=DIRECTION('',(0.382684,0.923880,0.000000));
#1316=VECTOR('',#1315,2.000000);
#1317=LINE('',#67,#1316);
#1318=EDGE_CURVE('',#68,#80,#1317,.T.);
#1319=ORIENTED_EDGE('',*,*,#1318,.T.);
#1320=EDGE_LOOP('',(#1309,#1314,#1319));
#1321=FACE_OUTER_BOUND('',#1320,.T.);
#1322=ADVANCED_FACE('',(#1321),#1304,.T.);
#1323=CARTESIAN_POINT('',(-58.000000,-44.000000,-4.000000));
#1324=DIRECTION('',(0.000000,0.000000,-1.000000));
#1325=DIRECTION('',(1.000000,0.000000,0.000000));
#1326=AXIS2_PLACEMENT_3D('',#1323,#1324,#1325);
#1327=PLANE('',#1326);
#1328=DIRECTION('',(0.000000,-1.000000,0.000000));
#1329=VECTOR('',#1328,2.000000);
#1330=LINE('',#77,#1329);
#1331=EDGE_CURVE('',#78,#38,#1330,.T.);
#1332=ORIENTED_EDGE('',*,*,#1331,.T.);
#1333=DIRECTION('',(-0.980785,0.195090,0.000000));
#1334=VECTOR('',#1333,0.780361);
#1335=LINE('',#37,#1334);
#1336=EDGE_CURVE('',#38,#36,#1335,.T.);
#1337=ORIENTED_EDGE('',*,*,#1336,.T.);
#1338=DIRECTION('',(0.382684,0.923880,0.000000));
#1339=VECTOR('',#1338,2.000000);
#1340=LINE('',#35,#1339);
#1341=EDGE_CURVE('',#36,#78,#1340,.T.);
#1342=ORIENTED_EDGE('',*,*,#1341,.T.);
#1343=EDGE_LOOP('',(#1332,#1337,#1342));
#1344=FACE_OUTER_BOUND('',#1343,.T.);
#1345=ADVANCED_FACE('',(#1344),#1327,.T.);
#1346=CARTESIAN_POINT('',(-58.000000,-44.000000,0.000000));
#1347=DIRECTION('',(0.000000,0.000000,1.000000));
#1348=DIRECTION('',(1.000000,0.000000,0.000000));
#1349=AXIS2_PLACEMENT_3D('',#1346,#1347,#1348);
#1350=PLANE('',#1349);
#1351=DIRECTION('',(-0.382684,-0.923880,0.000000));
#1352=VECTOR('',#1351,2.000000);
#1353=LINE('',#79,#1352);
#1354=EDGE_CURVE('',#80,#68,#1353,.T.);
#1355=ORIENTED_EDGE('',*,*,#1354,.T.);
#1356=DIRECTION('',(0.980785,-0.195090,0.000000));
#1357=VECTOR('',#1356,0.780361);
#1358=LINE('',#67,#1357);
#1359=EDGE_CURVE('',#68,#70,#1358,.T.);
#1360=ORIENTED_EDGE('',*,*,#1359,.T.);
#1361=DIRECTION('',(0.000000,1.000000,0.000000));
#1362=VECTOR('',#1361,2.000000);
#1363=LINE('',#69,#1362);
#1364=EDGE_CURVE('',#70,#80,#1363,.T.);
#1365=ORIENTED_EDGE('',*,*,#1364,.T.);
#1366=EDGE_LOOP('',(#1355,#1360,#1365));
#1367=FACE_OUTER_BOUND('',#1366,.T.);
#1368=ADVANCED_FACE('',(#1367),#1350,.T.);
#1369=CARTESIAN_POINT('',(-58.000000,-44.000000,-4.000000));
#1370=DIRECTION('',(0.000000,0.000000,-1.000000));
#1371=DIRECTION('',(1.000000,0.000000,0.000000));
#1372=AXIS2_PLACEMENT_3D('',#1369,#1370,#1371);
#1373=PLANE('',#1372);
#1374=DIRECTION('',(0.382684,-0.923880,0.000000));
#1375=VECTOR('',#1374,2.000000);
#1376=LINE('',#77,#1375);
#1377=EDGE_CURVE('',#78,#40,#1376,.T.);
#1378=ORIENTED_EDGE('',*,*,#1377,.T.);
#1379=DIRECTION('',(-0.980785,-0.195090,0.000000));
#1380=VECTOR('',#1379,0.780361);
#1381=LINE('',#39,#1380);
#1382=EDGE_CURVE('',#40,#38,#1381,.T.);
#1383=ORIENTED_EDGE('',*,*,#1382,.T.);
#1384=DIRECTION('',(0.000000,1.000000,0.000000));
#1385=VECTOR('',#1384,2.000000);
#1386=LINE('',#37,#1385);
#1387=EDGE_CURVE('',#38,#78,#1386,.T.);
#1388=ORIENTED_EDGE('',*,*,#1387,.T.);
#1389=EDGE_LOOP('',(#1378,#1383,#1388));
#1390=FACE_OUTER_BOUND('',#1389,.T.);
#1391=ADVANCED_FACE('',(#1390),#1373,.T.);
#1392=CARTESIAN_POINT('',(-58.000000,-44.000000,0.000000));
#1393=DIRECTION('',(0.000000,0.000000,1.000000));
#1394=DIRECTION('',(1.000000,0.000000,0.000000));
#1395=AXIS2_PLACEMENT_3D('',#1392,#1393,#1394);
#1396=PLANE('',#1395);
#1397=DIRECTION('',(0.000000,-1.000000,0.000000));
#1398=VECTOR('',#1397,2.000000);
#1399=LINE('',#79,#1398);
#1400=EDGE_CURVE('',#80,#70,#1399,.T.);
#1401=ORIENTED_EDGE('',*,*,#1400,.T.);
#1402=DIRECTION('',(0.980785,0.195090,0.000000));
#1403=VECTOR('',#1402,0.780361);
#1404=LINE('',#69,#1403);
#1405=EDGE_CURVE('',#70,#72,#1404,.T.);
#1406=ORIENTED_EDGE('',*,*,#1405,.T.);
#1407=DIRECTION('',(-0.382684,0.923880,0.000000));
#1408=VECTOR('',#1407,2.000000);
#1409=LINE('',#71,#1408);
#1410=EDGE_CURVE('',#72,#80,#1409,.T.);
#1411=ORIENTED_EDGE('',*,*,#1410,.T.);
#1412=EDGE_LOOP('',(#1401,#1406,#1411));
#1413=FACE_OUTER_BOUND('',#1412,.T.);
#1414=ADVANCED_FACE('',(#1413),#1396,.T.);
#1415=CARTESIAN_POINT('',(-58.000000,-44.000000,-4.000000));
#1416=DIRECTION('',(0.000000,0.000000,-1.000000));
#1417=DIRECTION('',(1.000000,0.000000,0.000000));
#1418=AXIS2_PLACEMENT_3D('',#1415,#1416,#1417);
#1419=PLANE('',#1418);
#1420=DIRECTION('',(0.707107,-0.707107,0.000000));
#1421=VECTOR('',#1420,2.000001);
#1422=LINE('',#77,#1421);
#1423=EDGE_CURVE('',#78,#42,#1422,.T.);
#1424=ORIENTED_EDGE('',*,*,#1423,.T.);
#1425=DIRECTION('',(-0.831470,-0.555570,0.000000));
#1426=VECTOR('',#1425,0.780361);
#1427=LINE('',#41,#1426);
#1428=EDGE_CURVE('',#42,#40,#1427,.T.);
#1429=ORIENTED_EDGE('',*,*,#1428,.T.);
#1430=DIRECTION('',(-0.382684,0.923880,0.000000));
#1431=VECTOR('',#1430,2.000000);
#1432=LINE('',#39,#1431);
#1433=EDGE_CURVE('',#40,#78,#1432,.T.);
#1434=ORIENTED_EDGE('',*,*,#1433,.T.);
#1435=EDGE_LOOP('',(#1424,#1429,#1434));
#1436=FACE_OUTER_BOUND('',#1435,.T.);
#1437=ADVANCED_FACE('',(#1436),#1419,.T.);
#1438=CARTESIAN_POINT('',(-58.000000,-44.000000,0.000000));
#1439=DIRECTION('',(0.000000,0.000000,1.000000));
#1440=DIRECTION('',(1.000000,0.000000,0.000000));
#1441=AXIS2_PLACEMENT_3D('',#1438,#1439,#1440);
#1442=PLANE('',#1441);
#1443=DIRECTION('',(0.382684,-0.923880,0.000000));
#1444=VECTOR('',#1443,2.000000);
#1445=LINE('',#79,#1444);
#1446=EDGE_CURVE('',#80,#72,#1445,.T.);
#1447=ORIENTED_EDGE('',*,*,#1446,.T.);
#1448=DIRECTION('',(0.831470,0.555570,0.000000));
#1449=VECTOR('',#1448,0.780361);
#1450=LINE('',#71,#1449);
#1451=EDGE_CURVE('',#72,#74,#1450,.T.);
#1452=ORIENTED_EDGE('',*,*,#1451,.T.);
#1453=DIRECTION('',(-0.707107,0.707107,0.000000));
#1454=VECTOR('',#1453,2.000001);
#1455=LINE('',#73,#1454);
#1456=EDGE_CURVE('',#74,#80,#1455,.T.);
#1457=ORIENTED_EDGE('',*,*,#1456,.T.);
#1458=EDGE_LOOP('',(#1447,#1452,#1457));
#1459=FACE_OUTER_BOUND('',#1458,.T.);
#1460=ADVANCED_FACE('',(#1459),#1442,.T.);
#1461=CARTESIAN_POINT('',(-58.000000,-44.000000,-4.000000));
#1462=DIRECTION('',(0.000000,0.000000,-1.000000));
#1463=DIRECTION('',(1.000000,0.000000,0.000000));
#1464=AXIS2_PLACEMENT_3D('',#1461,#1462,#1463);
#1465=PLANE('',#1464);
#1466=DIRECTION('',(0.923880,-0.382684,0.000000));
#1467=VECTOR('',#1466,2.000000);
#1468=LINE('',#77,#1467);
#1469=EDGE_CURVE('',#78,#44,#1468,.T.);
#1470=ORIENTED_EDGE('',*,*,#1469,.T.);
#1471=DIRECTION('',(-0.555570,-0.831470,0.000000));
#1472=VECTOR('',#1471,0.780361);
#1473=LINE('',#43,#1472);
#1474=EDGE_CURVE('',#44,#42,#1473,.T.);
#1475=ORIENTED_EDGE('',*,*,#1474,.T.);
#1476=DIRECTION('',(-0.707107,0.707107,0.000000));
#1477=VECTOR('',#1476,2.000001);
#1478=LINE('',#41,#1477);
#1479=EDGE_CURVE('',#42,#78,#1478,.T.);
#1480=ORIENTED_EDGE('',*,*,#1479,.T.);
#1481=EDGE_LOOP('',(#1470,#1475,#1480));
#1482=FACE_OUTER_BOUND('',#1481,.T.);
#1483=ADVANCED_FACE('',(#1482),#1465,.T.);
#1484=CARTESIAN_POINT('',(-58.000000,-44.000000,0.000000));
#1485=DIRECTION('',(0.000000,0.000000,1.000000));
#1486=DIRECTION('',(1.000000,0.000000,0.000000));
#1487=AXIS2_PLACEMENT_3D('',#1484,#1485,#1486);
#1488=PLANE('',#1487);
#1489=DIRECTION('',(0.707107,-0.707107,0.000000));
#1490=VECTOR('',#1489,2.000001);
#1491=LINE('',#79,#1490);
#1492=EDGE_CURVE('',#80,#74,#1491,.T.);
#1493=ORIENTED_EDGE('',*,*,#1492,.T.);
#1494=DIRECTION('',(0.555570,0.831470,0.000000));
#1495=VECTOR('',#1494,0.780361);
#1496=LINE('',#73,#1495);
#1497=EDGE_CURVE('',#74,#76,#1496,.T.);
#1498=ORIENTED_EDGE('',*,*,#1497,.T.);
#1499=DIRECTION('',(-0.923880,0.382684,0.000000));
#1500=VECTOR('',#1499,2.000000);
#1501=LINE('',#75,#1500);
#1502=EDGE_CURVE('',#76,#80,#1501,.T.);
#1503=ORIENTED_EDGE('',*,*,#1502,.T.);
#1504=EDGE_LOOP('',(#1493,#1498,#1503));
#1505=FACE_OUTER_BOUND('',#1504,.T.);
#1506=ADVANCED_FACE('',(#1505),#1488,.T.);
#1507=CARTESIAN_POINT('',(-58.000000,-44.000000,-4.000000));
#1508=DIRECTION('',(0.000000,0.000000,-1.000000));
#1509=DIRECTION('',(1.000000,0.000000,0.000000));
#1510=AXIS2_PLACEMENT_3D('',#1507,#1508,#1509);
#1511=PLANE('',#1510);
#1512=DIRECTION('',(1.000000,0.000000,0.000000));
#1513=VECTOR('',#1512,2.000000);
#1514=LINE('',#77,#1513);
#1515=EDGE_CURVE('',#78,#14,#1514,.T.);
#1516=ORIENTED_EDGE('',*,*,#1515,.T.);
#1517=DIRECTION('',(-0.195090,-0.980785,0.000000));
#1518=VECTOR('',#1517,0.780361);
#1519=LINE('',#13,#1518);
#1520=EDGE_CURVE('',#14,#44,#1519,.T.);
#1521=ORIENTED_EDGE('',*,*,#1520,.T.);
#1522=DIRECTION('',(-0.923880,0.382684,0.000000));
#1523=VECTOR('',#1522,2.000000);
#1524=LINE('',#43,#1523);
#1525=EDGE_CURVE('',#44,#78,#1524,.T.);
#1526=ORIENTED_EDGE('',*,*,#1525,.T.);
#1527=EDGE_LOOP('',(#1516,#1521,#1526));
#1528=FACE_OUTER_BOUND('',#1527,.T.);
#1529=ADVANCED_FACE('',(#1528),#1511,.T.);
#1530=CARTESIAN_POINT('',(-58.000000,-44.000000,0.000000));
#1531=DIRECTION('',(0.000000,0.000000,1.000000));
#1532=DIRECTION('',(1.000000,0.000000,0.000000));
#1533=AXIS2_PLACEMENT_3D('',#1530,#1531,#1532);
#1534=PLANE('',#1533);
#1535=DIRECTION('',(0.923880,-0.382684,0.000000));
#1536=VECTOR('',#1535,2.000000);
#1537=LINE('',#79,#1536);
#1538=EDGE_CURVE('',#80,#76,#1537,.T.);
#1539=ORIENTED_EDGE('',*,*,#1538,.T.);
#1540=DIRECTION('',(0.195090,0.980785,0.000000));
#1541=VECTOR('',#1540,0.780361);
#1542=LINE('',#75,#1541);
#1543=EDGE_CURVE('',#76,#46,#1542,.T.);
#1544=ORIENTED_EDGE('',*,*,#1543,.T.);
#1545=DIRECTION('',(-1.000000,0.000000,0.000000));
#1546=VECTOR('',#1545,2.000000);
#1547=LINE('',#45,#1546);
#1548=EDGE_CURVE('',#46,#80,#1547,.T.);
#1549=ORIENTED_EDGE('',*,*,#1548,.T.);
#1550=EDGE_LOOP('',(#1539,#1544,#1549));
#1551=FACE_OUTER_BOUND('',#1550,.T.);
#1552=ADVANCED_FACE('',(#1551),#1534,.T.);
#1553=CLOSED_SHELL('',(#103,#126,#149,#172,#195,#218,#241,#264,#287,#310,#333,#356,#379,#402,#425,#448,#471,#494,#517,#540,#563,#586,#609,#632,#655,#678,#701,#724,#747,#770,#793,#816,#839,#862,#885,#908,#931,#954,#977,#1000,#1023,#1046,#1069,#1092,#1115,#1138,#1161,#1184,#1207,#1230,#1253,#1276,#1299,#1322,#1345,#1368,#1391,#1414,#1437,#1460,#1483,#1506,#1529,#1552));
#1554=FACETED_BREP('fastener_placeholders',#1553);
#1555=SHAPE_REPRESENTATION('fastener_placeholders',(#1554),#12);
#1556=SHAPE_DEFINITION_REPRESENTATION(#7,#1555);
ENDSEC;
END-ISO-10303-21;
