solid imu_mount
  facet normal -1.000000 0.000000 0.000000
    outer loop
      vertex 26.000000 -51.000000 15.000000
      vertex 26.000000 -33.000000 15.000000
      vertex 26.000000 -33.000000 8.000000
    endloop
  endfacet
  facet normal -1.000000 0.000000 0.000000
    outer loop
      vertex 26.000000 -51.000000 15.000000
      vertex 26.000000 -33.000000 8.000000
      vertex 26.000000 -51.000000 8.000000
    endloop
  endfacet
  facet normal 1.000000 0.000000 0.000000
    outer loop
      vertex 42.000000 -51.000000 8.000000
      vertex 42.000000 -33.000000 8.000000
      vertex 42.000000 -33.000000 15.000000
    endloop
  endfacet
  facet normal 1.000000 0.000000 0.000000
    outer loop
      vertex 42.000000 -51.000000 8.000000
      vertex 42.000000 -33.000000 15.000000
      vertex 42.000000 -51.000000 15.000000
    endloop
  endfacet
  facet normal 0.000000 -1.000000 0.000000
    outer loop
      vertex 42.000000 -51.000000 8.000000
      vertex 42.000000 -51.000000 15.000000
      vertex 26.000000 -51.000000 15.000000
    endloop
  endfacet
  facet normal 0.000000 -1.000000 0.000000
    outer loop
      vertex 42.000000 -51.000000 8.000000
      vertex 26.000000 -51.000000 15.000000
      vertex 26.000000 -51.000000 8.000000
    endloop
  endfacet
  facet normal 0.000000 1.000000 0.000000
    outer loop
      vertex 26.000000 -33.000000 8.000000
      vertex 26.000000 -33.000000 15.000000
      vertex 42.000000 -33.000000 15.000000
    endloop
  endfacet
  facet normal 0.000000 1.000000 0.000000
    outer loop
      vertex 26.000000 -33.000000 8.000000
      vertex 42.000000 -33.000000 15.000000
      vertex 42.000000 -33.000000 8.000000
    endloop
  endfacet
  facet normal 0.000000 0.000000 -1.000000
    outer loop
      vertex 26.000000 -33.000000 8.000000
      vertex 42.000000 -33.000000 8.000000
      vertex 42.000000 -51.000000 8.000000
    endloop
  endfacet
  facet normal 0.000000 0.000000 -1.000000
    outer loop
      vertex 26.000000 -33.000000 8.000000
      vertex 42.000000 -51.000000 8.000000
      vertex 26.000000 -51.000000 8.000000
    endloop
  endfacet
  facet normal 0.000000 0.000000 1.000000
    outer loop
      vertex 26.000000 -51.000000 15.000000
      vertex 42.000000 -51.000000 15.000000
      vertex 42.000000 -33.000000 15.000000
    endloop
  endfacet
  facet normal 0.000000 0.000000 1.000000
    outer loop
      vertex 26.000000 -51.000000 15.000000
      vertex 42.000000 -33.000000 15.000000
      vertex 26.000000 -33.000000 15.000000
    endloop
  endfacet
endsolid imu_mount
