solid pad_right
  facet normal -1.000000 0.000000 0.000000
    outer loop
      vertex -39.600000 -39.000000 171.000000
      vertex -39.600000 -37.000000 171.000000
      vertex -39.600000 -37.000000 26.000000
    endloop
  endfacet
  facet normal -1.000000 0.000000 0.000000
    outer loop
      vertex -39.600000 -39.000000 171.000000
      vertex -39.600000 -37.000000 26.000000
      vertex -39.600000 -39.000000 26.000000
    endloop
  endfacet
  facet normal 1.000000 0.000000 0.000000
    outer loop
      vertex -37.600000 -39.000000 26.000000
      vertex -37.600000 -37.000000 26.000000
      vertex -37.600000 -37.000000 171.000000
    endloop
  endfacet
  facet normal 1.000000 0.000000 0.000000
    outer loop
      vertex -37.600000 -39.000000 26.000000
      vertex -37.600000 -37.000000 171.000000
      vertex -37.600000 -39.000000 171.000000
    endloop
  endfacet
  facet normal 0.000000 -1.000000 0.000000
    outer loop
      vertex -37.600000 -39.000000 26.000000
      vertex -37.600000 -39.000000 171.000000
      vertex -39.600000 -39.000000 171.000000
    endloop
  endfacet
  facet normal 0.000000 -1.000000 0.000000
    outer loop
      vertex -37.600000 -39.000000 26.000000
      vertex -39.600000 -39.000000 171.000000
      vertex -39.600000 -39.000000 26.000000
    endloop
  endfacet
  facet normal 0.000000 1.000000 0.000000
    outer loop
      vertex -39.600000 -37.000000 26.000000
      vertex -39.600000 -37.000000 171.000000
      vertex -37.600000 -37.000000 171.000000
    endloop
  endfacet
  facet normal 0.000000 1.000000 0.000000
    outer loop
      vertex -39.600000 -37.000000 26.000000
      vertex -37.600000 -37.000000 171.000000
      vertex -37.600000 -37.000000 26.000000
    endloop
  endfacet
  facet normal 0.000000 0.000000 -1.000000
    outer loop
      vertex -39.600000 -37.000000 26.000000
      vertex -37.600000 -37.000000 26.000000
      vertex -37.600000 -39.000000 26.000000
    endloop
  endfacet
  facet normal 0.000000 0.000000 -1.000000
    outer loop
      vertex -39.600000 -37.000000 26.000000
      vertex -37.600000 -39.000000 26.000000
      vertex -39.600000 -39.000000 26.000000
    endloop
  endfacet
  facet normal 0.000000 0.000000 1.000000
    outer loop
      vertex -39.600000 -39.000000 171.000000
      vertex -37.600000 -39.000000 171.000000
      vertex -37.600000 -37.000000 171.000000
    endloop
  endfacet
  facet normal 0.000000 0.000000 1.000000
    outer loop
      vertex -39.600000 -39.000000 171.000000
      vertex -37.600000 -37.000000 171.000000
      vertex -39.600000 -37.000000 171.000000
    endloop
  endfacet
endsolid pad_right
