solid phone_reference
  facet normal -1.000000 0.000000 0.000000
    outer loop
      vertex -52.500000 -39.000000 181.000000
      vertex -52.500000 39.000000 181.000000
      vertex -52.500000 39.000000 16.000000
    endloop
  endfacet
  facet normal -1.000000 0.000000 0.000000
    outer loop
      vertex -52.500000 -39.000000 181.000000
      vertex -52.500000 39.000000 16.000000
      vertex -52.500000 -39.000000 16.000000
    endloop
  endfacet
  facet normal 1.000000 0.000000 0.000000
    outer loop
      vertex -43.500000 -39.000000 16.000000
      vertex -43.500000 39.000000 16.000000
      vertex -43.500000 39.000000 181.000000
    endloop
  endfacet
  facet normal 1.000000 0.000000 0.000000
    outer loop
      vertex -43.500000 -39.000000 16.000000
      vertex -43.500000 39.000000 181.000000
      vertex -43.500000 -39.000000 181.000000
    endloop
  endfacet
  facet normal 0.000000 -1.000000 0.000000
    outer loop
      vertex -43.500000 -39.000000 16.000000
      vertex -43.500000 -39.000000 181.000000
      vertex -52.500000 -39.000000 181.000000
    endloop
  endfacet
  facet normal 0.000000 -1.000000 0.000000
    outer loop
      vertex -43.500000 -39.000000 16.000000
      vertex -52.500000 -39.000000 181.000000
      vertex -52.500000 -39.000000 16.000000
    endloop
  endfacet
  facet normal 0.000000 1.000000 0.000000
    outer loop
      vertex -52.500000 39.000000 16.000000
      vertex -52.500000 39.000000 181.000000
      vertex -43.500000 39.000000 181.000000
    endloop
  endfacet
  facet normal 0.000000 1.000000 0.000000
    outer loop
      vertex -52.500000 39.000000 16.000000
      vertex -43.500000 39.000000 181.000000
      vertex -43.500000 39.000000 16.000000
    endloop
  endfacet
  facet normal 0.000000 0.000000 -1.000000
    outer loop
      vertex -52.500000 39.000000 16.000000
      vertex -43.500000 39.000000 16.000000
      vertex -43.500000 -39.000000 16.000000
    endloop
  endfacet
  facet normal 0.000000 0.000000 -1.000000
    outer loop
      vertex -52.500000 39.000000 16.000000
      vertex -43.500000 -39.000000 16.000000
      vertex -52.500000 -39.000000 16.000000
    endloop
  endfacet
  facet normal 0.000000 0.000000 1.000000
    outer loop
      vertex -52.500000 -39.000000 181.000000
      vertex -43.500000 -39.000000 181.000000
      vertex -43.500000 39.000000 181.000000
    endloop
  endfacet
  facet normal 0.000000 0.000000 1.000000
    outer loop
      vertex -52.500000 -39.000000 181.000000
      vertex -43.500000 39.000000 181.000000
      vertex -52.500000 39.000000 181.000000
    endloop
  endfacet
endsolid phone_reference
