solid vertical_retainer
  facet normal -1.000000 0.000000 0.000000
    outer loop
      vertex 62.000000 -10.000000 94.000000
      vertex 62.000000 -7.000000 94.000000
      vertex 62.000000 -7.000000 14.000000
    endloop
  endfacet
  facet normal -1.000000 0.000000 0.000000
    outer loop
      vertex 62.000000 -10.000000 94.000000
      vertex 62.000000 -7.000000 14.000000
      vertex 62.000000 -10.000000 14.000000
    endloop
  endfacet
  facet normal 1.000000 0.000000 0.000000
    outer loop
      vertex 66.000000 -10.000000 14.000000
      vertex 66.000000 -7.000000 14.000000
      vertex 66.000000 -7.000000 94.000000
    endloop
  endfacet
  facet normal 1.000000 0.000000 0.000000
    outer loop
      vertex 66.000000 -10.000000 14.000000
      vertex 66.000000 -7.000000 94.000000
      vertex 66.000000 -10.000000 94.000000
    endloop
  endfacet
  facet normal 0.000000 -1.000000 0.000000
    outer loop
      vertex 66.000000 -10.000000 14.000000
      vertex 66.000000 -10.000000 94.000000
      vertex 62.000000 -10.000000 94.000000
    endloop
  endfacet
  facet normal 0.000000 -1.000000 0.000000
    outer loop
      vertex 66.000000 -10.000000 14.000000
      vertex 62.000000 -10.000000 94.000000
      vertex 62.000000 -10.000000 14.000000
    endloop
  endfacet
  facet normal 0.000000 1.000000 0.000000
    outer loop
      vertex 62.000000 -7.000000 14.000000
      vertex 62.000000 -7.000000 94.000000
      vertex 66.000000 -7.000000 94.000000
    endloop
  endfacet
  facet normal 0.000000 1.000000 0.000000
    outer loop
      vertex 62.000000 -7.000000 14.000000
      vertex 66.000000 -7.000000 94.000000
      vertex 66.000000 -7.000000 14.000000
    endloop
  endfacet
  facet normal 0.000000 0.000000 -1.000000
    outer loop
      vertex 62.000000 -7.000000 14.000000
      vertex 66.000000 -7.000000 14.000000
      vertex 66.000000 -10.000000 14.000000
    endloop
  endfacet
  facet normal 0.000000 0.000000 -1.000000
    outer loop
      vertex 62.000000 -7.000000 14.000000
      vertex 66.000000 -10.000000 14.000000
      vertex 62.000000 -10.000000 14.000000
    endloop
  endfacet
  facet normal 0.000000 0.000000 1.000000
    outer loop
      vertex 62.000000 -10.000000 94.000000
      vertex 66.000000 -10.000000 94.000000
      vertex 66.000000 -7.000000 94.000000
    endloop
  endfacet
  facet normal 0.000000 0.000000 1.000000
    outer loop
      vertex 62.000000 -10.000000 94.000000
      vertex 66.000000 -7.000000 94.000000
      vertex 62.000000 -7.000000 94.000000
    endloop
  endfacet
endsolid vertical_retainer
