solid vertical_ballast_track
  facet normal -1.000000 0.000000 0.000000
    outer loop
      vertex 50.000000 -10.000000 98.000000
      vertex 50.000000 10.000000 98.000000
      vertex 50.000000 10.000000 10.000000
    endloop
  endfacet
  facet normal -1.000000 0.000000 0.000000
    outer loop
      vertex 50.000000 -10.000000 98.000000
      vertex 50.000000 10.000000 10.000000
      vertex 50.000000 -10.000000 10.000000
    endloop
  endfacet
  facet normal 1.000000 0.000000 0.000000
    outer loop
      vertex 66.000000 -10.000000 10.000000
      vertex 66.000000 10.000000 10.000000
      vertex 66.000000 10.000000 98.000000
    endloop
  endfacet
  facet normal 1.000000 0.000000 0.000000
    outer loop
      vertex 66.000000 -10.000000 10.000000
      vertex 66.000000 10.000000 98.000000
      vertex 66.000000 -10.000000 98.000000
    endloop
  endfacet
  facet normal 0.000000 -1.000000 0.000000
    outer loop
      vertex 66.000000 -10.000000 10.000000
      vertex 66.000000 -10.000000 98.000000
      vertex 50.000000 -10.000000 98.000000
    endloop
  endfacet
  facet normal 0.000000 -1.000000 0.000000
    outer loop
      vertex 66.000000 -10.000000 10.000000
      vertex 50.000000 -10.000000 98.000000
      vertex 50.000000 -10.000000 10.000000
    endloop
  endfacet
  facet normal 0.000000 1.000000 0.000000
    outer loop
      vertex 50.000000 10.000000 10.000000
      vertex 50.000000 10.000000 98.000000
      vertex 66.000000 10.000000 98.000000
    endloop
  endfacet
  facet normal 0.000000 1.000000 0.000000
    outer loop
      vertex 50.000000 10.000000 10.000000
      vertex 66.000000 10.000000 98.000000
      vertex 66.000000 10.000000 10.000000
    endloop
  endfacet
  facet normal 0.000000 0.000000 -1.000000
    outer loop
      vertex 50.000000 10.000000 10.000000
      vertex 66.000000 10.000000 10.000000
      vertex 66.000000 -10.000000 10.000000
    endloop
  endfacet
  facet normal 0.000000 0.000000 -1.000000
    outer loop
      vertex 50.000000 10.000000 10.000000
      vertex 66.000000 -10.000000 10.000000
      vertex 50.000000 -10.000000 10.000000
    endloop
  endfacet
  facet normal 0.000000 0.000000 1.000000
    outer loop
      vertex 50.000000 -10.000000 98.000000
      vertex 66.000000 -10.000000 98.000000
      vertex 66.000000 10.000000 98.000000
    endloop
  endfacet
  facet normal 0.000000 0.000000 1.000000
    outer loop
      vertex 50.000000 -10.000000 98.000000
      vertex 66.000000 10.000000 98.000000
      vertex 50.000000 10.000000 98.000000
    endloop
  endfacet
endsolid vertical_ballast_track
