solid vertical_ballast_cassette
  facet normal -1.000000 0.000000 0.000000
    outer loop
      vertex 50.500000 -5.000000 74.000000
      vertex 50.500000 5.000000 74.000000
      vertex 50.500000 5.000000 46.000000
    endloop
  endfacet
  facet normal -1.000000 0.000000 0.000000
    outer loop
      vertex 50.500000 -5.000000 74.000000
      vertex 50.500000 5.000000 46.000000
      vertex 50.500000 -5.000000 46.000000
    endloop
  endfacet
  facet normal 1.000000 0.000000 0.000000
    outer loop
      vertex 61.500000 -5.000000 46.000000
      vertex 61.500000 5.000000 46.000000
      vertex 61.500000 5.000000 74.000000
    endloop
  endfacet
  facet normal 1.000000 0.000000 0.000000
    outer loop
      vertex 61.500000 -5.000000 46.000000
      vertex 61.500000 5.000000 74.000000
      vertex 61.500000 -5.000000 74.000000
    endloop
  endfacet
  facet normal 0.000000 -1.000000 0.000000
    outer loop
      vertex 61.500000 -5.000000 46.000000
      vertex 61.500000 -5.000000 74.000000
      vertex 50.500000 -5.000000 74.000000
    endloop
  endfacet
  facet normal 0.000000 -1.000000 0.000000
    outer loop
      vertex 61.500000 -5.000000 46.000000
      vertex 50.500000 -5.000000 74.000000
      vertex 50.500000 -5.000000 46.000000
    endloop
  endfacet
  facet normal 0.000000 1.000000 0.000000
    outer loop
      vertex 50.500000 5.000000 46.000000
      vertex 50.500000 5.000000 74.000000
      vertex 61.500000 5.000000 74.000000
    endloop
  endfacet
  facet normal 0.000000 1.000000 0.000000
    outer loop
      vertex 50.500000 5.000000 46.000000
      vertex 61.500000 5.000000 74.000000
      vertex 61.500000 5.000000 46.000000
    endloop
  endfacet
  facet normal 0.000000 0.000000 -1.000000
    outer loop
      vertex 50.500000 5.000000 46.000000
      vertex 61.500000 5.000000 46.000000
      vertex 61.500000 -5.000000 46.000000
    endloop
  endfacet
  facet normal 0.000000 0.000000 -1.000000
    outer loop
      vertex 50.500000 5.000000 46.000000
      vertex 61.500000 -5.000000 46.000000
      vertex 50.500000 -5.000000 46.000000
    endloop
  endfacet
  facet normal 0.000000 0.000000 1.000000
    outer loop
      vertex 50.500000 -5.000000 74.000000
      vertex 61.500000 -5.000000 74.000000
      vertex 61.500000 5.000000 74.000000
    endloop
  endfacet
  facet normal 0.000000 0.000000 1.000000
    outer loop
      vertex 50.500000 -5.000000 74.000000
      vertex 61.500000 5.000000 74.000000
      vertex 50.500000 5.000000 74.000000
    endloop
  endfacet
endsolid vertical_ballast_cassette
