solid vertical_end_stop_lower
  facet normal -1.000000 0.000000 0.000000
    outer loop
      vertex 50.000000 -10.000000 14.000000
      vertex 50.000000 10.000000 14.000000
      vertex 50.000000 10.000000 10.000000
    endloop
  endfacet
  facet normal -1.000000 0.000000 0.000000
    outer loop
      vertex 50.000000 -10.000000 14.000000
      vertex 50.000000 10.000000 10.000000
      vertex 50.000000 -10.000000 10.000000
    endloop
  endfacet
  facet normal 1.000000 0.000000 0.000000
    outer loop
      vertex 66.000000 -10.000000 10.000000
      vertex 66.000000 10.000000 10.000000
      vertex 66.000000 10.000000 14.000000
    endloop
  endfacet
  facet normal 1.000000 0.000000 0.000000
    outer loop
      vertex 66.000000 -10.000000 10.000000
      vertex 66.000000 10.000000 14.000000
      vertex 66.000000 -10.000000 14.000000
    endloop
  endfacet
  facet normal 0.000000 -1.000000 0.000000
    outer loop
      vertex 66.000000 -10.000000 10.000000
      vertex 66.000000 -10.000000 14.000000
      vertex 50.000000 -10.000000 14.000000
    endloop
  endfacet
  facet normal 0.000000 -1.000000 0.000000
    outer loop
      vertex 66.000000 -10.000000 10.000000
      vertex 50.000000 -10.000000 14.000000
      vertex 50.000000 -10.000000 10.000000
    endloop
  endfacet
  facet normal 0.000000 1.000000 0.000000
    outer loop
      vertex 50.000000 10.000000 10.000000
      vertex 50.000000 10.000000 14.000000
      vertex 66.000000 10.000000 14.000000
    endloop
  endfacet
  facet normal 0.000000 1.000000 0.000000
    outer loop
      vertex 50.000000 10.000000 10.000000
      vertex 66.000000 10.000000 14.000000
      vertex 66.000000 10.000000 10.000000
    endloop
  endfacet
  facet normal 0.000000 0.000000 -1.000000
    outer loop
      vertex 50.000000 10.000000 10.000000
      vertex 66.000000 10.000000 10.000000
      vertex 66.000000 -10.000000 10.000000
    endloop
  endfacet
  facet normal 0.000000 0.000000 -1.000000
    outer loop
      vertex 50.000000 10.000000 10.000000
      vertex 66.000000 -10.000000 10.000000
      vertex 50.000000 -10.000000 10.000000
    endloop
  endfacet
  facet normal 0.000000 0.000000 1.000000
    outer loop
      vertex 50.000000 -10.000000 14.000000
      vertex 66.000000 -10.000000 14.000000
      vertex 66.000000 10.000000 14.000000
    endloop
  endfacet
  facet normal 0.000000 0.000000 1.000000
    outer loop
      vertex 50.000000 -10.000000 14.000000
      vertex 66.000000 10.000000 14.000000
      vertex 50.000000 10.000000 14.000000
    endloop
  endfacet
endsolid vertical_end_stop_lower
