solid x_ballast
  facet normal -1.000000 0.000000 0.000000
    outer loop
      vertex 29.500000 -6.500000 27.000000
      vertex 29.500000 6.500000 27.000000
      vertex 29.500000 6.500000 19.500000
    endloop
  endfacet
  facet normal -1.000000 0.000000 0.000000
    outer loop
      vertex 29.500000 -6.500000 27.000000
      vertex 29.500000 6.500000 19.500000
      vertex 29.500000 -6.500000 19.500000
    endloop
  endfacet
  facet normal 1.000000 0.000000 0.000000
    outer loop
      vertex 42.500000 -6.500000 19.500000
      vertex 42.500000 6.500000 19.500000
      vertex 42.500000 6.500000 27.000000
    endloop
  endfacet
  facet normal 1.000000 0.000000 0.000000
    outer loop
      vertex 42.500000 -6.500000 19.500000
      vertex 42.500000 6.500000 27.000000
      vertex 42.500000 -6.500000 27.000000
    endloop
  endfacet
  facet normal 0.000000 -1.000000 0.000000
    outer loop
      vertex 42.500000 -6.500000 19.500000
      vertex 42.500000 -6.500000 27.000000
      vertex 29.500000 -6.500000 27.000000
    endloop
  endfacet
  facet normal 0.000000 -1.000000 0.000000
    outer loop
      vertex 42.500000 -6.500000 19.500000
      vertex 29.500000 -6.500000 27.000000
      vertex 29.500000 -6.500000 19.500000
    endloop
  endfacet
  facet normal 0.000000 1.000000 0.000000
    outer loop
      vertex 29.500000 6.500000 19.500000
      vertex 29.500000 6.500000 27.000000
      vertex 42.500000 6.500000 27.000000
    endloop
  endfacet
  facet normal 0.000000 1.000000 0.000000
    outer loop
      vertex 29.500000 6.500000 19.500000
      vertex 42.500000 6.500000 27.000000
      vertex 42.500000 6.500000 19.500000
    endloop
  endfacet
  facet normal 0.000000 0.000000 -1.000000
    outer loop
      vertex 29.500000 6.500000 19.500000
      vertex 42.500000 6.500000 19.500000
      vertex 42.500000 -6.500000 19.500000
    endloop
  endfacet
  facet normal 0.000000 0.000000 -1.000000
    outer loop
      vertex 29.500000 6.500000 19.500000
      vertex 42.500000 -6.500000 19.500000
      vertex 29.500000 -6.500000 19.500000
    endloop
  endfacet
  facet normal 0.000000 0.000000 1.000000
    outer loop
      vertex 29.500000 -6.500000 27.000000
      vertex 42.500000 -6.500000 27.000000
      vertex 42.500000 6.500000 27.000000
    endloop
  endfacet
  facet normal 0.000000 0.000000 1.000000
    outer loop
      vertex 29.500000 -6.500000 27.000000
      vertex 42.500000 6.500000 27.000000
      vertex 29.500000 6.500000 27.000000
    endloop
  endfacet
endsolid x_ballast
