solid common_training_chassis
  facet normal -1.000000 0.000000 0.000000
    outer loop
      vertex -70.000000 -56.000000 6.000000
      vertex -70.000000 56.000000 6.000000
      vertex -70.000000 56.000000 0.000000
    endloop
  endfacet
  facet normal -1.000000 0.000000 0.000000
    outer loop
      vertex -70.000000 -56.000000 6.000000
      vertex -70.000000 56.000000 0.000000
      vertex -70.000000 -56.000000 0.000000
    endloop
  endfacet
  facet normal 1.000000 0.000000 0.000000
    outer loop
      vertex 85.000000 -56.000000 0.000000
      vertex 85.000000 56.000000 0.000000
      vertex 85.000000 56.000000 6.000000
    endloop
  endfacet
  facet normal 1.000000 0.000000 0.000000
    outer loop
      vertex 85.000000 -56.000000 0.000000
      vertex 85.000000 56.000000 6.000000
      vertex 85.000000 -56.000000 6.000000
    endloop
  endfacet
  facet normal 0.000000 -1.000000 0.000000
    outer loop
      vertex 85.000000 -56.000000 0.000000
      vertex 85.000000 -56.000000 6.000000
      vertex -70.000000 -56.000000 6.000000
    endloop
  endfacet
  facet normal 0.000000 -1.000000 0.000000
    outer loop
      vertex 85.000000 -56.000000 0.000000
      vertex -70.000000 -56.000000 6.000000
      vertex -70.000000 -56.000000 0.000000
    endloop
  endfacet
  facet normal 0.000000 1.000000 0.000000
    outer loop
      vertex -70.000000 56.000000 0.000000
      vertex -70.000000 56.000000 6.000000
      vertex 85.000000 56.000000 6.000000
    endloop
  endfacet
  facet normal 0.000000 1.000000 0.000000
    outer loop
      vertex -70.000000 56.000000 0.000000
      vertex 85.000000 56.000000 6.000000
      vertex 85.000000 56.000000 0.000000
    endloop
  endfacet
  facet normal 0.000000 0.000000 -1.000000
    outer loop
      vertex -70.000000 56.000000 0.000000
      vertex 85.000000 56.000000 0.000000
      vertex 85.000000 -56.000000 0.000000
    endloop
  endfacet
  facet normal 0.000000 0.000000 -1.000000
    outer loop
      vertex -70.000000 56.000000 0.000000
      vertex 85.000000 -56.000000 0.000000
      vertex -70.000000 -56.000000 0.000000
    endloop
  endfacet
  facet normal 0.000000 0.000000 1.000000
    outer loop
      vertex -70.000000 -56.000000 6.000000
      vertex 85.000000 -56.000000 6.000000
      vertex 85.000000 56.000000 6.000000
    endloop
  endfacet
  facet normal 0.000000 0.000000 1.000000
    outer loop
      vertex -70.000000 -56.000000 6.000000
      vertex 85.000000 56.000000 6.000000
      vertex -70.000000 56.000000 6.000000
    endloop
  endfacet
endsolid common_training_chassis
