ISO-10303-21;
HEADER;
FILE_DESCRIPTION(('SIGHTLINE deterministic faceted BREP'),'2;1');
FILE_NAME('sightline_g0.step','2000-01-01T00:00:00',('SIGHTLINE'),('SIGHTLINE'),'','SIGHTLINE','');
FILE_SCHEMA(('AUTOMOTIVE_DESIGN_CC2'));
ENDSEC;
DATA;
#1=APPLICATION_CONTEXT('configuration controlled 3d designs of mechanical parts and assemblies');
#2=PRODUCT_CONTEXT('',#1,'mechanical');
#3=PRODUCT('grip_body','grip_body','',(#2));
#4=PRODUCT_DEFINITION_FORMATION_WITH_SPECIFIED_SOURCE('1','G0 faceted BREP',#3,.MADE.);
#5=PRODUCT_DEFINITION_CONTEXT('part definition',#1,'design');
#6=PRODUCT_DEFINITION('design','',#4,#5);
#7=PRODUCT_DEFINITION_SHAPE('','',#6);
#8=(LENGTH_UNIT() NAMED_UNIT(*) SI_UNIT(.MILLI.,.METRE.));
#9=(NAMED_UNIT(*) PLANE_ANGLE_UNIT() SI_UNIT($,.RADIAN.));
#10=(NAMED_UNIT(*) SOLID_ANGLE_UNIT() SI_UNIT($,.STERADIAN.));
#11=UNCERTAINTY_MEASURE_WITH_UNIT(LENGTH_MEASURE(0.01),#8,'distance_accuracy_value','G0 export');
#12=(GEOMETRIC_REPRESENTATION_CONTEXT(3) GLOBAL_UNCERTAINTY_ASSIGNED_CONTEXT((#11)) GLOBAL_UNIT_ASSIGNED_CONTEXT((#8,#9,#10)) REPRESENTATION_CONTEXT('3D','MODEL SPACE'));
#13=CARTESIAN_POINT('',(0.000000,-16.000000,-85.000000));
#14=VERTEX_POINT('',#13);
#15=CARTESIAN_POINT('',(2.296101,-15.543277,-85.000000));
#16=VERTEX_POINT('',#15);
#17=CARTESIAN_POINT('',(4.242641,-14.242641,-85.000000));
#18=VERTEX_POINT('',#17);
#19=CARTESIAN_POINT('',(5.543277,-12.296101,-85.000000));
#20=VERTEX_POINT('',#19);
#21=CARTESIAN_POINT('',(6.000000,-10.000000,-85.000000));
#22=VERTEX_POINT('',#21);
#23=CARTESIAN_POINT('',(6.000000,10.000000,-85.000000));
#24=VERTEX_POINT('',#23);
#25=CARTESIAN_POINT('',(5.543277,12.296101,-85.000000));
#26=VERTEX_POINT('',#25);
#27=CARTESIAN_POINT('',(4.242641,14.242641,-85.000000));
#28=VERTEX_POINT('',#27);
#29=CARTESIAN_POINT('',(2.296101,15.543277,-85.000000));
#30=VERTEX_POINT('',#29);
#31=CARTESIAN_POINT('',(0.000000,16.000000,-85.000000));
#32=VERTEX_POINT('',#31);
#33=CARTESIAN_POINT('',(-28.000000,16.000000,-85.000000));
#34=VERTEX_POINT('',#33);
#35=CARTESIAN_POINT('',(-30.296101,15.543277,-85.000000));
#36=VERTEX_POINT('',#35);
#37=CARTESIAN_POINT('',(-32.242641,14.242641,-85.000000));
#38=VERTEX_POINT('',#37);
#39=CARTESIAN_POINT('',(-33.543277,12.296101,-85.000000));
#40=VERTEX_POINT('',#39);
#41=CARTESIAN_POINT('',(-34.000000,10.000000,-85.000000));
#42=VERTEX_POINT('',#41);
#43=CARTESIAN_POINT('',(-34.000000,-10.000000,-85.000000));
#44=VERTEX_POINT('',#43);
#45=CARTESIAN_POINT('',(-33.543277,-12.296101,-85.000000));
#46=VERTEX_POINT('',#45);
#47=CARTESIAN_POINT('',(-32.242641,-14.242641,-85.000000));
#48=VERTEX_POINT('',#47);
#49=CARTESIAN_POINT('',(-30.296101,-15.543277,-85.000000));
#50=VERTEX_POINT('',#49);
#51=CARTESIAN_POINT('',(-28.000000,-16.000000,-85.000000));
#52=VERTEX_POINT('',#51);
#53=CARTESIAN_POINT('',(0.000000,-16.000000,1.000000));
#54=VERTEX_POINT('',#53);
#55=CARTESIAN_POINT('',(2.296101,-15.543277,1.000000));
#56=VERTEX_POINT('',#55);
#57=CARTESIAN_POINT('',(4.242641,-14.242641,1.000000));
#58=VERTEX_POINT('',#57);
#59=CARTESIAN_POINT('',(5.543277,-12.296101,1.000000));
#60=VERTEX_POINT('',#59);
#61=CARTESIAN_POINT('',(6.000000,-10.000000,1.000000));
#62=VERTEX_POINT('',#61);
#63=CARTESIAN_POINT('',(6.000000,10.000000,1.000000));
#64=VERTEX_POINT('',#63);
#65=CARTESIAN_POINT('',(5.543277,12.296101,1.000000));
#66=VERTEX_POINT('',#65);
#67=CARTESIAN_POINT('',(4.242641,14.242641,1.000000));
#68=VERTEX_POINT('',#67);
#69=CARTESIAN_POINT('',(2.296101,15.543277,1.000000));
#70=VERTEX_POINT('',#69);
#71=CARTESIAN_POINT('',(0.000000,16.000000,1.000000));
#72=VERTEX_POINT('',#71);
#73=CARTESIAN_POINT('',(-28.000000,16.000000,1.000000));
#74=VERTEX_POINT('',#73);
#75=CARTESIAN_POINT('',(-30.296101,15.543277,1.000000));
#76=VERTEX_POINT('',#75);
#77=CARTESIAN_POINT('',(-32.242641,14.242641,1.000000));
#78=VERTEX_POINT('',#77);
#79=CARTESIAN_POINT('',(-33.543277,12.296101,1.000000));
#80=VERTEX_POINT('',#79);
#81=CARTESIAN_POINT('',(-34.000000,10.000000,1.000000));
#82=VERTEX_POINT('',#81);
#83=CARTESIAN_POINT('',(-34.000000,-10.000000,1.000000));
#84=VERTEX_POINT('',#83);
#85=CARTESIAN_POINT('',(-33.543277,-12.296101,1.000000));
#86=VERTEX_POINT('',#85);
#87=CARTESIAN_POINT('',(-32.242641,-14.242641,1.000000));
#88=VERTEX_POINT('',#87);
#89=CARTESIAN_POINT('',(-30.296101,-15.543277,1.000000));
#90=VERTEX_POINT('',#89);
#91=CARTESIAN_POINT('',(-28.000000,-16.000000,1.000000));
#92=VERTEX_POINT('',#91);
#93=CARTESIAN_POINT('',(-14.000000,0.000000,-85.000000));
#94=VERTEX_POINT('',#93);
#95=CARTESIAN_POINT('',(-14.000000,0.000000,1.000000));
#96=VERTEX_POINT('',#95);
#97=CARTESIAN_POINT('',(-14.000000,0.000000,-85.000000));
#98=DIRECTION('',(0.000000,0.000000,-1.000000));
#99=DIRECTION('',(1.000000,0.000000,0.000000));
#100=AXIS2_PLACEMENT_3D('',#97,#98,#99);
#101=PLANE('',#100);
#102=DIRECTION('',(0.723624,-0.690195,0.000000));
#103=VECTOR('',#102,22.520132);
#104=LINE('',#93,#103);
#105=EDGE_CURVE('',#94,#16,#104,.T.);
#106=ORIENTED_EDGE('',*,*,#105,.T.);
#107=DIRECTION('',(-0.980785,-0.195090,0.000000));
#108=VECTOR('',#107,2.341084);
#109=LINE('',#15,#108);
#110=EDGE_CURVE('',#16,#14,#109,.T.);
#111=ORIENTED_EDGE('',*,*,#110,.T.);
#112=DIRECTION('',(-0.658505,0.752577,0.000000));
#113=VECTOR('',#112,21.260292);
#114=LINE('',#13,#113);
#115=EDGE_CURVE('',#14,#94,#114,.T.);
#116=ORIENTED_EDGE('',*,*,#115,.T.);
#117=EDGE_LOOP('',(#106,#111,#116));
#118=FACE_OUTER_BOUND('',#117,.T.);
#119=ADVANCED_FACE('',(#118),#101,.T.);
#120=CARTESIAN_POINT('',(-14.000000,0.000000,1.000000));
#121=DIRECTION('',(0.000000,0.000000,1.000000));
#122=DIRECTION('',(1.000000,0.000000,0.000000));
#123=AXIS2_PLACEMENT_3D('',#120,#121,#122);
#124=PLANE('',#123);
#125=DIRECTION('',(0.658505,-0.752577,0.000000));
#126=VECTOR('',#125,21.260292);
#127=LINE('',#95,#126);
#128=EDGE_CURVE('',#96,#54,#127,.T.);
#129=ORIENTED_EDGE('',*,*,#128,.T.);
#130=DIRECTION('',(0.980785,0.195090,0.000000));
#131=VECTOR('',#130,2.341084);
#132=LINE('',#53,#131);
#133=EDGE_CURVE('',#54,#56,#132,.T.);
#134=ORIENTED_EDGE('',*,*,#133,.T.);
#135=DIRECTION('',(-0.723624,0.690195,0.000000));
#136=VECTOR('',#135,22.520132);
#137=LINE('',#55,#136);
#138=EDGE_CURVE('',#56,#96,#137,.T.);
#139=ORIENTED_EDGE('',*,*,#138,.T.);
#140=EDGE_LOOP('',(#129,#134,#139));
#141=FACE_OUTER_BOUND('',#140,.T.);
#142=ADVANCED_FACE('',(#141),#124,.T.);
#143=CARTESIAN_POINT('',(0.000000,-16.000000,-85.000000));
#144=DIRECTION('',(0.195090,-0.980785,0.000000));
#145=DIRECTION('',(0.000000,0.000000,1.000000));
#146=AXIS2_PLACEMENT_3D('',#143,#144,#145);
#147=PLANE('',#146);
#148=DIRECTION('',(0.980785,0.195090,0.000000));
#149=VECTOR('',#148,2.341084);
#150=LINE('',#13,#149);
#151=EDGE_CURVE('',#14,#16,#150,.T.);
#152=ORIENTED_EDGE('',*,*,#151,.T.);
#153=DIRECTION('',(0.000000,0.000000,1.000000));
#154=VECTOR('',#153,86.000000);
#155=LINE('',#15,#154);
#156=EDGE_CURVE('',#16,#56,#155,.T.);
#157=ORIENTED_EDGE('',*,*,#156,.T.);
#158=DIRECTION('',(-0.026689,-0.005309,-0.999630));
#159=VECTOR('',#158,86.031858);
#160=LINE('',#55,#159);
#161=EDGE_CURVE('',#56,#14,#160,.T.);
#162=ORIENTED_EDGE('',*,*,#161,.T.);
#163=EDGE_LOOP('',(#152,#157,#162));
#164=FACE_OUTER_BOUND('',#163,.T.);
#165=ADVANCED_FACE('',(#164),#147,.T.);
#166=CARTESIAN_POINT('',(0.000000,-16.000000,-85.000000));
#167=DIRECTION('',(0.195090,-0.980785,0.000000));
#168=DIRECTION('',(0.000000,0.000000,1.000000));
#169=AXIS2_PLACEMENT_3D('',#166,#167,#168);
#170=PLANE('',#169);
#171=DIRECTION('',(0.026689,0.005309,0.999630));
#172=VECTOR('',#171,86.031858);
#173=LINE('',#13,#172);
#174=EDGE_CURVE('',#14,#56,#173,.T.);
#175=ORIENTED_EDGE('',*,*,#174,.T.);
#176=DIRECTION('',(-0.980785,-0.195090,0.000000));
#177=VECTOR('',#176,2.341084);
#178=LINE('',#55,#177);
#179=EDGE_CURVE('',#56,#54,#178,.T.);
#180=ORIENTED_EDGE('',*,*,#179,.T.);
#181=DIRECTION('',(0.000000,0.000000,-1.000000));
#182=VECTOR('',#181,86.000000);
#183=LINE('',#53,#182);
#184=EDGE_CURVE('',#54,#14,#183,.T.);
#185=ORIENTED_EDGE('',*,*,#184,.T.);
#186=EDGE_LOOP('',(#175,#180,#185));
#187=FACE_OUTER_BOUND('',#186,.T.);
#188=ADVANCED_FACE('',(#187),#170,.T.);
#189=CARTESIAN_POINT('',(-14.000000,0.000000,-85.000000));
#190=DIRECTION('',(0.000000,0.000000,-1.000000));
#191=DIRECTION('',(1.000000,0.000000,0.000000));
#192=AXIS2_PLACEMENT_3D('',#189,#190,#191);
#193=PLANE('',#192);
#194=DIRECTION('',(0.788222,-0.615391,0.000000));
#195=VECTOR('',#194,23.144044);
#196=LINE('',#93,#195);
#197=EDGE_CURVE('',#94,#18,#196,.T.);
#198=ORIENTED_EDGE('',*,*,#197,.T.);
#199=DIRECTION('',(-0.831470,-0.555570,0.000000));
#200=VECTOR('',#199,2.341084);
#201=LINE('',#17,#200);
#202=EDGE_CURVE('',#18,#16,#201,.T.);
#203=ORIENTED_EDGE('',*,*,#202,.T.);
#204=DIRECTION('',(-0.723624,0.690195,0.000000));
#205=VECTOR('',#204,22.520132);
#206=LINE('',#15,#205);
#207=EDGE_CURVE('',#16,#94,#206,.T.);
#208=ORIENTED_EDGE('',*,*,#207,.T.);
#209=EDGE_LOOP('',(#198,#203,#208));
#210=FACE_OUTER_BOUND('',#209,.T.);
#211=ADVANCED_FACE('',(#210),#193,.T.);
#212=CARTESIAN_POINT('',(-14.000000,0.000000,1.000000));
#213=DIRECTION('',(0.000000,0.000000,1.000000));
#214=DIRECTION('',(1.000000,0.000000,0.000000));
#215=AXIS2_PLACEMENT_3D('',#212,#213,#214);
#216=PLANE('',#215);
#217=DIRECTION('',(0.723624,-0.690195,0.000000));
#218=VECTOR('',#217,22.520132);
#219=LINE('',#95,#218);
#220=EDGE_CURVE('',#96,#56,#219,.T.);
#221=ORIENTED_EDGE('',*,*,#220,.T.);
#222=DIRECTION('',(0.831470,0.555570,0.000000));
#223=VECTOR('',#222,2.341084);
#224=LINE('',#55,#223);
#225=EDGE_CURVE('',#56,#58,#224,.T.);
#226=ORIENTED_EDGE('',*,*,#225,.T.);
#227=DIRECTION('',(-0.788222,0.615391,0.000000));
#228=VECTOR('',#227,23.144044);
#229=LINE('',#57,#228);
#230=EDGE_CURVE('',#58,#96,#229,.T.);
#231=ORIENTED_EDGE('',*,*,#230,.T.);
#232=EDGE_LOOP('',(#221,#226,#231));
#233=FACE_OUTER_BOUND('',#232,.T.);
#234=ADVANCED_FACE('',(#233),#216,.T.);
#235=CARTESIAN_POINT('',(2.296101,-15.543277,-85.000000));
#236=DIRECTION('',(0.555570,-0.831470,0.000000));
#237=DIRECTION('',(0.000000,0.000000,1.000000));
#238=AXIS2_PLACEMENT_3D('',#235,#236,#237);
#239=PLANE('',#238);
#240=DIRECTION('',(0.831470,0.555570,0.000000));
#241=VECTOR('',#240,2.341084);
#242=LINE('',#15,#241);
#243=EDGE_CURVE('',#16,#18,#242,.T.);
#244=ORIENTED_EDGE('',*,*,#243,.T.);
#245=DIRECTION('',(0.000000,0.000000,1.000000));
#246=VECTOR('',#245,86.000000);
#247=LINE('',#17,#246);
#248=EDGE_CURVE('',#18,#58,#247,.T.);
#249=ORIENTED_EDGE('',*,*,#248,.T.);
#250=DIRECTION('',(-0.022626,-0.015118,-0.999630));
#251=VECTOR('',#250,86.031858);
#252=LINE('',#57,#251);
#253=EDGE_CURVE('',#58,#16,#252,.T.);
#254=ORIENTED_EDGE('',*,*,#253,.T.);
#255=EDGE_LOOP('',(#244,#249,#254));
#256=FACE_OUTER_BOUND('',#255,.T.);
#257=ADVANCED_FACE('',(#256),#239,.T.);
#258=CARTESIAN_POINT('',(2.296101,-15.543277,-85.000000));
#259=DIRECTION('',(0.555570,-0.831470,0.000000));
#260=DIRECTION('',(0.000000,0.000000,1.000000));
#261=AXIS2_PLACEMENT_3D('',#258,#259,#260);
#262=PLANE('',#261);
#263=DIRECTION('',(0.022626,0.015118,0.999630));
#264=VECTOR('',#263,86.031858);
#265=LINE('',#15,#264);
#266=EDGE_CURVE('',#16,#58,#265,.T.);
#267=ORIENTED_EDGE('',*,*,#266,.T.);
#268=DIRECTION('',(-0.831470,-0.555570,0.000000));
#269=VECTOR('',#268,2.341084);
#270=LINE('',#57,#269);
#271=EDGE_CURVE('',#58,#56,#270,.T.);
#272=ORIENTED_EDGE('',*,*,#271,.T.);
#273=DIRECTION('',(0.000000,0.000000,-1.000000));
#274=VECTOR('',#273,86.000000);
#275=LINE('',#55,#274);
#276=EDGE_CURVE('',#56,#16,#275,.T.);
#277=ORIENTED_EDGE('',*,*,#276,.T.);
#278=EDGE_LOOP('',(#267,#272,#277));
#279=FACE_OUTER_BOUND('',#278,.T.);
#280=ADVANCED_FACE('',(#279),#262,.T.);
#281=CARTESIAN_POINT('',(-14.000000,0.000000,-85.000000));
#282=DIRECTION('',(0.000000,0.000000,-1.000000));
#283=DIRECTION('',(1.000000,0.000000,0.000000));
#284=AXIS2_PLACEMENT_3D('',#281,#282,#283);
#285=PLANE('',#284);
#286=DIRECTION('',(0.846407,-0.532536,0.000000));
#287=VECTOR('',#286,23.089690);
#288=LINE('',#93,#287);
#289=EDGE_CURVE('',#94,#20,#288,.T.);
#290=ORIENTED_EDGE('',*,*,#289,.T.);
#291=DIRECTION('',(-0.555570,-0.831470,0.000000));
#292=VECTOR('',#291,2.341084);
#293=LINE('',#19,#292);
#294=EDGE_CURVE('',#20,#18,#293,.T.);
#295=ORIENTED_EDGE('',*,*,#294,.T.);
#296=DIRECTION('',(-0.788222,0.615391,0.000000));
#297=VECTOR('',#296,23.144044);
#298=LINE('',#17,#297);
#299=EDGE_CURVE('',#18,#94,#298,.T.);
#300=ORIENTED_EDGE('',*,*,#299,.T.);
#301=EDGE_LOOP('',(#290,#295,#300));
#302=FACE_OUTER_BOUND('',#301,.T.);
#303=ADVANCED_FACE('',(#302),#285,.T.);
#304=CARTESIAN_POINT('',(-14.000000,0.000000,1.000000));
#305=DIRECTION('',(0.000000,0.000000,1.000000));
#306=DIRECTION('',(1.000000,0.000000,0.000000));
#307=AXIS2_PLACEMENT_3D('',#304,#305,#306);
#308=PLANE('',#307);
#309=DIRECTION('',(0.788222,-0.615391,0.000000));
#310=VECTOR('',#309,23.144044);
#311=LINE('',#95,#310);
#312=EDGE_CURVE('',#96,#58,#311,.T.);
#313=ORIENTED_EDGE('',*,*,#312,.T.);
#314=DIRECTION('',(0.555570,0.831470,0.000000));
#315=VECTOR('',#314,2.341084);
#316=LINE('',#57,#315);
#317=EDGE_CURVE('',#58,#60,#316,.T.);
#318=ORIENTED_EDGE('',*,*,#317,.T.);
#319=DIRECTION('',(-0.846407,0.532536,0.000000));
#320=VECTOR('',#319,23.089690);
#321=LINE('',#59,#320);
#322=EDGE_CURVE('',#60,#96,#321,.T.);
#323=ORIENTED_EDGE('',*,*,#322,.T.);
#324=EDGE_LOOP('',(#313,#318,#323));
#325=FACE_OUTER_BOUND('',#324,.T.);
#326=ADVANCED_FACE('',(#325),#308,.T.);
#327=CARTESIAN_POINT('',(4.242641,-14.242641,-85.000000));
#328=DIRECTION('',(0.831470,-0.555570,0.000000));
#329=DIRECTION('',(0.000000,0.000000,1.000000));
#330=AXIS2_PLACEMENT_3D('',#327,#328,#329);
#331=PLANE('',#330);
#332=DIRECTION('',(0.555570,0.831470,0.000000));
#333=VECTOR('',#332,2.341084);
#334=LINE('',#17,#333);
#335=EDGE_CURVE('',#18,#20,#334,.T.);
#336=ORIENTED_EDGE('',*,*,#335,.T.);
#337=DIRECTION('',(0.000000,0.000000,1.000000));
#338=VECTOR('',#337,86.000000);
#339=LINE('',#19,#338);
#340=EDGE_CURVE('',#20,#60,#339,.T.);
#341=ORIENTED_EDGE('',*,*,#340,.T.);
#342=DIRECTION('',(-0.015118,-0.022626,-0.999630));
#343=VECTOR('',#342,86.031858);
#344=LINE('',#59,#343);
#345=EDGE_CURVE('',#60,#18,#344,.T.);
#346=ORIENTED_EDGE('',*,*,#345,.T.);
#347=EDGE_LOOP('',(#336,#341,#346));
#348=FACE_OUTER_BOUND('',#347,.T.);
#349=ADVANCED_FACE('',(#348),#331,.T.);
#350=CARTESIAN_POINT('',(4.242641,-14.242641,-85.000000));
#351=DIRECTION('',(0.831470,-0.555570,0.000000));
#352=DIRECTION('',(0.000000,0.000000,1.000000));
#353=AXIS2_PLACEMENT_3D('',#350,#351,#352);
#354=PLANE('',#353);
#355=DIRECTION('',(0.015118,0.022626,0.999630));
#356=VECTOR('',#355,86.031858);
#357=LINE('',#17,#356);
#358=EDGE_CURVE('',#18,#60,#357,.T.);
#359=ORIENTED_EDGE('',*,*,#358,.T.);
#360=DIRECTION('',(-0.555570,-0.831470,0.000000));
#361=VECTOR('',#360,2.341084);
#362=LINE('',#59,#361);
#363=EDGE_CURVE('',#60,#58,#362,.T.);
#364=ORIENTED_EDGE('',*,*,#363,.T.);
#365=DIRECTION('',(0.000000,0.000000,-1.000000));
#366=VECTOR('',#365,86.000000);
#367=LINE('',#57,#366);
#368=EDGE_CURVE('',#58,#18,#367,.T.);
#369=ORIENTED_EDGE('',*,*,#368,.T.);
#370=EDGE_LOOP('',(#359,#364,#369));
#371=FACE_OUTER_BOUND('',#370,.T.);
#372=ADVANCED_FACE('',(#371),#354,.T.);
#373=CARTESIAN_POINT('',(-14.000000,0.000000,-85.000000));
#374=DIRECTION('',(0.000000,0.000000,-1.000000));
#375=DIRECTION('',(1.000000,0.000000,0.000000));
#376=AXIS2_PLACEMENT_3D('',#373,#374,#375);
#377=PLANE('',#376);
#378=DIRECTION('',(0.894427,-0.447214,0.000000));
#379=VECTOR('',#378,22.360680);
#380=LINE('',#93,#379);
#381=EDGE_CURVE('',#94,#22,#380,.T.);
#382=ORIENTED_EDGE('',*,*,#381,.T.);
#383=DIRECTION('',(-0.195090,-0.980785,0.000000));
#384=VECTOR('',#383,2.341084);
#385=LINE('',#21,#384);
#386=EDGE_CURVE('',#22,#20,#385,.T.);
#387=ORIENTED_EDGE('',*,*,#386,.T.);
#388=DIRECTION('',(-0.846407,0.532536,0.000000));
#389=VECTOR('',#388,23.089690);
#390=LINE('',#19,#389);
#391=EDGE_CURVE('',#20,#94,#390,.T.);
#392=ORIENTED_EDGE('',*,*,#391,.T.);
#393=EDGE_LOOP('',(#382,#387,#392));
#394=FACE_OUTER_BOUND('',#393,.T.);
#395=ADVANCED_FACE('',(#394),#377,.T.);
#396=CARTESIAN_POINT('',(-14.000000,0.000000,1.000000));
#397=DIRECTION('',(0.000000,0.000000,1.000000));
#398=DIRECTION('',(1.000000,0.000000,0.000000));
#399=AXIS2_PLACEMENT_3D('',#396,#397,#398);
#400=PLANE('',#399);
#401=DIRECTION('',(0.846407,-0.532536,0.000000));
#402=VECTOR('',#401,23.089690);
#403=LINE('',#95,#402);
#404=EDGE_CURVE('',#96,#60,#403,.T.);
#405=ORIENTED_EDGE('',*,*,#404,.T.);
#406=DIRECTION('',(0.195090,0.980785,0.000000));
#407=VECTOR('',#406,2.341084);
#408=LINE('',#59,#407);
#409=EDGE_CURVE('',#60,#62,#408,.T.);
#410=ORIENTED_EDGE('',*,*,#409,.T.);
#411=DIRECTION('',(-0.894427,0.447214,0.000000));
#412=VECTOR('',#411,22.360680);
#413=LINE('',#61,#412);
#414=EDGE_CURVE('',#62,#96,#413,.T.);
#415=ORIENTED_EDGE('',*,*,#414,.T.);
#416=EDGE_LOOP('',(#405,#410,#415));
#417=FACE_OUTER_BOUND('',#416,.T.);
#418=ADVANCED_FACE('',(#417),#400,.T.);
#419=CARTESIAN_POINT('',(5.543277,-12.296101,-85.000000));
#420=DIRECTION('',(0.980785,-0.195090,0.000000));
#421=DIRECTION('',(0.000000,0.000000,1.000000));
#422=AXIS2_PLACEMENT_3D('',#419,#420,#421);
#423=PLANE('',#422);
#424=DIRECTION('',(0.195090,0.980785,0.000000));
#425=VECTOR('',#424,2.341084);
#426=LINE('',#19,#425);
#427=EDGE_CURVE('',#20,#22,#426,.T.);
#428=ORIENTED_EDGE('',*,*,#427,.T.);
#429=DIRECTION('',(0.000000,0.000000,1.000000));
#430=VECTOR('',#429,86.000000);
#431=LINE('',#21,#430);
#432=EDGE_CURVE('',#22,#62,#431,.T.);
#433=ORIENTED_EDGE('',*,*,#432,.T.);
#434=DIRECTION('',(-0.005309,-0.026689,-0.999630));
#435=VECTOR('',#434,86.031858);
#436=LINE('',#61,#435);
#437=EDGE_CURVE('',#62,#20,#436,.T.);
#438=ORIENTED_EDGE('',*,*,#437,.T.);
#439=EDGE_LOOP('',(#428,#433,#438));
#440=FACE_OUTER_BOUND('',#439,.T.);
#441=ADVANCED_FACE('',(#440),#423,.T.);
#442=CARTESIAN_POINT('',(5.543277,-12.296101,-85.000000));
#443=DIRECTION('',(0.980785,-0.195090,0.000000));
#444=DIRECTION('',(0.000000,0.000000,1.000000));
#445=AXIS2_PLACEMENT_3D('',#442,#443,#444);
#446=PLANE('',#445);
#447=DIRECTION('',(0.005309,0.026689,0.999630));
#448=VECTOR('',#447,86.031858);
#449=LINE('',#19,#448);
#450=EDGE_CURVE('',#20,#62,#449,.T.);
#451=ORIENTED_EDGE('',*,*,#450,.T.);
#452=DIRECTION('',(-0.195090,-0.980785,0.000000));
#453=VECTOR('',#452,2.341084);
#454=LINE('',#61,#453);
#455=EDGE_CURVE('',#62,#60,#454,.T.);
#456=ORIENTED_EDGE('',*,*,#455,.T.);
#457=DIRECTION('',(0.000000,0.000000,-1.000000));
#458=VECTOR('',#457,86.000000);
#459=LINE('',#59,#458);
#460=EDGE_CURVE('',#60,#20,#459,.T.);
#461=ORIENTED_EDGE('',*,*,#460,.T.);
#462=EDGE_LOOP('',(#451,#456,#461));
#463=FACE_OUTER_BOUND('',#462,.T.);
#464=ADVANCED_FACE('',(#463),#446,.T.);
#465=CARTESIAN_POINT('',(-14.000000,0.000000,-85.000000));
#466=DIRECTION('',(0.000000,0.000000,-1.000000));
#467=DIRECTION('',(1.000000,0.000000,0.000000));
#468=AXIS2_PLACEMENT_3D('',#465,#466,#467);
#469=PLANE('',#468);
#470=DIRECTION('',(0.894427,0.447214,0.000000));
#471=VECTOR('',#470,22.360680);
#472=LINE('',#93,#471);
#473=EDGE_CURVE('',#94,#24,#472,.T.);
#474=ORIENTED_EDGE('',*,*,#473,.T.);
#475=DIRECTION('',(0.000000,-1.000000,0.000000));
#476=VECTOR('',#475,20.000000);
#477=LINE('',#23,#476);
#478=EDGE_CURVE('',#24,#22,#477,.T.);
#479=ORIENTED_EDGE('',*,*,#478,.T.);
#480=DIRECTION('',(-0.894427,0.447214,0.000000));
#481=VECTOR('',#480,22.360680);
#482=LINE('',#21,#481);
#483=EDGE_CURVE('',#22,#94,#482,.T.);
#484=ORIENTED_EDGE('',*,*,#483,.T.);
#485=EDGE_LOOP('',(#474,#479,#484));
#486=FACE_OUTER_BOUND('',#485,.T.);
#487=ADVANCED_FACE('',(#486),#469,.T.);
#488=CARTESIAN_POINT('',(-14.000000,0.000000,1.000000));
#489=DIRECTION('',(0.000000,0.000000,1.000000));
#490=DIRECTION('',(1.000000,0.000000,0.000000));
#491=AXIS2_PLACEMENT_3D('',#488,#489,#490);
#492=PLANE('',#491);
#493=DIRECTION('',(0.894427,-0.447214,0.000000));
#494=VECTOR('',#493,22.360680);
#495=LINE('',#95,#494);
#496=EDGE_CURVE('',#96,#62,#495,.T.);
#497=ORIENTED_EDGE('',*,*,#496,.T.);
#498=DIRECTION('',(0.000000,1.000000,0.000000));
#499=VECTOR('',#498,20.000000);
#500=LINE('',#61,#499);
#501=EDGE_CURVE('',#62,#64,#500,.T.);
#502=ORIENTED_EDGE('',*,*,#501,.T.);
#503=DIRECTION('',(-0.894427,-0.447214,0.000000));
#504=VECTOR('',#503,22.360680);
#505=LINE('',#63,#504);
#506=EDGE_CURVE('',#64,#96,#505,.T.);
#507=ORIENTED_EDGE('',*,*,#506,.T.);
#508=EDGE_LOOP('',(#497,#502,#507));
#509=FACE_OUTER_BOUND('',#508,.T.);
#510=ADVANCED_FACE('',(#509),#492,.T.);
#511=CARTESIAN_POINT('',(6.000000,-10.000000,-85.000000));
#512=DIRECTION('',(1.000000,0.000000,0.000000));
#513=DIRECTION('',(0.000000,1.000000,0.000000));
#514=AXIS2_PLACEMENT_3D('',#511,#512,#513);
#515=PLANE('',#514);
#516=DIRECTION('',(0.000000,1.000000,0.000000));
#517=VECTOR('',#516,20.000000);
#518=LINE('',#21,#517);
#519=EDGE_CURVE('',#22,#24,#518,.T.);
#520=ORIENTED_EDGE('',*,*,#519,.T.);
#521=DIRECTION('',(0.000000,0.000000,1.000000));
#522=VECTOR('',#521,86.000000);
#523=LINE('',#23,#522);
#524=EDGE_CURVE('',#24,#64,#523,.T.);
#525=ORIENTED_EDGE('',*,*,#524,.T.);
#526=DIRECTION('',(0.000000,-0.226513,-0.974008));
#527=VECTOR('',#526,88.294960);
#528=LINE('',#63,#527);
#529=EDGE_CURVE('',#64,#22,#528,.T.);
#530=ORIENTED_EDGE('',*,*,#529,.T.);
#531=EDGE_LOOP('',(#520,#525,#530));
#532=FACE_OUTER_BOUND('',#531,.T.);
#533=ADVANCED_FACE('',(#532),#515,.T.);
#534=CARTESIAN_POINT('',(6.000000,-10.000000,-85.000000));
#535=DIRECTION('',(1.000000,0.000000,0.000000));
#536=DIRECTION('',(0.000000,1.000000,0.000000));
#537=AXIS2_PLACEMENT_3D('',#534,#535,#536);
#538=PLANE('',#537);
#539=DIRECTION('',(0.000000,0.226513,0.974008));
#540=VECTOR('',#539,88.294960);
#541=LINE('',#21,#540);
#542=EDGE_CURVE('',#22,#64,#541,.T.);
#543=ORIENTED_EDGE('',*,*,#542,.T.);
#544=DIRECTION('',(0.000000,-1.000000,0.000000));
#545=VECTOR('',#544,20.000000);
#546=LINE('',#63,#545);
#547=EDGE_CURVE('',#64,#62,#546,.T.);
#548=ORIENTED_EDGE('',*,*,#547,.T.);
#549=DIRECTION('',(0.000000,0.000000,-1.000000));
#550=VECTOR('',#549,86.000000);
#551=LINE('',#61,#550);
#552=EDGE_CURVE('',#62,#22,#551,.T.);
#553=ORIENTED_EDGE('',*,*,#552,.T.);
#554=EDGE_LOOP('',(#543,#548,#553));
#555=FACE_OUTER_BOUND('',#554,.T.);
#556=ADVANCED_FACE('',(#555),#538,.T.);
#557=CARTESIAN_POINT('',(-14.000000,0.000000,-85.000000));
#558=DIRECTION('',(0.000000,0.000000,-1.000000));
#559=DIRECTION('',(1.000000,0.000000,0.000000));
#560=AXIS2_PLACEMENT_3D('',#557,#558,#559);
#561=PLANE('',#560);
#562=DIRECTION('',(0.846407,0.532536,0.000000));
#563=VECTOR('',#562,23.089690);
#564=LINE('',#93,#563);
#565=EDGE_CURVE('',#94,#26,#564,.T.);
#566=ORIENTED_EDGE('',*,*,#565,.T.);
#567=DIRECTION('',(0.195090,-0.980785,0.000000));
#568=VECTOR('',#567,2.341084);
#569=LINE('',#25,#568);
#570=EDGE_CURVE('',#26,#24,#569,.T.);
#571=ORIENTED_EDGE('',*,*,#570,.T.);
#572=DIRECTION('',(-0.894427,-0.447214,0.000000));
#573=VECTOR('',#572,22.360680);
#574=LINE('',#23,#573);
#575=EDGE_CURVE('',#24,#94,#574,.T.);
#576=ORIENTED_EDGE('',*,*,#575,.T.);
#577=EDGE_LOOP('',(#566,#571,#576));
#578=FACE_OUTER_BOUND('',#577,.T.);
#579=ADVANCED_FACE('',(#578),#561,.T.);
#580=CARTESIAN_POINT('',(-14.000000,0.000000,1.000000));
#581=DIRECTION('',(0.000000,0.000000,1.000000));
#582=DIRECTION('',(1.000000,0.000000,0.000000));
#583=AXIS2_PLACEMENT_3D('',#580,#581,#582);
#584=PLANE('',#583);
#585=DIRECTION('',(0.894427,0.447214,0.000000));
#586=VECTOR('',#585,22.360680);
#587=LINE('',#95,#586);
#588=EDGE_CURVE('',#96,#64,#587,.T.);
#589=ORIENTED_EDGE('',*,*,#588,.T.);
#590=DIRECTION('',(-0.195090,0.980785,0.000000));
#591=VECTOR('',#590,2.341084);
#592=LINE('',#63,#591);
#593=EDGE_CURVE('',#64,#66,#592,.T.);
#594=ORIENTED_EDGE('',*,*,#593,.T.);
#595=DIRECTION('',(-0.846407,-0.532536,0.000000));
#596=VECTOR('',#595,23.089690);
#597=LINE('',#65,#596);
#598=EDGE_CURVE('',#66,#96,#597,.T.);
#599=ORIENTED_EDGE('',*,*,#598,.T.);
#600=EDGE_LOOP('',(#589,#594,#599));
#601=FACE_OUTER_BOUND('',#600,.T.);
#602=ADVANCED_FACE('',(#601),#584,.T.);
#603=CARTESIAN_POINT('',(6.000000,10.000000,-85.000000));
#604=DIRECTION('',(0.980785,0.195090,0.000000));
#605=DIRECTION('',(0.000000,0.000000,1.000000));
#606=AXIS2_PLACEMENT_3D('',#603,#604,#605);
#607=PLANE('',#606);
#608=DIRECTION('',(-0.195090,0.980785,0.000000));
#609=VECTOR('',#608,2.341084);
#610=LINE('',#23,#609);
#611=EDGE_CURVE('',#24,#26,#610,.T.);
#612=ORIENTED_EDGE('',*,*,#611,.T.);
#613=DIRECTION('',(0.000000,0.000000,1.000000));
#614=VECTOR('',#613,86.000000);
#615=LINE('',#25,#614);
#616=EDGE_CURVE('',#26,#66,#615,.T.);
#617=ORIENTED_EDGE('',*,*,#616,.T.);
#618=DIRECTION('',(0.005309,-0.026689,-0.999630));
#619=VECTOR('',#618,86.031858);
#620=LINE('',#65,#619);
#621=EDGE_CURVE('',#66,#24,#620,.T.);
#622=ORIENTED_EDGE('',*,*,#621,.T.);
#623=EDGE_LOOP('',(#612,#617,#622));
#624=FACE_OUTER_BOUND('',#623,.T.);
#625=ADVANCED_FACE('',(#624),#607,.T.);
#626=CARTESIAN_POINT('',(6.000000,10.000000,-85.000000));
#627=DIRECTION('',(0.980785,0.195090,0.000000));
#628=DIRECTION('',(0.000000,0.000000,1.000000));
#629=AXIS2_PLACEMENT_3D('',#626,#627,#628);
#630=PLANE('',#629);
#631=DIRECTION('',(-0.005309,0.026689,0.999630));
#632=VECTOR('',#631,86.031858);
#633=LINE('',#23,#632);
#634=EDGE_CURVE('',#24,#66,#633,.T.);
#635=ORIENTED_EDGE('',*,*,#634,.T.);
#636=DIRECTION('',(0.195090,-0.980785,0.000000));
#637=VECTOR('',#636,2.341084);
#638=LINE('',#65,#637);
#639=EDGE_CURVE('',#66,#64,#638,.T.);
#640=ORIENTED_EDGE('',*,*,#639,.T.);
#641=DIRECTION('',(0.000000,0.000000,-1.000000));
#642=VECTOR('',#641,86.000000);
#643=LINE('',#63,#642);
#644=EDGE_CURVE('',#64,#24,#643,.T.);
#645=ORIENTED_EDGE('',*,*,#644,.T.);
#646=EDGE_LOOP('',(#635,#640,#645));
#647=FACE_OUTER_BOUND('',#646,.T.);
#648=ADVANCED_FACE('',(#647),#630,.T.);
#649=CARTESIAN_POINT('',(-14.000000,0.000000,-85.000000));
#650=DIRECTION('',(0.000000,0.000000,-1.000000));
#651=DIRECTION('',(1.000000,0.000000,0.000000));
#652=AXIS2_PLACEMENT_3D('',#649,#650,#651);
#653=PLANE('',#652);
#654=DIRECTION('',(0.788222,0.615391,0.000000));
#655=VECTOR('',#654,23.144044);
#656=LINE('',#93,#655);
#657=EDGE_CURVE('',#94,#28,#656,.T.);
#658=ORIENTED_EDGE('',*,*,#657,.T.);
#659=DIRECTION('',(0.555570,-0.831470,0.000000));
#660=VECTOR('',#659,2.341084);
#661=LINE('',#27,#660);
#662=EDGE_CURVE('',#28,#26,#661,.T.);
#663=ORIENTED_EDGE('',*,*,#662,.T.);
#664=DIRECTION('',(-0.846407,-0.532536,0.000000));
#665=VECTOR('',#664,23.089690);
#666=LINE('',#25,#665);
#667=EDGE_CURVE('',#26,#94,#666,.T.);
#668=ORIENTED_EDGE('',*,*,#667,.T.);
#669=EDGE_LOOP('',(#658,#663,#668));
#670=FACE_OUTER_BOUND('',#669,.T.);
#671=ADVANCED_FACE('',(#670),#653,.T.);
#672=CARTESIAN_POINT('',(-14.000000,0.000000,1.000000));
#673=DIRECTION('',(0.000000,0.000000,1.000000));
#674=DIRECTION('',(1.000000,0.000000,0.000000));
#675=AXIS2_PLACEMENT_3D('',#672,#673,#674);
#676=PLANE('',#675);
#677=DIRECTION('',(0.846407,0.532536,0.000000));
#678=VECTOR('',#677,23.089690);
#679=LINE('',#95,#678);
#680=EDGE_CURVE('',#96,#66,#679,.T.);
#681=ORIENTED_EDGE('',*,*,#680,.T.);
#682=DIRECTION('',(-0.555570,0.831470,0.000000));
#683=VECTOR('',#682,2.341084);
#684=LINE('',#65,#683);
#685=EDGE_CURVE('',#66,#68,#684,.T.);
#686=ORIENTED_EDGE('',*,*,#685,.T.);
#687=DIRECTION('',(-0.788222,-0.615391,0.000000));
#688=VECTOR('',#687,23.144044);
#689=LINE('',#67,#688);
#690=EDGE_CURVE('',#68,#96,#689,.T.);
#691=ORIENTED_EDGE('',*,*,#690,.T.);
#692=EDGE_LOOP('',(#681,#686,#691));
#693=FACE_OUTER_BOUND('',#692,.T.);
#694=ADVANCED_FACE('',(#693),#676,.T.);
#695=CARTESIAN_POINT('',(5.543277,12.296101,-85.000000));
#696=DIRECTION('',(0.831470,0.555570,0.000000));
#697=DIRECTION('',(0.000000,0.000000,1.000000));
#698=AXIS2_PLACEMENT_3D('',#695,#696,#697);
#699=PLANE('',#698);
#700=DIRECTION('',(-0.555570,0.831470,0.000000));
#701=VECTOR('',#700,2.341084);
#702=LINE('',#25,#701);
#703=EDGE_CURVE('',#26,#28,#702,.T.);
#704=ORIENTED_EDGE('',*,*,#703,.T.);
#705=DIRECTION('',(0.000000,0.000000,1.000000));
#706=VECTOR('',#705,86.000000);
#707=LINE('',#27,#706);
#708=EDGE_CURVE('',#28,#68,#707,.T.);
#709=ORIENTED_EDGE('',*,*,#708,.T.);
#710=DIRECTION('',(0.015118,-0.022626,-0.999630));
#711=VECTOR('',#710,86.031858);
#712=LINE('',#67,#711);
#713=EDGE_CURVE('',#68,#26,#712,.T.);
#714=ORIENTED_EDGE('',*,*,#713,.T.);
#715=EDGE_LOOP('',(#704,#709,#714));
#716=FACE_OUTER_BOUND('',#715,.T.);
#717=ADVANCED_FACE('',(#716),#699,.T.);
#718=CARTESIAN_POINT('',(5.543277,12.296101,-85.000000));
#719=DIRECTION('',(0.831470,0.555570,0.000000));
#720=DIRECTION('',(0.000000,0.000000,1.000000));
#721=AXIS2_PLACEMENT_3D('',#718,#719,#720);
#722=PLANE('',#721);
#723=DIRECTION('',(-0.015118,0.022626,0.999630));
#724=VECTOR('',#723,86.031858);
#725=LINE('',#25,#724);
#726=EDGE_CURVE('',#26,#68,#725,.T.);
#727=ORIENTED_EDGE('',*,*,#726,.T.);
#728=DIRECTION('',(0.555570,-0.831470,0.000000));
#729=VECTOR('',#728,2.341084);
#730=LINE('',#67,#729);
#731=EDGE_CURVE('',#68,#66,#730,.T.);
#732=ORIENTED_EDGE('',*,*,#731,.T.);
#733=DIRECTION('',(0.000000,0.000000,-1.000000));
#734=VECTOR('',#733,86.000000);
#735=LINE('',#65,#734);
#736=EDGE_CURVE('',#66,#26,#735,.T.);
#737=ORIENTED_EDGE('',*,*,#736,.T.);
#738=EDGE_LOOP('',(#727,#732,#737));
#739=FACE_OUTER_BOUND('',#738,.T.);
#740=ADVANCED_FACE('',(#739),#722,.T.);
#741=CARTESIAN_POINT('',(-14.000000,0.000000,-85.000000));
#742=DIRECTION('',(0.000000,0.000000,-1.000000));
#743=DIRECTION('',(1.000000,0.000000,0.000000));
#744=AXIS2_PLACEMENT_3D('',#741,#742,#743);
#745=PLANE('',#744);
#746=DIRECTION('',(0.723624,0.690195,0.000000));
#747=VECTOR('',#746,22.520132);
#748=LINE('',#93,#747);
#749=EDGE_CURVE('',#94,#30,#748,.T.);
#750=ORIENTED_EDGE('',*,*,#749,.T.);
#751=DIRECTION('',(0.831470,-0.555570,0.000000));
#752=VECTOR('',#751,2.341084);
#753=LINE('',#29,#752);
#754=EDGE_CURVE('',#30,#28,#753,.T.);
#755=ORIENTED_EDGE('',*,*,#754,.T.);
#756=DIRECTION('',(-0.788222,-0.615391,0.000000));
#757=VECTOR('',#756,23.144044);
#758=LINE('',#27,#757);
#759=EDGE_CURVE('',#28,#94,#758,.T.);
#760=ORIENTED_EDGE('',*,*,#759,.T.);
#761=EDGE_LOOP('',(#750,#755,#760));
#762=FACE_OUTER_BOUND('',#761,.T.);
#763=ADVANCED_FACE('',(#762),#745,.T.);
#764=CARTESIAN_POINT('',(-14.000000,0.000000,1.000000));
#765=DIRECTION('',(0.000000,0.000000,1.000000));
#766=DIRECTION('',(1.000000,0.000000,0.000000));
#767=AXIS2_PLACEMENT_3D('',#764,#765,#766);
#768=PLANE('',#767);
#769=DIRECTION('',(0.788222,0.615391,0.000000));
#770=VECTOR('',#769,23.144044);
#771=LINE('',#95,#770);
#772=EDGE_CURVE('',#96,#68,#771,.T.);
#773=ORIENTED_EDGE('',*,*,#772,.T.);
#774=DIRECTION('',(-0.831470,0.555570,0.000000));
#775=VECTOR('',#774,2.341084);
#776=LINE('',#67,#775);
#777=EDGE_CURVE('',#68,#70,#776,.T.);
#778=ORIENTED_EDGE('',*,*,#777,.T.);
#779=DIRECTION('',(-0.723624,-0.690195,0.000000));
#780=VECTOR('',#779,22.520132);
#781=LINE('',#69,#780);
#782=EDGE_CURVE('',#70,#96,#781,.T.);
#783=ORIENTED_EDGE('',*,*,#782,.T.);
#784=EDGE_LOOP('',(#773,#778,#783));
#785=FACE_OUTER_BOUND('',#784,.T.);
#786=ADVANCED_FACE('',(#785),#768,.T.);
#787=CARTESIAN_POINT('',(4.242641,14.242641,-85.000000));
#788=DIRECTION('',(0.555570,0.831470,0.000000));
#789=DIRECTION('',(0.000000,0.000000,1.000000));
#790=AXIS2_PLACEMENT_3D('',#787,#788,#789);
#791=PLANE('',#790);
#792=DIRECTION('',(-0.831470,0.555570,0.000000));
#793=VECTOR('',#792,2.341084);
#794=LINE('',#27,#793);
#795=EDGE_CURVE('',#28,#30,#794,.T.);
#796=ORIENTED_EDGE('',*,*,#795,.T.);
#797=DIRECTION('',(0.000000,0.000000,1.000000));
#798=VECTOR('',#797,86.000000);
#799=LINE('',#29,#798);
#800=EDGE_CURVE('',#30,#70,#799,.T.);
#801=ORIENTED_EDGE('',*,*,#800,.T.);
#802=DIRECTION('',(0.022626,-0.015118,-0.999630));
#803=VECTOR('',#802,86.031858);
#804=LINE('',#69,#803);
#805=EDGE_CURVE('',#70,#28,#804,.T.);
#806=ORIENTED_EDGE('',*,*,#805,.T.);
#807=EDGE_LOOP('',(#796,#801,#806));
#808=FACE_OUTER_BOUND('',#807,.T.);
#809=ADVANCED_FACE('',(#808),#791,.T.);
#810=CARTESIAN_POINT('',(4.242641,14.242641,-85.000000));
#811=DIRECTION('',(0.555570,0.831470,0.000000));
#812=DIRECTION('',(0.000000,0.000000,1.000000));
#813=AXIS2_PLACEMENT_3D('',#810,#811,#812);
#814=PLANE('',#813);
#815=DIRECTION('',(-0.022626,0.015118,0.999630));
#816=VECTOR('',#815,86.031858);
#817=LINE('',#27,#816);
#818=EDGE_CURVE('',#28,#70,#817,.T.);
#819=ORIENTED_EDGE('',*,*,#818,.T.);
#820=DIRECTION('',(0.831470,-0.555570,0.000000));
#821=VECTOR('',#820,2.341084);
#822=LINE('',#69,#821);
#823=EDGE_CURVE('',#70,#68,#822,.T.);
#824=ORIENTED_EDGE('',*,*,#823,.T.);
#825=DIRECTION('',(0.000000,0.000000,-1.000000));
#826=VECTOR('',#825,86.000000);
#827=LINE('',#67,#826);
#828=EDGE_CURVE('',#68,#28,#827,.T.);
#829=ORIENTED_EDGE('',*,*,#828,.T.);
#830=EDGE_LOOP('',(#819,#824,#829));
#831=FACE_OUTER_BOUND('',#830,.T.);
#832=ADVANCED_FACE('',(#831),#814,.T.);
#833=CARTESIAN_POINT('',(-14.000000,0.000000,-85.000000));
#834=DIRECTION('',(0.000000,0.000000,-1.000000));
#835=DIRECTION('',(1.000000,0.000000,0.000000));
#836=AXIS2_PLACEMENT_3D('',#833,#834,#835);
#837=PLANE('',#836);
#838=DIRECTION('',(0.658505,0.752577,0.000000));
#839=VECTOR('',#838,21.260292);
#840=LINE('',#93,#839);
#841=EDGE_CURVE('',#94,#32,#840,.T.);
#842=ORIENTED_EDGE('',*,*,#841,.T.);
#843=DIRECTION('',(0.980785,-0.195090,0.000000));
#844=VECTOR('',#843,2.341084);
#845=LINE('',#31,#844);
#846=EDGE_CURVE('',#32,#30,#845,.T.);
#847=ORIENTED_EDGE('',*,*,#846,.T.);
#848=DIRECTION('',(-0.723624,-0.690195,0.000000));
#849=VECTOR('',#848,22.520132);
#850=LINE('',#29,#849);
#851=EDGE_CURVE('',#30,#94,#850,.T.);
#852=ORIENTED_EDGE('',*,*,#851,.T.);
#853=EDGE_LOOP('',(#842,#847,#852));
#854=FACE_OUTER_BOUND('',#853,.T.);
#855=ADVANCED_FACE('',(#854),#837,.T.);
#856=CARTESIAN_POINT('',(-14.000000,0.000000,1.000000));
#857=DIRECTION('',(0.000000,0.000000,1.000000));
#858=DIRECTION('',(1.000000,0.000000,0.000000));
#859=AXIS2_PLACEMENT_3D('',#856,#857,#858);
#860=PLANE('',#859);
#861=DIRECTION('',(0.723624,0.690195,0.000000));
#862=VECTOR('',#861,22.520132);
#863=LINE('',#95,#862);
#864=EDGE_CURVE('',#96,#70,#863,.T.);
#865=ORIENTED_EDGE('',*,*,#864,.T.);
#866=DIRECTION('',(-0.980785,0.195090,0.000000));
#867=VECTOR('',#866,2.341084);
#868=LINE('',#69,#867);
#869=EDGE_CURVE('',#70,#72,#868,.T.);
#870=ORIENTED_EDGE('',*,*,#869,.T.);
#871=DIRECTION('',(-0.658505,-0.752577,0.000000));
#872=VECTOR('',#871,21.260292);
#873=LINE('',#71,#872);
#874=EDGE_CURVE('',#72,#96,#873,.T.);
#875=ORIENTED_EDGE('',*,*,#874,.T.);
#876=EDGE_LOOP('',(#865,#870,#875));
#877=FACE_OUTER_BOUND('',#876,.T.);
#878=ADVANCED_FACE('',(#877),#860,.T.);
#879=CARTESIAN_POINT('',(2.296101,15.543277,-85.000000));
#880=DIRECTION('',(0.195090,0.980785,0.000000));
#881=DIRECTION('',(0.000000,0.000000,1.000000));
#882=AXIS2_PLACEMENT_3D('',#879,#880,#881);
#883=PLANE('',#882);
#884=DIRECTION('',(-0.980785,0.195090,0.000000));
#885=VECTOR('',#884,2.341084);
#886=LINE('',#29,#885);
#887=EDGE_CURVE('',#30,#32,#886,.T.);
#888=ORIENTED_EDGE('',*,*,#887,.T.);
#889=DIRECTION('',(0.000000,0.000000,1.000000));
#890=VECTOR('',#889,86.000000);
#891=LINE('',#31,#890);
#892=EDGE_CURVE('',#32,#72,#891,.T.);
#893=ORIENTED_EDGE('',*,*,#892,.T.);
#894=DIRECTION('',(0.026689,-0.005309,-0.999630));
#895=VECTOR('',#894,86.031858);
#896=LINE('',#71,#895);
#897=EDGE_CURVE('',#72,#30,#896,.T.);
#898=ORIENTED_EDGE('',*,*,#897,.T.);
#899=EDGE_LOOP('',(#888,#893,#898));
#900=FACE_OUTER_BOUND('',#899,.T.);
#901=ADVANCED_FACE('',(#900),#883,.T.);
#902=CARTESIAN_POINT('',(2.296101,15.543277,-85.000000));
#903=DIRECTION('',(0.195090,0.980785,0.000000));
#904=DIRECTION('',(0.000000,0.000000,1.000000));
#905=AXIS2_PLACEMENT_3D('',#902,#903,#904);
#906=PLANE('',#905);
#907=DIRECTION('',(-0.026689,0.005309,0.999630));
#908=VECTOR('',#907,86.031858);
#909=LINE('',#29,#908);
#910=EDGE_CURVE('',#30,#72,#909,.T.);
#911=ORIENTED_EDGE('',*,*,#910,.T.);
#912=DIRECTION('',(0.980785,-0.195090,0.000000));
#913=VECTOR('',#912,2.341084);
#914=LINE('',#71,#913);
#915=EDGE_CURVE('',#72,#70,#914,.T.);
#916=ORIENTED_EDGE('',*,*,#915,.T.);
#917=DIRECTION('',(0.000000,0.000000,-1.000000));
#918=VECTOR('',#917,86.000000);
#919=LINE('',#69,#918);
#920=EDGE_CURVE('',#70,#30,#919,.T.);
#921=ORIENTED_EDGE('',*,*,#920,.T.);
#922=EDGE_LOOP('',(#911,#916,#921));
#923=FACE_OUTER_BOUND('',#922,.T.);
#924=ADVANCED_FACE('',(#923),#906,.T.);
#925=CARTESIAN_POINT('',(-14.000000,0.000000,-85.000000));
#926=DIRECTION('',(0.000000,0.000000,-1.000000));
#927=DIRECTION('',(1.000000,0.000000,0.000000));
#928=AXIS2_PLACEMENT_3D('',#925,#926,#927);
#929=PLANE('',#928);
#930=DIRECTION('',(-0.658505,0.752577,0.000000));
#931=VECTOR('',#930,21.260292);
#932=LINE('',#93,#931);
#933=EDGE_CURVE('',#94,#34,#932,.T.);
#934=ORIENTED_EDGE('',*,*,#933,.T.);
#935=DIRECTION('',(1.000000,0.000000,0.000000));
#936=VECTOR('',#935,28.000000);
#937=LINE('',#33,#936);
#938=EDGE_CURVE('',#34,#32,#937,.T.);
#939=ORIENTED_EDGE('',*,*,#938,.T.);
#940=DIRECTION('',(-0.658505,-0.752577,0.000000));
#941=VECTOR('',#940,21.260292);
#942=LINE('',#31,#941);
#943=EDGE_CURVE('',#32,#94,#942,.T.);
#944=ORIENTED_EDGE('',*,*,#943,.T.);
#945=EDGE_LOOP('',(#934,#939,#944));
#946=FACE_OUTER_BOUND('',#945,.T.);
#947=ADVANCED_FACE('',(#946),#929,.T.);
#948=CARTESIAN_POINT('',(-14.000000,0.000000,1.000000));
#949=DIRECTION('',(0.000000,0.000000,1.000000));
#950=DIRECTION('',(1.000000,0.000000,0.000000));
#951=AXIS2_PLACEMENT_3D('',#948,#949,#950);
#952=PLANE('',#951);
#953=DIRECTION('',(0.658505,0.752577,0.000000));
#954=VECTOR('',#953,21.260292);
#955=LINE('',#95,#954);
#956=EDGE_CURVE('',#96,#72,#955,.T.);
#957=ORIENTED_EDGE('',*,*,#956,.T.);
#958=DIRECTION('',(-1.000000,0.000000,0.000000));
#959=VECTOR('',#958,28.000000);
#960=LINE('',#71,#959);
#961=EDGE_CURVE('',#72,#74,#960,.T.);
#962=ORIENTED_EDGE('',*,*,#961,.T.);
#963=DIRECTION('',(0.658505,-0.752577,0.000000));
#964=VECTOR('',#963,21.260292);
#965=LINE('',#73,#964);
#966=EDGE_CURVE('',#74,#96,#965,.T.);
#967=ORIENTED_EDGE('',*,*,#966,.T.);
#968=EDGE_LOOP('',(#957,#962,#967));
#969=FACE_OUTER_BOUND('',#968,.T.);
#970=ADVANCED_FACE('',(#969),#952,.T.);
#971=CARTESIAN_POINT('',(0.000000,16.000000,-85.000000));
#972=DIRECTION('',(0.000000,1.000000,0.000000));
#973=DIRECTION('',(1.000000,0.000000,0.000000));
#974=AXIS2_PLACEMENT_3D('',#971,#972,#973);
#975=PLANE('',#974);
#976=DIRECTION('',(-1.000000,0.000000,0.000000));
#977=VECTOR('',#976,28.000000);
#978=LINE('',#31,#977);
#979=EDGE_CURVE('',#32,#34,#978,.T.);
#980=ORIENTED_EDGE('',*,*,#979,.T.);
#981=DIRECTION('',(0.000000,0.000000,1.000000));
#982=VECTOR('',#981,86.000000);
#983=LINE('',#33,#982);
#984=EDGE_CURVE('',#34,#74,#983,.T.);
#985=ORIENTED_EDGE('',*,*,#984,.T.);
#986=DIRECTION('',(0.309586,0.000000,-0.950871));
#987=VECTOR('',#986,90.443352);
#988=LINE('',#73,#987);
#989=EDGE_CURVE('',#74,#32,#988,.T.);
#990=ORIENTED_EDGE('',*,*,#989,.T.);
#991=EDGE_LOOP('',(#980,#985,#990));
#992=FACE_OUTER_BOUND('',#991,.T.);
#993=ADVANCED_FACE('',(#992),#975,.T.);
#994=CARTESIAN_POINT('',(0.000000,16.000000,-85.000000));
#995=DIRECTION('',(0.000000,1.000000,0.000000));
#996=DIRECTION('',(1.000000,0.000000,0.000000));
#997=AXIS2_PLACEMENT_3D('',#994,#995,#996);
#998=PLANE('',#997);
#999=DIRECTION('',(-0.309586,0.000000,0.950871));
#1000=VECTOR('',#999,90.443352);
#1001=LINE('',#31,#1000);
#1002=EDGE_CURVE('',#32,#74,#1001,.T.);
#1003=ORIENTED_EDGE('',*,*,#1002,.T.);
#1004=DIRECTION('',(1.000000,0.000000,0.000000));
#1005=VECTOR('',#1004,28.000000);
#1006=LINE('',#73,#1005);
#1007=EDGE_CURVE('',#74,#72,#1006,.T.);
#1008=ORIENTED_EDGE('',*,*,#1007,.T.);
#1009=DIRECTION('',(0.000000,0.000000,-1.000000));
#1010=VECTOR('',#1009,86.000000);
#1011=LINE('',#71,#1010);
#1012=EDGE_CURVE('',#72,#32,#1011,.T.);
#1013=ORIENTED_EDGE('',*,*,#1012,.T.);
#1014=EDGE_LOOP('',(#1003,#1008,#1013));
#1015=FACE_OUTER_BOUND('',#1014,.T.);
#1016=ADVANCED_FACE('',(#1015),#998,.T.);
#1017=CARTESIAN_POINT('',(-14.000000,0.000000,-85.000000));
#1018=DIRECTION('',(0.000000,0.000000,-1.000000));
#1019=DIRECTION('',(1.000000,0.000000,0.000000));
#1020=AXIS2_PLACEMENT_3D('',#1017,#1018,#1019);
#1021=PLANE('',#1020);
#1022=DIRECTION('',(-0.723624,0.690195,0.000000));
#1023=VECTOR('',#1022,22.520132);
#1024=LINE('',#93,#1023);
#1025=EDGE_CURVE('',#94,#36,#1024,.T.);
#1026=ORIENTED_EDGE('',*,*,#1025,.T.);
#1027=DIRECTION('',(0.980785,0.195090,0.000000));
#1028=VECTOR('',#1027,2.341084);
#1029=LINE('',#35,#1028);
#1030=EDGE_CURVE('',#36,#34,#1029,.T.);
#1031=ORIENTED_EDGE('',*,*,#1030,.T.);
#1032=DIRECTION('',(0.658505,-0.752577,0.000000));
#1033=VECTOR('',#1032,21.260292);
#1034=LINE('',#33,#1033);
#1035=EDGE_CURVE('',#34,#94,#1034,.T.);
#1036=ORIENTED_EDGE('',*,*,#1035,.T.);
#1037=EDGE_LOOP('',(#1026,#1031,#1036));
#1038=FACE_OUTER_BOUND('',#1037,.T.);
#1039=ADVANCED_FACE('',(#1038),#1021,.T.);
#1040=CARTESIAN_POINT('',(-14.000000,0.000000,1.000000));
#1041=DIRECTION('',(0.000000,0.000000,1.000000));
#1042=DIRECTION('',(1.000000,0.000000,0.000000));
#1043=AXIS2_PLACEMENT_3D('',#1040,#1041,#1042);
#1044=PLANE('',#1043);
#1045=DIRECTION('',(-0.658505,0.752577,0.000000));
#1046=VECTOR('',#1045,21.260292);
#1047=LINE('',#95,#1046);
#1048=EDGE_CURVE('',#96,#74,#1047,.T.);
#1049=ORIENTED_EDGE('',*,*,#1048,.T.);
#1050=DIRECTION('',(-0.980785,-0.195090,0.000000));
#1051=VECTOR('',#1050,2.341084);
#1052=LINE('',#73,#1051);
#1053=EDGE_CURVE('',#74,#76,#1052,.T.);
#1054=ORIENTED_EDGE('',*,*,#1053,.T.);
#1055=DIRECTION('',(0.723624,-0.690195,0.000000));
#1056=VECTOR('',#1055,22.520132);
#1057=LINE('',#75,#1056);
#1058=EDGE_CURVE('',#76,#96,#1057,.T.);
#1059=ORIENTED_EDGE('',*,*,#1058,.T.);
#1060=EDGE_LOOP('',(#1049,#1054,#1059));
#1061=FACE_OUTER_BOUND('',#1060,.T.);
#1062=ADVANCED_FACE('',(#1061),#1044,.T.);
#1063=CARTESIAN_POINT('',(-28.000000,16.000000,-85.000000));
#1064=DIRECTION('',(-0.195090,0.980785,0.000000));
#1065=DIRECTION('',(0.000000,0.000000,1.000000));
#1066=AXIS2_PLACEMENT_3D('',#1063,#1064,#1065);
#1067=PLANE('',#1066);
#1068=DIRECTION('',(-0.980785,-0.195090,0.000000));
#1069=VECTOR('',#1068,2.341084);
#1070=LINE('',#33,#1069);
#1071=EDGE_CURVE('',#34,#36,#1070,.T.);
#1072=ORIENTED_EDGE('',*,*,#1071,.T.);
#1073=DIRECTION('',(0.000000,0.000000,1.000000));
#1074=VECTOR('',#1073,86.000000);
#1075=LINE('',#35,#1074);
#1076=EDGE_CURVE('',#36,#76,#1075,.T.);
#1077=ORIENTED_EDGE('',*,*,#1076,.T.);
#1078=DIRECTION('',(0.026689,0.005309,-0.999630));
#1079=VECTOR('',#1078,86.031858);
#1080=LINE('',#75,#1079);
#1081=EDGE_CURVE('',#76,#34,#1080,.T.);
#1082=ORIENTED_EDGE('',*,*,#1081,.T.);
#1083=EDGE_LOOP('',(#1072,#1077,#1082));
#1084=FACE_OUTER_BOUND('',#1083,.T.);
#1085=ADVANCED_FACE('',(#1084),#1067,.T.);
#1086=CARTESIAN_POINT('',(-28.000000,16.000000,-85.000000));
#1087=DIRECTION('',(-0.195090,0.980785,0.000000));
#1088=DIRECTION('',(0.000000,0.000000,1.000000));
#1089=AXIS2_PLACEMENT_3D('',#1086,#1087,#1088);
#1090=PLANE('',#1089);
#1091=DIRECTION('',(-0.026689,-0.005309,0.999630));
#1092=VECTOR('',#1091,86.031858);
#1093=LINE('',#33,#1092);
#1094=EDGE_CURVE('',#34,#76,#1093,.T.);
#1095=ORIENTED_EDGE('',*,*,#1094,.T.);
#1096=DIRECTION('',(0.980785,0.195090,0.000000));
#1097=VECTOR('',#1096,2.341084);
#1098=LINE('',#75,#1097);
#1099=EDGE_CURVE('',#76,#74,#1098,.T.);
#1100=ORIENTED_EDGE('',*,*,#1099,.T.);
#1101=DIRECTION('',(0.000000,0.000000,-1.000000));
#1102=VECTOR('',#1101,86.000000);
#1103=LINE('',#73,#1102);
#1104=EDGE_CURVE('',#74,#34,#1103,.T.);
#1105=ORIENTED_EDGE('',*,*,#1104,.T.);
#1106=EDGE_LOOP('',(#1095,#1100,#1105));
#1107=FACE_OUTER_BOUND('',#1106,.T.);
#1108=ADVANCED_FACE('',(#1107),#1090,.T.);
#1109=CARTESIAN_POINT('',(-14.000000,0.000000,-85.000000));
#1110=DIRECTION('',(0.000000,0.000000,-1.000000));
#1111=DIRECTION('',(1.000000,0.000000,0.000000));
#1112=AXIS2_PLACEMENT_3D('',#1109,#1110,#1111);
#1113=PLANE('',#1112);
#1114=DIRECTION('',(-0.788222,0.615391,0.000000));
#1115=VECTOR('',#1114,23.144044);
#1116=LINE('',#93,#1115);
#1117=EDGE_CURVE('',#94,#38,#1116,.T.);
#1118=ORIENTED_EDGE('',*,*,#1117,.T.);
#1119=DIRECTION('',(0.831470,0.555570,0.000000));
#1120=VECTOR('',#1119,2.341084);
#1121=LINE('',#37,#1120);
#1122=EDGE_CURVE('',#38,#36,#1121,.T.);
#1123=ORIENTED_EDGE('',*,*,#1122,.T.);
#1124=DIRECTION('',(0.723624,-0.690195,0.000000));
#1125=VECTOR('',#1124,22.520132);
#1126=LINE('',#35,#1125);
#1127=EDGE_CURVE('',#36,#94,#1126,.T.);
#1128=ORIENTED_EDGE('',*,*,#1127,.T.);
#1129=EDGE_LOOP('',(#1118,#1123,#1128));
#1130=FACE_OUTER_BOUND('',#1129,.T.);
#1131=ADVANCED_FACE('',(#1130),#1113,.T.);
#1132=CARTESIAN_POINT('',(-14.000000,0.000000,1.000000));
#1133=DIRECTION('',(0.000000,0.000000,1.000000));
#1134=DIRECTION('',(1.000000,0.000000,0.000000));
#1135=AXIS2_PLACEMENT_3D('',#1132,#1133,#1134);
#1136=PLANE('',#1135);
#1137=DIRECTION('',(-0.723624,0.690195,0.000000));
#1138=VECTOR('',#1137,22.520132);
#1139=LINE('',#95,#1138);
#1140=EDGE_CURVE('',#96,#76,#1139,.T.);
#1141=ORIENTED_EDGE('',*,*,#1140,.T.);
#1142=DIRECTION('',(-0.831470,-0.555570,0.000000));
#1143=VECTOR('',#1142,2.341084);
#1144=LINE('',#75,#1143);
#1145=EDGE_CURVE('',#76,#78,#1144,.T.);
#1146=ORIENTED_EDGE('',*,*,#1145,.T.);
#1147=DIRECTION('',(0.788222,-0.615391,0.000000));
#1148=VECTOR('',#1147,23.144044);
#1149=LINE('',#77,#1148);
#1150=EDGE_CURVE('',#78,#96,#1149,.T.);
#1151=ORIENTED_EDGE('',*,*,#1150,.T.);
#1152=EDGE_LOOP('',(#1141,#1146,#1151));
#1153=FACE_OUTER_BOUND('',#1152,.T.);
#1154=ADVANCED_FACE('',(#1153),#1136,.T.);
#1155=CARTESIAN_POINT('',(-30.296101,15.543277,-85.000000));
#1156=DIRECTION('',(-0.555570,0.831470,0.000000));
#1157=DIRECTION('',(0.000000,0.000000,1.000000));
#1158=AXIS2_PLACEMENT_3D('',#1155,#1156,#1157);
#1159=PLANE('',#1158);
#1160=DIRECTION('',(-0.831470,-0.555570,0.000000));
#1161=VECTOR('',#1160,2.341084);
#1162=LINE('',#35,#1161);
#1163=EDGE_CURVE('',#36,#38,#1162,.T.);
#1164=ORIENTED_EDGE('',*,*,#1163,.T.);
#1165=DIRECTION('',(0.000000,0.000000,1.000000));
#1166=VECTOR('',#1165,86.000000);
#1167=LINE('',#37,#1166);
#1168=EDGE_CURVE('',#38,#78,#1167,.T.);
#1169=ORIENTED_EDGE('',*,*,#1168,.T.);
#1170=DIRECTION('',(0.022626,0.015118,-0.999630));
#1171=VECTOR('',#1170,86.031858);
#1172=LINE('',#77,#1171);
#1173=EDGE_CURVE('',#78,#36,#1172,.T.);
#1174=ORIENTED_EDGE('',*,*,#1173,.T.);
#1175=EDGE_LOOP('',(#1164,#1169,#1174));
#1176=FACE_OUTER_BOUND('',#1175,.T.);
#1177=ADVANCED_FACE('',(#1176),#1159,.T.);
#1178=CARTESIAN_POINT('',(-30.296101,15.543277,-85.000000));
#1179=DIRECTION('',(-0.555570,0.831470,0.000000));
#1180=DIRECTION('',(0.000000,0.000000,1.000000));
#1181=AXIS2_PLACEMENT_3D('',#1178,#1179,#1180);
#1182=PLANE('',#1181);
#1183=DIRECTION('',(-0.022626,-0.015118,0.999630));
#1184=VECTOR('',#1183,86.031858);
#1185=LINE('',#35,#1184);
#1186=EDGE_CURVE('',#36,#78,#1185,.T.);
#1187=ORIENTED_EDGE('',*,*,#1186,.T.);
#1188=DIRECTION('',(0.831470,0.555570,0.000000));
#1189=VECTOR('',#1188,2.341084);
#1190=LINE('',#77,#1189);
#1191=EDGE_CURVE('',#78,#76,#1190,.T.);
#1192=ORIENTED_EDGE('',*,*,#1191,.T.);
#1193=DIRECTION('',(0.000000,0.000000,-1.000000));
#1194=VECTOR('',#1193,86.000000);
#1195=LINE('',#75,#1194);
#1196=EDGE_CURVE('',#76,#36,#1195,.T.);
#1197=ORIENTED_EDGE('',*,*,#1196,.T.);
#1198=EDGE_LOOP('',(#1187,#1192,#1197));
#1199=FACE_OUTER_BOUND('',#1198,.T.);
#1200=ADVANCED_FACE('',(#1199),#1182,.T.);
#1201=CARTESIAN_POINT('',(-14.000000,0.000000,-85.000000));
#1202=DIRECTION('',(0.000000,0.000000,-1.000000));
#1203=DIRECTION('',(1.000000,0.000000,0.000000));
#1204=AXIS2_PLACEMENT_3D('',#1201,#1202,#1203);
#1205=PLANE('',#1204);
#1206=DIRECTION('',(-0.846407,0.532536,0.000000));
#1207=VECTOR('',#1206,23.089690);
#1208=LINE('',#93,#1207);
#1209=EDGE_CURVE('',#94,#40,#1208,.T.);
#1210=ORIENTED_EDGE('',*,*,#1209,.T.);
#1211=DIRECTION('',(0.555570,0.831470,0.000000));
#1212=VECTOR('',#1211,2.341084);
#1213=LINE('',#39,#1212);
#1214=EDGE_CURVE('',#40,#38,#1213,.T.);
#1215=ORIENTED_EDGE('',*,*,#1214,.T.);
#1216=DIRECTION('',(0.788222,-0.615391,0.000000));
#1217=VECTOR('',#1216,23.144044);
#1218=LINE('',#37,#1217);
#1219=EDGE_CURVE('',#38,#94,#1218,.T.);
#1220=ORIENTED_EDGE('',*,*,#1219,.T.);
#1221=EDGE_LOOP('',(#1210,#1215,#1220));
#1222=FACE_OUTER_BOUND('',#1221,.T.);
#1223=ADVANCED_FACE('',(#1222),#1205,.T.);
#1224=CARTESIAN_POINT('',(-14.000000,0.000000,1.000000));
#1225=DIRECTION('',(0.000000,0.000000,1.000000));
#1226=DIRECTION('',(1.000000,0.000000,0.000000));
#1227=AXIS2_PLACEMENT_3D('',#1224,#1225,#1226);
#1228=PLANE('',#1227);
#1229=DIRECTION('',(-0.788222,0.615391,0.000000));
#1230=VECTOR('',#1229,23.144044);
#1231=LINE('',#95,#1230);
#1232=EDGE_CURVE('',#96,#78,#1231,.T.);
#1233=ORIENTED_EDGE('',*,*,#1232,.T.);
#1234=DIRECTION('',(-0.555570,-0.831470,0.000000));
#1235=VECTOR('',#1234,2.341084);
#1236=LINE('',#77,#1235);
#1237=EDGE_CURVE('',#78,#80,#1236,.T.);
#1238=ORIENTED_EDGE('',*,*,#1237,.T.);
#1239=DIRECTION('',(0.846407,-0.532536,0.000000));
#1240=VECTOR('',#1239,23.089690);
#1241=LINE('',#79,#1240);
#1242=EDGE_CURVE('',#80,#96,#1241,.T.);
#1243=ORIENTED_EDGE('',*,*,#1242,.T.);
#1244=EDGE_LOOP('',(#1233,#1238,#1243));
#1245=FACE_OUTER_BOUND('',#1244,.T.);
#1246=ADVANCED_FACE('',(#1245),#1228,.T.);
#1247=CARTESIAN_POINT('',(-32.242641,14.242641,-85.000000));
#1248=DIRECTION('',(-0.831470,0.555570,0.000000));
#1249=DIRECTION('',(0.000000,0.000000,1.000000));
#1250=AXIS2_PLACEMENT_3D('',#1247,#1248,#1249);
#1251=PLANE('',#1250);
#1252=DIRECTION('',(-0.555570,-0.831470,0.000000));
#1253=VECTOR('',#1252,2.341084);
#1254=LINE('',#37,#1253);
#1255=EDGE_CURVE('',#38,#40,#1254,.T.);
#1256=ORIENTED_EDGE('',*,*,#1255,.T.);
#1257=DIRECTION('',(0.000000,0.000000,1.000000));
#1258=VECTOR('',#1257,86.000000);
#1259=LINE('',#39,#1258);
#1260=EDGE_CURVE('',#40,#80,#1259,.T.);
#1261=ORIENTED_EDGE('',*,*,#1260,.T.);
#1262=DIRECTION('',(0.015118,0.022626,-0.999630));
#1263=VECTOR('',#1262,86.031858);
#1264=LINE('',#79,#1263);
#1265=EDGE_CURVE('',#80,#38,#1264,.T.);
#1266=ORIENTED_EDGE('',*,*,#1265,.T.);
#1267=EDGE_LOOP('',(#1256,#1261,#1266));
#1268=FACE_OUTER_BOUND('',#1267,.T.);
#1269=ADVANCED_FACE('',(#1268),#1251,.T.);
#1270=CARTESIAN_POINT('',(-32.242641,14.242641,-85.000000));
#1271=DIRECTION('',(-0.831470,0.555570,0.000000));
#1272=DIRECTION('',(0.000000,0.000000,1.000000));
#1273=AXIS2_PLACEMENT_3D('',#1270,#1271,#1272);
#1274=PLANE('',#1273);
#1275=DIRECTION('',(-0.015118,-0.022626,0.999630));
#1276=VECTOR('',#1275,86.031858);
#1277=LINE('',#37,#1276);
#1278=EDGE_CURVE('',#38,#80,#1277,.T.);
#1279=ORIENTED_EDGE('',*,*,#1278,.T.);
#1280=DIRECTION('',(0.555570,0.831470,0.000000));
#1281=VECTOR('',#1280,2.341084);
#1282=LINE('',#79,#1281);
#1283=EDGE_CURVE('',#80,#78,#1282,.T.);
#1284=ORIENTED_EDGE('',*,*,#1283,.T.);
#1285=DIRECTION('',(0.000000,0.000000,-1.000000));
#1286=VECTOR('',#1285,86.000000);
#1287=LINE('',#77,#1286);
#1288=EDGE_CURVE('',#78,#38,#1287,.T.);
#1289=ORIENTED_EDGE('',*,*,#1288,.T.);
#1290=EDGE_LOOP('',(#1279,#1284,#1289));
#1291=FACE_OUTER_BOUND('',#1290,.T.);
#1292=ADVANCED_FACE('',(#1291),#1274,.T.);
#1293=CARTESIAN_POINT('',(-14.000000,0.000000,-85.000000));
#1294=DIRECTION('',(0.000000,0.000000,-1.000000));
#1295=DIRECTION('',(1.000000,0.000000,0.000000));
#1296=AXIS2_PLACEMENT_3D('',#1293,#1294,#1295);
#1297=PLANE('',#1296);
#1298=DIRECTION('',(-0.894427,0.447214,0.000000));
#1299=VECTOR('',#1298,22.360680);
#1300=LINE('',#93,#1299);
#1301=EDGE_CURVE('',#94,#42,#1300,.T.);
#1302=ORIENTED_EDGE('',*,*,#1301,.T.);
#1303=DIRECTION('',(0.195090,0.980785,0.000000));
#1304=VECTOR('',#1303,2.341084);
#1305=LINE('',#41,#1304);
#1306=EDGE_CURVE('',#42,#40,#1305,.T.);
#1307=ORIENTED_EDGE('',*,*,#1306,.T.);
#1308=DIRECTION('',(0.846407,-0.532536,0.000000));
#1309=VECTOR('',#1308,23.089690);
#1310=LINE('',#39,#1309);
#1311=EDGE_CURVE('',#40,#94,#1310,.T.);
#1312=ORIENTED_EDGE('',*,*,#1311,.T.);
#1313=EDGE_LOOP('',(#1302,#1307,#1312));
#1314=FACE_OUTER_BOUND('',#1313,.T.);
#1315=ADVANCED_FACE('',(#1314),#1297,.T.);
#1316=CARTESIAN_POINT('',(-14.000000,0.000000,1.000000));
#1317=DIRECTION('',(0.000000,0.000000,1.000000));
#1318=DIRECTION('',(1.000000,0.000000,0.000000));
#1319=AXIS2_PLACEMENT_3D('',#1316,#1317,#1318);
#1320=PLANE('',#1319);
#1321=DIRECTION('',(-0.846407,0.532536,0.000000));
#1322=VECTOR('',#1321,23.089690);
#1323=LINE('',#95,#1322);
#1324=EDGE_CURVE('',#96,#80,#1323,.T.);
#1325=ORIENTED_EDGE('',*,*,#1324,.T.);
#1326=DIRECTION('',(-0.195090,-0.980785,0.000000));
#1327=VECTOR('',#1326,2.341084);
#1328=LINE('',#79,#1327);
#1329=EDGE_CURVE('',#80,#82,#1328,.T.);
#1330=ORIENTED_EDGE('',*,*,#1329,.T.);
#1331=DIRECTION('',(0.894427,-0.447214,0.000000));
#1332=VECTOR('',#1331,22.360680);
#1333=LINE('',#81,#1332);
#1334=EDGE_CURVE('',#82,#96,#1333,.T.);
#1335=ORIENTED_EDGE('',*,*,#1334,.T.);
#1336=EDGE_LOOP('',(#1325,#1330,#1335));
#1337=FACE_OUTER_BOUND('',#1336,.T.);
#1338=ADVANCED_FACE('',(#1337),#1320,.T.);
#1339=CARTESIAN_POINT('',(-33.543277,12.296101,-85.000000));
#1340=DIRECTION('',(-0.980785,0.195090,0.000000));
#1341=DIRECTION('',(0.000000,0.000000,1.000000));
#1342=AXIS2_PLACEMENT_3D('',#1339,#1340,#1341);
#1343=PLANE('',#1342);
#1344=DIRECTION('',(-0.195090,-0.980785,0.000000));
#1345=VECTOR('',#1344,2.341084);
#1346=LINE('',#39,#1345);
#1347=EDGE_CURVE('',#40,#42,#1346,.T.);
#1348=ORIENTED_EDGE('',*,*,#1347,.T.);
#1349=DIRECTION('',(0.000000,0.000000,1.000000));
#1350=VECTOR('',#1349,86.000000);
#1351=LINE('',#41,#1350);
#1352=EDGE_CURVE('',#42,#82,#1351,.T.);
#1353=ORIENTED_EDGE('',*,*,#1352,.T.);
#1354=DIRECTION('',(0.005309,0.026689,-0.999630));
#1355=VECTOR('',#1354,86.031858);
#1356=LINE('',#81,#1355);
#1357=EDGE_CURVE('',#82,#40,#1356,.T.);
#1358=ORIENTED_EDGE('',*,*,#1357,.T.);
#1359=EDGE_LOOP('',(#1348,#1353,#1358));
#1360=FACE_OUTER_BOUND('',#1359,.T.);
#1361=ADVANCED_FACE('',(#1360),#1343,.T.);
#1362=CARTESIAN_POINT('',(-33.543277,12.296101,-85.000000));
#1363=DIRECTION('',(-0.980785,0.195090,0.000000));
#1364=DIRECTION('',(0.000000,0.000000,1.000000));
#1365=AXIS2_PLACEMENT_3D('',#1362,#1363,#1364);
#1366=PLANE('',#1365);
#1367=DIRECTION('',(-0.005309,-0.026689,0.999630));
#1368=VECTOR('',#1367,86.031858);
#1369=LINE('',#39,#1368);
#1370=EDGE_CURVE('',#40,#82,#1369,.T.);
#1371=ORIENTED_EDGE('',*,*,#1370,.T.);
#1372=DIRECTION('',(0.195090,0.980785,0.000000));
#1373=VECTOR('',#1372,2.341084);
#1374=LINE('',#81,#1373);
#1375=EDGE_CURVE('',#82,#80,#1374,.T.);
#1376=ORIENTED_EDGE('',*,*,#1375,.T.);
#1377=DIRECTION('',(0.000000,0.000000,-1.000000));
#1378=VECTOR('',#1377,86.000000);
#1379=LINE('',#79,#1378);
#1380=EDGE_CURVE('',#80,#40,#1379,.T.);
#1381=ORIENTED_EDGE('',*,*,#1380,.T.);
#1382=EDGE_LOOP('',(#1371,#1376,#1381));
#1383=FACE_OUTER_BOUND('',#1382,.T.);
#1384=ADVANCED_FACE('',(#1383),#1366,.T.);
#1385=CARTESIAN_POINT('',(-14.000000,0.000000,-85.000000));
#1386=DIRECTION('',(0.000000,0.000000,-1.000000));
#1387=DIRECTION('',(1.000000,0.000000,0.000000));
#1388=AXIS2_PLACEMENT_3D('',#1385,#1386,#1387);
#1389=PLANE('',#1388);
#1390=DIRECTION('',(-0.894427,-0.447214,0.000000));
#1391=VECTOR('',#1390,22.360680);
#1392=LINE('',#93,#1391);
#1393=EDGE_CURVE('',#94,#44,#1392,.T.);
#1394=ORIENTED_EDGE('',*,*,#1393,.T.);
#1395=DIRECTION('',(0.000000,1.000000,0.000000));
#1396=VECTOR('',#1395,20.000000);
#1397=LINE('',#43,#1396);
#1398=EDGE_CURVE('',#44,#42,#1397,.T.);
#1399=ORIENTED_EDGE('',*,*,#1398,.T.);
#1400=DIRECTION('',(0.894427,-0.447214,0.000000));
#1401=VECTOR('',#1400,22.360680);
#1402=LINE('',#41,#1401);
#1403=EDGE_CURVE('',#42,#94,#1402,.T.);
#1404=ORIENTED_EDGE('',*,*,#1403,.T.);
#1405=EDGE_LOOP('',(#1394,#1399,#1404));
#1406=FACE_OUTER_BOUND('',#1405,.T.);
#1407=ADVANCED_FACE('',(#1406),#1389,.T.);
#1408=CARTESIAN_POINT('',(-14.000000,0.000000,1.000000));
#1409=DIRECTION('',(0.000000,0.000000,1.000000));
#1410=DIRECTION('',(1.000000,0.000000,0.000000));
#1411=AXIS2_PLACEMENT_3D('',#1408,#1409,#1410);
#1412=PLANE('',#1411);
#1413=DIRECTION('',(-0.894427,0.447214,0.000000));
#1414=VECTOR('',#1413,22.360680);
#1415=LINE('',#95,#1414);
#1416=EDGE_CURVE('',#96,#82,#1415,.T.);
#1417=ORIENTED_EDGE('',*,*,#1416,.T.);
#1418=DIRECTION('',(0.000000,-1.000000,0.000000));
#1419=VECTOR('',#1418,20.000000);
#1420=LINE('',#81,#1419);
#1421=EDGE_CURVE('',#82,#84,#1420,.T.);
#1422=ORIENTED_EDGE('',*,*,#1421,.T.);
#1423=DIRECTION('',(0.894427,0.447214,0.000000));
#1424=VECTOR('',#1423,22.360680);
#1425=LINE('',#83,#1424);
#1426=EDGE_CURVE('',#84,#96,#1425,.T.);
#1427=ORIENTED_EDGE('',*,*,#1426,.T.);
#1428=EDGE_LOOP('',(#1417,#1422,#1427));
#1429=FACE_OUTER_BOUND('',#1428,.T.);
#1430=ADVANCED_FACE('',(#1429),#1412,.T.);
#1431=CARTESIAN_POINT('',(-34.000000,10.000000,-85.000000));
#1432=DIRECTION('',(-1.000000,0.000000,0.000000));
#1433=DIRECTION('',(0.000000,1.000000,0.000000));
#1434=AXIS2_PLACEMENT_3D('',#1431,#1432,#1433);
#1435=PLANE('',#1434);
#1436=DIRECTION('',(0.000000,-1.000000,0.000000));
#1437=VECTOR('',#1436,20.000000);
#1438=LINE('',#41,#1437);
#1439=EDGE_CURVE('',#42,#44,#1438,.T.);
#1440=ORIENTED_EDGE('',*,*,#1439,.T.);
#1441=DIRECTION('',(0.000000,0.000000,1.000000));
#1442=VECTOR('',#1441,86.000000);
#1443=LINE('',#43,#1442);
#1444=EDGE_CURVE('',#44,#84,#1443,.T.);
#1445=ORIENTED_EDGE('',*,*,#1444,.T.);
#1446=DIRECTION('',(0.000000,0.226513,-0.974008));
#1447=VECTOR('',#1446,88.294960);
#1448=LINE('',#83,#1447);
#1449=EDGE_CURVE('',#84,#42,#1448,.T.);
#1450=ORIENTED_EDGE('',*,*,#1449,.T.);
#1451=EDGE_LOOP('',(#1440,#1445,#1450));
#1452=FACE_OUTER_BOUND('',#1451,.T.);
#1453=ADVANCED_FACE('',(#1452),#1435,.T.);
#1454=CARTESIAN_POINT('',(-34.000000,10.000000,-85.000000));
#1455=DIRECTION('',(-1.000000,0.000000,0.000000));
#1456=DIRECTION('',(0.000000,1.000000,0.000000));
#1457=AXIS2_PLACEMENT_3D('',#1454,#1455,#1456);
#1458=PLANE('',#1457);
#1459=DIRECTION('',(0.000000,-0.226513,0.974008));
#1460=VECTOR('',#1459,88.294960);
#1461=LINE('',#41,#1460);
#1462=EDGE_CURVE('',#42,#84,#1461,.T.);
#1463=ORIENTED_EDGE('',*,*,#1462,.T.);
#1464=DIRECTION('',(0.000000,1.000000,0.000000));
#1465=VECTOR('',#1464,20.000000);
#1466=LINE('',#83,#1465);
#1467=EDGE_CURVE('',#84,#82,#1466,.T.);
#1468=ORIENTED_EDGE('',*,*,#1467,.T.);
#1469=DIRECTION('',(0.000000,0.000000,-1.000000));
#1470=VECTOR('',#1469,86.000000);
#1471=LINE('',#81,#1470);
#1472=EDGE_CURVE('',#82,#42,#1471,.T.);
#1473=ORIENTED_EDGE('',*,*,#1472,.T.);
#1474=EDGE_LOOP('',(#1463,#1468,#1473));
#1475=FACE_OUTER_BOUND('',#1474,.T.);
#1476=ADVANCED_FACE('',(#1475),#1458,.T.);
#1477=CARTESIAN_POINT('',(-14.000000,0.000000,-85.000000));
#1478=DIRECTION('',(0.000000,0.000000,-1.000000));
#1479=DIRECTION('',(1.000000,0.000000,0.000000));
#1480=AXIS2_PLACEMENT_3D('',#1477,#1478,#1479);
#1481=PLANE('',#1480);
#1482=DIRECTION('',(-0.846407,-0.532536,0.000000));
#1483=VECTOR('',#1482,23.089690);
#1484=LINE('',#93,#1483);
#1485=EDGE_CURVE('',#94,#46,#1484,.T.);
#1486=ORIENTED_EDGE('',*,*,#1485,.T.);
#1487=DIRECTION('',(-0.195090,0.980785,0.000000));
#1488=VECTOR('',#1487,2.341084);
#1489=LINE('',#45,#1488);
#1490=EDGE_CURVE('',#46,#44,#1489,.T.);
#1491=ORIENTED_EDGE('',*,*,#1490,.T.);
#1492=DIRECTION('',(0.894427,0.447214,0.000000));
#1493=VECTOR('',#1492,22.360680);
#1494=LINE('',#43,#1493);
#1495=EDGE_CURVE('',#44,#94,#1494,.T.);
#1496=ORIENTED_EDGE('',*,*,#1495,.T.);
#1497=EDGE_LOOP('',(#1486,#1491,#1496));
#1498=FACE_OUTER_BOUND('',#1497,.T.);
#1499=ADVANCED_FACE('',(#1498),#1481,.T.);
#1500=CARTESIAN_POINT('',(-14.000000,0.000000,1.000000));
#1501=DIRECTION('',(0.000000,0.000000,1.000000));
#1502=DIRECTION('',(1.000000,0.000000,0.000000));
#1503=AXIS2_PLACEMENT_3D('',#1500,#1501,#1502);
#1504=PLANE('',#1503);
#1505=DIRECTION('',(-0.894427,-0.447214,0.000000));
#1506=VECTOR('',#1505,22.360680);
#1507=LINE('',#95,#1506);
#1508=EDGE_CURVE('',#96,#84,#1507,.T.);
#1509=ORIENTED_EDGE('',*,*,#1508,.T.);
#1510=DIRECTION('',(0.195090,-0.980785,0.000000));
#1511=VECTOR('',#1510,2.341084);
#1512=LINE('',#83,#1511);
#1513=EDGE_CURVE('',#84,#86,#1512,.T.);
#1514=ORIENTED_EDGE('',*,*,#1513,.T.);
#1515=DIRECTION('',(0.846407,0.532536,0.000000));
#1516=VECTOR('',#1515,23.089690);
#1517=LINE('',#85,#1516);
#1518=EDGE_CURVE('',#86,#96,#1517,.T.);
#1519=ORIENTED_EDGE('',*,*,#1518,.T.);
#1520=EDGE_LOOP('',(#1509,#1514,#1519));
#1521=FACE_OUTER_BOUND('',#1520,.T.);
#1522=ADVANCED_FACE('',(#1521),#1504,.T.);
#1523=CARTESIAN_POINT('',(-34.000000,-10.000000,-85.000000));
#1524=DIRECTION('',(-0.980785,-0.195090,0.000000));
#1525=DIRECTION('',(0.000000,0.000000,1.000000));
#1526=AXIS2_PLACEMENT_3D('',#1523,#1524,#1525);
#1527=PLANE('',#1526);
#1528=DIRECTION('',(0.195090,-0.980785,0.000000));
#1529=VECTOR('',#1528,2.341084);
#1530=LINE('',#43,#1529);
#1531=EDGE_CURVE('',#44,#46,#1530,.T.);
#1532=ORIENTED_EDGE('',*,*,#1531,.T.);
#1533=DIRECTION('',(0.000000,0.000000,1.000000));
#1534=VECTOR('',#1533,86.000000);
#1535=LINE('',#45,#1534);
#1536=EDGE_CURVE('',#46,#86,#1535,.T.);
#1537=ORIENTED_EDGE('',*,*,#1536,.T.);
#1538=DIRECTION('',(-0.005309,0.026689,-0.999630));
#1539=VECTOR('',#1538,86.031858);
#1540=LINE('',#85,#1539);
#1541=EDGE_CURVE('',#86,#44,#1540,.T.);
#1542=ORIENTED_EDGE('',*,*,#1541,.T.);
#1543=EDGE_LOOP('',(#1532,#1537,#1542));
#1544=FACE_OUTER_BOUND('',#1543,.T.);
#1545=ADVANCED_FACE('',(#1544),#1527,.T.);
#1546=CARTESIAN_POINT('',(-34.000000,-10.000000,-85.000000));
#1547=DIRECTION('',(-0.980785,-0.195090,0.000000));
#1548=DIRECTION('',(0.000000,0.000000,1.000000));
#1549=AXIS2_PLACEMENT_3D('',#1546,#1547,#1548);
#1550=PLANE('',#1549);
#1551=DIRECTION('',(0.005309,-0.026689,0.999630));
#1552=VECTOR('',#1551,86.031858);
#1553=LINE('',#43,#1552);
#1554=EDGE_CURVE('',#44,#86,#1553,.T.);
#1555=ORIENTED_EDGE('',*,*,#1554,.T.);
#1556=DIRECTION('',(-0.195090,0.980785,0.000000));
#1557=VECTOR('',#1556,2.341084);
#1558=LINE('',#85,#1557);
#1559=EDGE_CURVE('',#86,#84,#1558,.T.);
#1560=ORIENTED_EDGE('',*,*,#1559,.T.);
#1561=DIRECTION('',(0.000000,0.000000,-1.000000));
#1562=VECTOR('',#1561,86.000000);
#1563=LINE('',#83,#1562);
#1564=EDGE_CURVE('',#84,#44,#1563,.T.);
#1565=ORIENTED_EDGE('',*,*,#1564,.T.);
#1566=EDGE_LOOP('',(#1555,#1560,#1565));
#1567=FACE_OUTER_BOUND('',#1566,.T.);
#1568=ADVANCED_FACE('',(#1567),#1550,.T.);
#1569=CARTESIAN_POINT('',(-14.000000,0.000000,-85.000000));
#1570=DIRECTION('',(0.000000,0.000000,-1.000000));
#1571=DIRECTION('',(1.000000,0.000000,0.000000));
#1572=AXIS2_PLACEMENT_3D('',#1569,#1570,#1571);
#1573=PLANE('',#1572);
#1574=DIRECTION('',(-0.788222,-0.615391,0.000000));
#1575=VECTOR('',#1574,23.144044);
#1576=LINE('',#93,#1575);
#1577=EDGE_CURVE('',#94,#48,#1576,.T.);
#1578=ORIENTED_EDGE('',*,*,#1577,.T.);
#1579=DIRECTION('',(-0.555570,0.831470,0.000000));
#1580=VECTOR('',#1579,2.341084);
#1581=LINE('',#47,#1580);
#1582=EDGE_CURVE('',#48,#46,#1581,.T.);
#1583=ORIENTED_EDGE('',*,*,#1582,.T.);
#1584=DIRECTION('',(0.846407,0.532536,0.000000));
#1585=VECTOR('',#1584,23.089690);
#1586=LINE('',#45,#1585);
#1587=EDGE_CURVE('',#46,#94,#1586,.T.);
#1588=ORIENTED_EDGE('',*,*,#1587,.T.);
#1589=EDGE_LOOP('',(#1578,#1583,#1588));
#1590=FACE_OUTER_BOUND('',#1589,.T.);
#1591=ADVANCED_FACE('',(#1590),#1573,.T.);
#1592=CARTESIAN_POINT('',(-14.000000,0.000000,1.000000));
#1593=DIRECTION('',(0.000000,0.000000,1.000000));
#1594=DIRECTION('',(1.000000,0.000000,0.000000));
#1595=AXIS2_PLACEMENT_3D('',#1592,#1593,#1594);
#1596=PLANE('',#1595);
#1597=DIRECTION('',(-0.846407,-0.532536,0.000000));
#1598=VECTOR('',#1597,23.089690);
#1599=LINE('',#95,#1598);
#1600=EDGE_CURVE('',#96,#86,#1599,.T.);
#1601=ORIENTED_EDGE('',*,*,#1600,.T.);
#1602=DIRECTION('',(0.555570,-0.831470,0.000000));
#1603=VECTOR('',#1602,2.341084);
#1604=LINE('',#85,#1603);
#1605=EDGE_CURVE('',#86,#88,#1604,.T.);
#1606=ORIENTED_EDGE('',*,*,#1605,.T.);
#1607=DIRECTION('',(0.788222,0.615391,0.000000));
#1608=VECTOR('',#1607,23.144044);
#1609=LINE('',#87,#1608);
#1610=EDGE_CURVE('',#88,#96,#1609,.T.);
#1611=ORIENTED_EDGE('',*,*,#1610,.T.);
#1612=EDGE_LOOP('',(#1601,#1606,#1611));
#1613=FACE_OUTER_BOUND('',#1612,.T.);
#1614=ADVANCED_FACE('',(#1613),#1596,.T.);
#1615=CARTESIAN_POINT('',(-33.543277,-12.296101,-85.000000));
#1616=DIRECTION('',(-0.831470,-0.555570,0.000000));
#1617=DIRECTION('',(0.000000,0.000000,1.000000));
#1618=AXIS2_PLACEMENT_3D('',#1615,#1616,#1617);
#1619=PLANE('',#1618);
#1620=DIRECTION('',(0.555570,-0.831470,0.000000));
#1621=VECTOR('',#1620,2.341084);
#1622=LINE('',#45,#1621);
#1623=EDGE_CURVE('',#46,#48,#1622,.T.);
#1624=ORIENTED_EDGE('',*,*,#1623,.T.);
#1625=DIRECTION('',(0.000000,0.000000,1.000000));
#1626=VECTOR('',#1625,86.000000);
#1627=LINE('',#47,#1626);
#1628=EDGE_CURVE('',#48,#88,#1627,.T.);
#1629=ORIENTED_EDGE('',*,*,#1628,.T.);
#1630=DIRECTION('',(-0.015118,0.022626,-0.999630));
#1631=VECTOR('',#1630,86.031858);
#1632=LINE('',#87,#1631);
#1633=EDGE_CURVE('',#88,#46,#1632,.T.);
#1634=ORIENTED_EDGE('',*,*,#1633,.T.);
#1635=EDGE_LOOP('',(#1624,#1629,#1634));
#1636=FACE_OUTER_BOUND('',#1635,.T.);
#1637=ADVANCED_FACE('',(#1636),#1619,.T.);
#1638=CARTESIAN_POINT('',(-33.543277,-12.296101,-85.000000));
#1639=DIRECTION('',(-0.831470,-0.555570,0.000000));
#1640=DIRECTION('',(0.000000,0.000000,1.000000));
#1641=AXIS2_PLACEMENT_3D('',#1638,#1639,#1640);
#1642=PLANE('',#1641);
#1643=DIRECTION('',(0.015118,-0.022626,0.999630));
#1644=VECTOR('',#1643,86.031858);
#1645=LINE('',#45,#1644);
#1646=EDGE_CURVE('',#46,#88,#1645,.T.);
#1647=ORIENTED_EDGE('',*,*,#1646,.T.);
#1648=DIRECTION('',(-0.555570,0.831470,0.000000));
#1649=VECTOR('',#1648,2.341084);
#1650=LINE('',#87,#1649);
#1651=EDGE_CURVE('',#88,#86,#1650,.T.);
#1652=ORIENTED_EDGE('',*,*,#1651,.T.);
#1653=DIRECTION('',(0.000000,0.000000,-1.000000));
#1654=VECTOR('',#1653,86.000000);
#1655=LINE('',#85,#1654);
#1656=EDGE_CURVE('',#86,#46,#1655,.T.);
#1657=ORIENTED_EDGE('',*,*,#1656,.T.);
#1658=EDGE_LOOP('',(#1647,#1652,#1657));
#1659=FACE_OUTER_BOUND('',#1658,.T.);
#1660=ADVANCED_FACE('',(#1659),#1642,.T.);
#1661=CARTESIAN_POINT('',(-14.000000,0.000000,-85.000000));
#1662=DIRECTION('',(0.000000,0.000000,-1.000000));
#1663=DIRECTION('',(1.000000,0.000000,0.000000));
#1664=AXIS2_PLACEMENT_3D('',#1661,#1662,#1663);
#1665=PLANE('',#1664);
#1666=DIRECTION('',(-0.723624,-0.690195,0.000000));
#1667=VECTOR('',#1666,22.520132);
#1668=LINE('',#93,#1667);
#1669=EDGE_CURVE('',#94,#50,#1668,.T.);
#1670=ORIENTED_EDGE('',*,*,#1669,.T.);
#1671=DIRECTION('',(-0.831470,0.555570,0.000000));
#1672=VECTOR('',#1671,2.341084);
#1673=LINE('',#49,#1672);
#1674=EDGE_CURVE('',#50,#48,#1673,.T.);
#1675=ORIENTED_EDGE('',*,*,#1674,.T.);
#1676=DIRECTION('',(0.788222,0.615391,0.000000));
#1677=VECTOR('',#1676,23.144044);
#1678=LINE('',#47,#1677);
#1679=EDGE_CURVE('',#48,#94,#1678,.T.);
#1680=ORIENTED_EDGE('',*,*,#1679,.T.);
#1681=EDGE_LOOP('',(#1670,#1675,#1680));
#1682=FACE_OUTER_BOUND('',#1681,.T.);
#1683=ADVANCED_FACE('',(#1682),#1665,.T.);
#1684=CARTESIAN_POINT('',(-14.000000,0.000000,1.000000));
#1685=DIRECTION('',(0.000000,0.000000,1.000000));
#1686=DIRECTION('',(1.000000,0.000000,0.000000));
#1687=AXIS2_PLACEMENT_3D('',#1684,#1685,#1686);
#1688=PLANE('',#1687);
#1689=DIRECTION('',(-0.788222,-0.615391,0.000000));
#1690=VECTOR('',#1689,23.144044);
#1691=LINE('',#95,#1690);
#1692=EDGE_CURVE('',#96,#88,#1691,.T.);
#1693=ORIENTED_EDGE('',*,*,#1692,.T.);
#1694=DIRECTION('',(0.831470,-0.555570,0.000000));
#1695=VECTOR('',#1694,2.341084);
#1696=LINE('',#87,#1695);
#1697=EDGE_CURVE('',#88,#90,#1696,.T.);
#1698=ORIENTED_EDGE('',*,*,#1697,.T.);
#1699=DIRECTION('',(0.723624,0.690195,0.000000));
#1700=VECTOR('',#1699,22.520132);
#1701=LINE('',#89,#1700);
#1702=EDGE_CURVE('',#90,#96,#1701,.T.);
#1703=ORIENTED_EDGE('',*,*,#1702,.T.);
#1704=EDGE_LOOP('',(#1693,#1698,#1703));
#1705=FACE_OUTER_BOUND('',#1704,.T.);
#1706=ADVANCED_FACE('',(#1705),#1688,.T.);
#1707=CARTESIAN_POINT('',(-32.242641,-14.242641,-85.000000));
#1708=DIRECTION('',(-0.555570,-0.831470,0.000000));
#1709=DIRECTION('',(0.000000,0.000000,1.000000));
#1710=AXIS2_PLACEMENT_3D('',#1707,#1708,#1709);
#1711=PLANE('',#1710);
#1712=DIRECTION('',(0.831470,-0.555570,0.000000));
#1713=VECTOR('',#1712,2.341084);
#1714=LINE('',#47,#1713);
#1715=EDGE_CURVE('',#48,#50,#1714,.T.);
#1716=ORIENTED_EDGE('',*,*,#1715,.T.);
#1717=DIRECTION('',(0.000000,0.000000,1.000000));
#1718=VECTOR('',#1717,86.000000);
#1719=LINE('',#49,#1718);
#1720=EDGE_CURVE('',#50,#90,#1719,.T.);
#1721=ORIENTED_EDGE('',*,*,#1720,.T.);
#1722=DIRECTION('',(-0.022626,0.015118,-0.999630));
#1723=VECTOR('',#1722,86.031858);
#1724=LINE('',#89,#1723);
#1725=EDGE_CURVE('',#90,#48,#1724,.T.);
#1726=ORIENTED_EDGE('',*,*,#1725,.T.);
#1727=EDGE_LOOP('',(#1716,#1721,#1726));
#1728=FACE_OUTER_BOUND('',#1727,.T.);
#1729=ADVANCED_FACE('',(#1728),#1711,.T.);
#1730=CARTESIAN_POINT('',(-32.242641,-14.242641,-85.000000));
#1731=DIRECTION('',(-0.555570,-0.831470,0.000000));
#1732=DIRECTION('',(0.000000,0.000000,1.000000));
#1733=AXIS2_PLACEMENT_3D('',#1730,#1731,#1732);
#1734=PLANE('',#1733);
#1735=DIRECTION('',(0.022626,-0.015118,0.999630));
#1736=VECTOR('',#1735,86.031858);
#1737=LINE('',#47,#1736);
#1738=EDGE_CURVE('',#48,#90,#1737,.T.);
#1739=ORIENTED_EDGE('',*,*,#1738,.T.);
#1740=DIRECTION('',(-0.831470,0.555570,0.000000));
#1741=VECTOR('',#1740,2.341084);
#1742=LINE('',#89,#1741);
#1743=EDGE_CURVE('',#90,#88,#1742,.T.);
#1744=ORIENTED_EDGE('',*,*,#1743,.T.);
#1745=DIRECTION('',(0.000000,0.000000,-1.000000));
#1746=VECTOR('',#1745,86.000000);
#1747=LINE('',#87,#1746);
#1748=EDGE_CURVE('',#88,#48,#1747,.T.);
#1749=ORIENTED_EDGE('',*,*,#1748,.T.);
#1750=EDGE_LOOP('',(#1739,#1744,#1749));
#1751=FACE_OUTER_BOUND('',#1750,.T.);
#1752=ADVANCED_FACE('',(#1751),#1734,.T.);
#1753=CARTESIAN_POINT('',(-14.000000,0.000000,-85.000000));
#1754=DIRECTION('',(0.000000,0.000000,-1.000000));
#1755=DIRECTION('',(1.000000,0.000000,0.000000));
#1756=AXIS2_PLACEMENT_3D('',#1753,#1754,#1755);
#1757=PLANE('',#1756);
#1758=DIRECTION('',(-0.658505,-0.752577,0.000000));
#1759=VECTOR('',#1758,21.260292);
#1760=LINE('',#93,#1759);
#1761=EDGE_CURVE('',#94,#52,#1760,.T.);
#1762=ORIENTED_EDGE('',*,*,#1761,.T.);
#1763=DIRECTION('',(-0.980785,0.195090,0.000000));
#1764=VECTOR('',#1763,2.341084);
#1765=LINE('',#51,#1764);
#1766=EDGE_CURVE('',#52,#50,#1765,.T.);
#1767=ORIENTED_EDGE('',*,*,#1766,.T.);
#1768=DIRECTION('',(0.723624,0.690195,0.000000));
#1769=VECTOR('',#1768,22.520132);
#1770=LINE('',#49,#1769);
#1771=EDGE_CURVE('',#50,#94,#1770,.T.);
#1772=ORIENTED_EDGE('',*,*,#1771,.T.);
#1773=EDGE_LOOP('',(#1762,#1767,#1772));
#1774=FACE_OUTER_BOUND('',#1773,.T.);
#1775=ADVANCED_FACE('',(#1774),#1757,.T.);
#1776=CARTESIAN_POINT('',(-14.000000,0.000000,1.000000));
#1777=DIRECTION('',(0.000000,0.000000,1.000000));
#1778=DIRECTION('',(1.000000,0.000000,0.000000));
#1779=AXIS2_PLACEMENT_3D('',#1776,#1777,#1778);
#1780=PLANE('',#1779);
#1781=DIRECTION('',(-0.723624,-0.690195,0.000000));
#1782=VECTOR('',#1781,22.520132);
#1783=LINE('',#95,#1782);
#1784=EDGE_CURVE('',#96,#90,#1783,.T.);
#1785=ORIENTED_EDGE('',*,*,#1784,.T.);
#1786=DIRECTION('',(0.980785,-0.195090,0.000000));
#1787=VECTOR('',#1786,2.341084);
#1788=LINE('',#89,#1787);
#1789=EDGE_CURVE('',#90,#92,#1788,.T.);
#1790=ORIENTED_EDGE('',*,*,#1789,.T.);
#1791=DIRECTION('',(0.658505,0.752577,0.000000));
#1792=VECTOR('',#1791,21.260292);
#1793=LINE('',#91,#1792);
#1794=EDGE_CURVE('',#92,#96,#1793,.T.);
#1795=ORIENTED_EDGE('',*,*,#1794,.T.);
#1796=EDGE_LOOP('',(#1785,#1790,#1795));
#1797=FACE_OUTER_BOUND('',#1796,.T.);
#1798=ADVANCED_FACE('',(#1797),#1780,.T.);
#1799=CARTESIAN_POINT('',(-30.296101,-15.543277,-85.000000));
#1800=DIRECTION('',(-0.195090,-0.980785,0.000000));
#1801=DIRECTION('',(0.000000,0.000000,1.000000));
#1802=AXIS2_PLACEMENT_3D('',#1799,#1800,#1801);
#1803=PLANE('',#1802);
#1804=DIRECTION('',(0.980785,-0.195090,0.000000));
#1805=VECTOR('',#1804,2.341084);
#1806=LINE('',#49,#1805);
#1807=EDGE_CURVE('',#50,#52,#1806,.T.);
#1808=ORIENTED_EDGE('',*,*,#1807,.T.);
#1809=DIRECTION('',(0.000000,0.000000,1.000000));
#1810=VECTOR('',#1809,86.000000);
#1811=LINE('',#51,#1810);
#1812=EDGE_CURVE('',#52,#92,#1811,.T.);
#1813=ORIENTED_EDGE('',*,*,#1812,.T.);
#1814=DIRECTION('',(-0.026689,0.005309,-0.999630));
#1815=VECTOR('',#1814,86.031858);
#1816=LINE('',#91,#1815);
#1817=EDGE_CURVE('',#92,#50,#1816,.T.);
#1818=ORIENTED_EDGE('',*,*,#1817,.T.);
#1819=EDGE_LOOP('',(#1808,#1813,#1818));
#1820=FACE_OUTER_BOUND('',#1819,.T.);
#1821=ADVANCED_FACE('',(#1820),#1803,.T.);
#1822=CARTESIAN_POINT('',(-30.296101,-15.543277,-85.000000));
#1823=DIRECTION('',(-0.195090,-0.980785,0.000000));
#1824=DIRECTION('',(0.000000,0.000000,1.000000));
#1825=AXIS2_PLACEMENT_3D('',#1822,#1823,#1824);
#1826=PLANE('',#1825);
#1827=DIRECTION('',(0.026689,-0.005309,0.999630));
#1828=VECTOR('',#1827,86.031858);
#1829=LINE('',#49,#1828);
#1830=EDGE_CURVE('',#50,#92,#1829,.T.);
#1831=ORIENTED_EDGE('',*,*,#1830,.T.);
#1832=DIRECTION('',(-0.980785,0.195090,0.000000));
#1833=VECTOR('',#1832,2.341084);
#1834=LINE('',#91,#1833);
#1835=EDGE_CURVE('',#92,#90,#1834,.T.);
#1836=ORIENTED_EDGE('',*,*,#1835,.T.);
#1837=DIRECTION('',(0.000000,0.000000,-1.000000));
#1838=VECTOR('',#1837,86.000000);
#1839=LINE('',#89,#1838);
#1840=EDGE_CURVE('',#90,#50,#1839,.T.);
#1841=ORIENTED_EDGE('',*,*,#1840,.T.);
#1842=EDGE_LOOP('',(#1831,#1836,#1841));
#1843=FACE_OUTER_BOUND('',#1842,.T.);
#1844=ADVANCED_FACE('',(#1843),#1826,.T.);
#1845=CARTESIAN_POINT('',(-14.000000,0.000000,-85.000000));
#1846=DIRECTION('',(0.000000,0.000000,-1.000000));
#1847=DIRECTION('',(1.000000,0.000000,0.000000));
#1848=AXIS2_PLACEMENT_3D('',#1845,#1846,#1847);
#1849=PLANE('',#1848);
#1850=DIRECTION('',(0.658505,-0.752577,0.000000));
#1851=VECTOR('',#1850,21.260292);
#1852=LINE('',#93,#1851);
#1853=EDGE_CURVE('',#94,#14,#1852,.T.);
#1854=ORIENTED_EDGE('',*,*,#1853,.T.);
#1855=DIRECTION('',(-1.000000,0.000000,0.000000));
#1856=VECTOR('',#1855,28.000000);
#1857=LINE('',#13,#1856);
#1858=EDGE_CURVE('',#14,#52,#1857,.T.);
#1859=ORIENTED_EDGE('',*,*,#1858,.T.);
#1860=DIRECTION('',(0.658505,0.752577,0.000000));
#1861=VECTOR('',#1860,21.260292);
#1862=LINE('',#51,#1861);
#1863=EDGE_CURVE('',#52,#94,#1862,.T.);
#1864=ORIENTED_EDGE('',*,*,#1863,.T.);
#1865=EDGE_LOOP('',(#1854,#1859,#1864));
#1866=FACE_OUTER_BOUND('',#1865,.T.);
#1867=ADVANCED_FACE('',(#1866),#1849,.T.);
#1868=CARTESIAN_POINT('',(-14.000000,0.000000,1.000000));
#1869=DIRECTION('',(0.000000,0.000000,1.000000));
#1870=DIRECTION('',(1.000000,0.000000,0.000000));
#1871=AXIS2_PLACEMENT_3D('',#1868,#1869,#1870);
#1872=PLANE('',#1871);
#1873=DIRECTION('',(-0.658505,-0.752577,0.000000));
#1874=VECTOR('',#1873,21.260292);
#1875=LINE('',#95,#1874);
#1876=EDGE_CURVE('',#96,#92,#1875,.T.);
#1877=ORIENTED_EDGE('',*,*,#1876,.T.);
#1878=DIRECTION('',(1.000000,0.000000,0.000000));
#1879=VECTOR('',#1878,28.000000);
#1880=LINE('',#91,#1879);
#1881=EDGE_CURVE('',#92,#54,#1880,.T.);
#1882=ORIENTED_EDGE('',*,*,#1881,.T.);
#1883=DIRECTION('',(-0.658505,0.752577,0.000000));
#1884=VECTOR('',#1883,21.260292);
#1885=LINE('',#53,#1884);
#1886=EDGE_CURVE('',#54,#96,#1885,.T.);
#1887=ORIENTED_EDGE('',*,*,#1886,.T.);
#1888=EDGE_LOOP('',(#1877,#1882,#1887));
#1889=FACE_OUTER_BOUND('',#1888,.T.);
#1890=ADVANCED_FACE('',(#1889),#1872,.T.);
#1891=CARTESIAN_POINT('',(-28.000000,-16.000000,-85.000000));
#1892=DIRECTION('',(0.000000,-1.000000,0.000000));
#1893=DIRECTION('',(1.000000,0.000000,0.000000));
#1894=AXIS2_PLACEMENT_3D('',#1891,#1892,#1893);
#1895=PLANE('',#1894);
#1896=DIRECTION('',(1.000000,0.000000,0.000000));
#1897=VECTOR('',#1896,28.000000);
#1898=LINE('',#51,#1897);
#1899=EDGE_CURVE('',#52,#14,#1898,.T.);
#1900=ORIENTED_EDGE('',*,*,#1899,.T.);
#1901=DIRECTION('',(0.000000,0.000000,1.000000));
#1902=VECTOR('',#1901,86.000000);
#1903=LINE('',#13,#1902);
#1904=EDGE_CURVE('',#14,#54,#1903,.T.);
#1905=ORIENTED_EDGE('',*,*,#1904,.T.);
#1906=DIRECTION('',(-0.309586,0.000000,-0.950871));
#1907=VECTOR('',#1906,90.443352);
#1908=LINE('',#53,#1907);
#1909=EDGE_CURVE('',#54,#52,#1908,.T.);
#1910=ORIENTED_EDGE('',*,*,#1909,.T.);
#1911=EDGE_LOOP('',(#1900,#1905,#1910));
#1912=FACE_OUTER_BOUND('',#1911,.T.);
#1913=ADVANCED_FACE('',(#1912),#1895,.T.);
#1914=CARTESIAN_POINT('',(-28.000000,-16.000000,-85.000000));
#1915=DIRECTION('',(0.000000,-1.000000,0.000000));
#1916=DIRECTION('',(1.000000,0.000000,0.000000));
#1917=AXIS2_PLACEMENT_3D('',#1914,#1915,#1916);
#1918=PLANE('',#1917);
#1919=DIRECTION('',(0.309586,0.000000,0.950871));
#1920=VECTOR('',#1919,90.443352);
#1921=LINE('',#51,#1920);
#1922=EDGE_CURVE('',#52,#54,#1921,.T.);
#1923=ORIENTED_EDGE('',*,*,#1922,.T.);
#1924=DIRECTION('',(-1.000000,0.000000,0.000000));
#1925=VECTOR('',#1924,28.000000);
#1926=LINE('',#53,#1925);
#1927=EDGE_CURVE('',#54,#92,#1926,.T.);
#1928=ORIENTED_EDGE('',*,*,#1927,.T.);
#1929=DIRECTION('',(0.000000,0.000000,-1.000000));
#1930=VECTOR('',#1929,86.000000);
#1931=LINE('',#91,#1930);
#1932=EDGE_CURVE('',#92,#52,#1931,.T.);
#1933=ORIENTED_EDGE('',*,*,#1932,.T.);
#1934=EDGE_LOOP('',(#1923,#1928,#1933));
#1935=FACE_OUTER_BOUND('',#1934,.T.);
#1936=ADVANCED_FACE('',(#1935),#1918,.T.);
#1937=CLOSED_SHELL('',(#119,#142,#165,#188,#211,#234,#257,#280,#303,#326,#349,#372,#395,#418,#441,#464,#487,#510,#533,#556,#579,#602,#625,#648,#671,#694,#717,#740,#763,#786,#809,#832,#855,#878,#901,#924,#947,#970,#993,#1016,#1039,#1062,#1085,#1108,#1131,#1154,#1177,#1200,#1223,#1246,#1269,#1292,#1315,#1338,#1361,#1384,#1407,#1430,#1453,#1476,#1499,#1522,#1545,#1568,#1591,#1614,#1637,#1660,#1683,#1706,#1729,#1752,#1775,#1798,#1821,#1844,#1867,#1890,#1913,#1936));
#1938=FACETED_BREP('grip_body',#1937);
#1939=SHAPE_REPRESENTATION('grip_body',(#1938),#12);
#1940=SHAPE_DEFINITION_REPRESENTATION(#7,#1939);
ENDSEC;
END-ISO-10303-21;
