solid pad_right
  facet normal -1.000000 0.000000 0.000000
    outer loop
      vertex -40.200000 -35.800000 153.600000
      vertex -40.200000 -33.800000 153.600000
      vertex -40.200000 -33.800000 26.000000
    endloop
  endfacet
  facet normal -1.000000 0.000000 0.000000
    outer loop
      vertex -40.200000 -35.800000 153.600000
      vertex -40.200000 -33.800000 26.000000
      vertex -40.200000 -35.800000 26.000000
    endloop
  endfacet
  facet normal 1.000000 0.000000 0.000000
    outer loop
      vertex -38.200000 -35.800000 26.000000
      vertex -38.200000 -33.800000 26.000000
      vertex -38.200000 -33.800000 153.600000
    endloop
  endfacet
  facet normal 1.000000 0.000000 0.000000
    outer loop
      vertex -38.200000 -35.800000 26.000000
      vertex -38.200000 -33.800000 153.600000
      vertex -38.200000 -35.800000 153.600000
    endloop
  endfacet
  facet normal 0.000000 -1.000000 0.000000
    outer loop
      vertex -38.200000 -35.800000 26.000000
      vertex -38.200000 -35.800000 153.600000
      vertex -40.200000 -35.800000 153.600000
    endloop
  endfacet
  facet normal 0.000000 -1.000000 0.000000
    outer loop
      vertex -38.200000 -35.800000 26.000000
      vertex -40.200000 -35.800000 153.600000
      vertex -40.200000 -35.800000 26.000000
    endloop
  endfacet
  facet normal 0.000000 1.000000 0.000000
    outer loop
      vertex -40.200000 -33.800000 26.000000
      vertex -40.200000 -33.800000 153.600000
      vertex -38.200000 -33.800000 153.600000
    endloop
  endfacet
  facet normal 0.000000 1.000000 0.000000
    outer loop
      vertex -40.200000 -33.800000 26.000000
      vertex -38.200000 -33.800000 153.600000
      vertex -38.200000 -33.800000 26.000000
    endloop
  endfacet
  facet normal 0.000000 0.000000 -1.000000
    outer loop
      vertex -40.200000 -33.800000 26.000000
      vertex -38.200000 -33.800000 26.000000
      vertex -38.200000 -35.800000 26.000000
    endloop
  endfacet
  facet normal 0.000000 0.000000 -1.000000
    outer loop
      vertex -40.200000 -33.800000 26.000000
      vertex -38.200000 -35.800000 26.000000
      vertex -40.200000 -35.800000 26.000000
    endloop
  endfacet
  facet normal 0.000000 0.000000 1.000000
    outer loop
      vertex -40.200000 -35.800000 153.600000
      vertex -38.200000 -35.800000 153.600000
      vertex -38.200000 -33.800000 153.600000
    endloop
  endfacet
  facet normal 0.000000 0.000000 1.000000
    outer loop
      vertex -40.200000 -35.800000 153.600000
      vertex -38.200000 -33.800000 153.600000
      vertex -40.200000 -33.800000 153.600000
    endloop
  endfacet
endsolid pad_right
