ISO-10303-21;
HEADER;
FILE_DESCRIPTION(('SIGHTLINE deterministic faceted BREP'),'2;1');
FILE_NAME('sightline_g0.step','2000-01-01T00:00:00',('SIGHTLINE'),('SIGHTLINE'),'','SIGHTLINE','');
FILE_SCHEMA(('AUTOMOTIVE_DESIGN_CC2'));
ENDSEC;
DATA;
#1=APPLICATION_CONTEXT('configuration controlled 3d designs of mechanical parts and assemblies');
#2=PRODUCT_CONTEXT('',#1,'mechanical');
#3=PRODUCT('phone_reference','phone_reference','',(#2));
#4=PRODUCT_DEFINITION_FORMATION_WITH_SPECIFIED_SOURCE('1','G0 faceted BREP',#3,.MADE.);
#5=PRODUCT_DEFINITION_CONTEXT('part definition',#1,'design');
#6=PRODUCT_DEFINITION('design','',#4,#5);
#7=PRODUCT_DEFINITION_SHAPE('','',#6);
#8=(LENGTH_UNIT() NAMED_UNIT(*) SI_UNIT(.MILLI.,.METRE.));
#9=(NAMED_UNIT(*) PLANE_ANGLE_UNIT() SI_UNIT($,.RADIAN.));
#10=(NAMED_UNIT(*) SOLID_ANGLE_UNIT() SI_UNIT($,.STERADIAN.));
#11=UNCERTAINTY_MEASURE_WITH_UNIT(LENGTH_MEASURE(0.01),#8,'distance_accuracy_value','G0 export');
#12=(GEOMETRIC_REPRESENTATION_CONTEXT(3) GLOBAL_UNCERTAINTY_ASSIGNED_CONTEXT((#11)) GLOBAL_UNIT_ASSIGNED_CONTEXT((#8,#9,#10)) REPRESENTATION_CONTEXT('3D','MODEL SPACE'));
#13=CARTESIAN_POINT('',(-51.900000,-35.800000,16.000000));
#14=VERTEX_POINT('',#13);
#15=CARTESIAN_POINT('',(-51.900000,35.800000,16.000000));
#16=VERTEX_POINT('',#15);
#17=CARTESIAN_POINT('',(-51.900000,35.800000,163.600000));
#18=VERTEX_POINT('',#17);
#19=CARTESIAN_POINT('',(-51.900000,-35.800000,163.600000));
#20=VERTEX_POINT('',#19);
#21=CARTESIAN_POINT('',(-44.100000,-35.800000,16.000000));
#22=VERTEX_POINT('',#21);
#23=CARTESIAN_POINT('',(-44.100000,35.800000,16.000000));
#24=VERTEX_POINT('',#23);
#25=CARTESIAN_POINT('',(-44.100000,35.800000,163.600000));
#26=VERTEX_POINT('',#25);
#27=CARTESIAN_POINT('',(-44.100000,-35.800000,163.600000));
#28=VERTEX_POINT('',#27);
#29=CARTESIAN_POINT('',(-51.900000,-35.800000,163.600000));
#30=DIRECTION('',(-1.000000,0.000000,0.000000));
#31=DIRECTION('',(0.000000,1.000000,0.000000));
#32=AXIS2_PLACEMENT_3D('',#29,#30,#31);
#33=PLANE('',#32);
#34=DIRECTION('',(0.000000,1.000000,0.000000));
#35=VECTOR('',#34,71.600000);
#36=LINE('',#19,#35);
#37=EDGE_CURVE('',#20,#18,#36,.T.);
#38=ORIENTED_EDGE('',*,*,#37,.T.);
#39=DIRECTION('',(0.000000,0.000000,-1.000000));
#40=VECTOR('',#39,147.600000);
#41=LINE('',#17,#40);
#42=EDGE_CURVE('',#18,#16,#41,.T.);
#43=ORIENTED_EDGE('',*,*,#42,.T.);
#44=DIRECTION('',(0.000000,-0.436453,0.899727));
#45=VECTOR('',#44,164.049749);
#46=LINE('',#15,#45);
#47=EDGE_CURVE('',#16,#20,#46,.T.);
#48=ORIENTED_EDGE('',*,*,#47,.T.);
#49=EDGE_LOOP('',(#38,#43,#48));
#50=FACE_OUTER_BOUND('',#49,.T.);
#51=ADVANCED_FACE('',(#50),#33,.T.);
#52=CARTESIAN_POINT('',(-51.900000,-35.800000,163.600000));
#53=DIRECTION('',(-1.000000,0.000000,0.000000));
#54=DIRECTION('',(0.000000,1.000000,0.000000));
#55=AXIS2_PLACEMENT_3D('',#52,#53,#54);
#56=PLANE('',#55);
#57=DIRECTION('',(0.000000,0.436453,-0.899727));
#58=VECTOR('',#57,164.049749);
#59=LINE('',#19,#58);
#60=EDGE_CURVE('',#20,#16,#59,.T.);
#61=ORIENTED_EDGE('',*,*,#60,.T.);
#62=DIRECTION('',(0.000000,-1.000000,0.000000));
#63=VECTOR('',#62,71.600000);
#64=LINE('',#15,#63);
#65=EDGE_CURVE('',#16,#14,#64,.T.);
#66=ORIENTED_EDGE('',*,*,#65,.T.);
#67=DIRECTION('',(0.000000,0.000000,1.000000));
#68=VECTOR('',#67,147.600000);
#69=LINE('',#13,#68);
#70=EDGE_CURVE('',#14,#20,#69,.T.);
#71=ORIENTED_EDGE('',*,*,#70,.T.);
#72=EDGE_LOOP('',(#61,#66,#71));
#73=FACE_OUTER_BOUND('',#72,.T.);
#74=ADVANCED_FACE('',(#73),#56,.T.);
#75=CARTESIAN_POINT('',(-44.100000,-35.800000,16.000000));
#76=DIRECTION('',(1.000000,0.000000,0.000000));
#77=DIRECTION('',(0.000000,1.000000,0.000000));
#78=AXIS2_PLACEMENT_3D('',#75,#76,#77);
#79=PLANE('',#78);
#80=DIRECTION('',(0.000000,1.000000,0.000000));
#81=VECTOR('',#80,71.600000);
#82=LINE('',#21,#81);
#83=EDGE_CURVE('',#22,#24,#82,.T.);
#84=ORIENTED_EDGE('',*,*,#83,.T.);
#85=DIRECTION('',(0.000000,0.000000,1.000000));
#86=VECTOR('',#85,147.600000);
#87=LINE('',#23,#86);
#88=EDGE_CURVE('',#24,#26,#87,.T.);
#89=ORIENTED_EDGE('',*,*,#88,.T.);
#90=DIRECTION('',(0.000000,-0.436453,-0.899727));
#91=VECTOR('',#90,164.049749);
#92=LINE('',#25,#91);
#93=EDGE_CURVE('',#26,#22,#92,.T.);
#94=ORIENTED_EDGE('',*,*,#93,.T.);
#95=EDGE_LOOP('',(#84,#89,#94));
#96=FACE_OUTER_BOUND('',#95,.T.);
#97=ADVANCED_FACE('',(#96),#79,.T.);
#98=CARTESIAN_POINT('',(-44.100000,-35.800000,16.000000));
#99=DIRECTION('',(1.000000,0.000000,0.000000));
#100=DIRECTION('',(0.000000,1.000000,0.000000));
#101=AXIS2_PLACEMENT_3D('',#98,#99,#100);
#102=PLANE('',#101);
#103=DIRECTION('',(0.000000,0.436453,0.899727));
#104=VECTOR('',#103,164.049749);
#105=LINE('',#21,#104);
#106=EDGE_CURVE('',#22,#26,#105,.T.);
#107=ORIENTED_EDGE('',*,*,#106,.T.);
#108=DIRECTION('',(0.000000,-1.000000,0.000000));
#109=VECTOR('',#108,71.600000);
#110=LINE('',#25,#109);
#111=EDGE_CURVE('',#26,#28,#110,.T.);
#112=ORIENTED_EDGE('',*,*,#111,.T.);
#113=DIRECTION('',(0.000000,0.000000,-1.000000));
#114=VECTOR('',#113,147.600000);
#115=LINE('',#27,#114);
#116=EDGE_CURVE('',#28,#22,#115,.T.);
#117=ORIENTED_EDGE('',*,*,#116,.T.);
#118=EDGE_LOOP('',(#107,#112,#117));
#119=FACE_OUTER_BOUND('',#118,.T.);
#120=ADVANCED_FACE('',(#119),#102,.T.);
#121=CARTESIAN_POINT('',(-44.100000,-35.800000,16.000000));
#122=DIRECTION('',(0.000000,-1.000000,0.000000));
#123=DIRECTION('',(1.000000,0.000000,0.000000));
#124=AXIS2_PLACEMENT_3D('',#121,#122,#123);
#125=PLANE('',#124);
#126=DIRECTION('',(0.000000,0.000000,1.000000));
#127=VECTOR('',#126,147.600000);
#128=LINE('',#21,#127);
#129=EDGE_CURVE('',#22,#28,#128,.T.);
#130=ORIENTED_EDGE('',*,*,#129,.T.);
#131=DIRECTION('',(-1.000000,0.000000,0.000000));
#132=VECTOR('',#131,7.800000);
#133=LINE('',#27,#132);
#134=EDGE_CURVE('',#28,#20,#133,.T.);
#135=ORIENTED_EDGE('',*,*,#134,.T.);
#136=DIRECTION('',(0.052772,0.000000,-0.998607));
#137=VECTOR('',#136,147.805954);
#138=LINE('',#19,#137);
#139=EDGE_CURVE('',#20,#22,#138,.T.);
#140=ORIENTED_EDGE('',*,*,#139,.T.);
#141=EDGE_LOOP('',(#130,#135,#140));
#142=FACE_OUTER_BOUND('',#141,.T.);
#143=ADVANCED_FACE('',(#142),#125,.T.);
#144=CARTESIAN_POINT('',(-44.100000,-35.800000,16.000000));
#145=DIRECTION('',(0.000000,-1.000000,0.000000));
#146=DIRECTION('',(1.000000,0.000000,0.000000));
#147=AXIS2_PLACEMENT_3D('',#144,#145,#146);
#148=PLANE('',#147);
#149=DIRECTION('',(-0.052772,0.000000,0.998607));
#150=VECTOR('',#149,147.805954);
#151=LINE('',#21,#150);
#152=EDGE_CURVE('',#22,#20,#151,.T.);
#153=ORIENTED_EDGE('',*,*,#152,.T.);
#154=DIRECTION('',(0.000000,0.000000,-1.000000));
#155=VECTOR('',#154,147.600000);
#156=LINE('',#19,#155);
#157=EDGE_CURVE('',#20,#14,#156,.T.);
#158=ORIENTED_EDGE('',*,*,#157,.T.);
#159=DIRECTION('',(1.000000,0.000000,0.000000));
#160=VECTOR('',#159,7.800000);
#161=LINE('',#13,#160);
#162=EDGE_CURVE('',#14,#22,#161,.T.);
#163=ORIENTED_EDGE('',*,*,#162,.T.);
#164=EDGE_LOOP('',(#153,#158,#163));
#165=FACE_OUTER_BOUND('',#164,.T.);
#166=ADVANCED_FACE('',(#165),#148,.T.);
#167=CARTESIAN_POINT('',(-51.900000,35.800000,16.000000));
#168=DIRECTION('',(0.000000,1.000000,0.000000));
#169=DIRECTION('',(1.000000,0.000000,0.000000));
#170=AXIS2_PLACEMENT_3D('',#167,#168,#169);
#171=PLANE('',#170);
#172=DIRECTION('',(0.000000,0.000000,1.000000));
#173=VECTOR('',#172,147.600000);
#174=LINE('',#15,#173);
#175=EDGE_CURVE('',#16,#18,#174,.T.);
#176=ORIENTED_EDGE('',*,*,#175,.T.);
#177=DIRECTION('',(1.000000,0.000000,0.000000));
#178=VECTOR('',#177,7.800000);
#179=LINE('',#17,#178);
#180=EDGE_CURVE('',#18,#26,#179,.T.);
#181=ORIENTED_EDGE('',*,*,#180,.T.);
#182=DIRECTION('',(-0.052772,0.000000,-0.998607));
#183=VECTOR('',#182,147.805954);
#184=LINE('',#25,#183);
#185=EDGE_CURVE('',#26,#16,#184,.T.);
#186=ORIENTED_EDGE('',*,*,#185,.T.);
#187=EDGE_LOOP('',(#176,#181,#186));
#188=FACE_OUTER_BOUND('',#187,.T.);
#189=ADVANCED_FACE('',(#188),#171,.T.);
#190=CARTESIAN_POINT('',(-51.900000,35.800000,16.000000));
#191=DIRECTION('',(0.000000,1.000000,0.000000));
#192=DIRECTION('',(1.000000,0.000000,0.000000));
#193=AXIS2_PLACEMENT_3D('',#190,#191,#192);
#194=PLANE('',#193);
#195=DIRECTION('',(0.052772,0.000000,0.998607));
#196=VECTOR('',#195,147.805954);
#197=LINE('',#15,#196);
#198=EDGE_CURVE('',#16,#26,#197,.T.);
#199=ORIENTED_EDGE('',*,*,#198,.T.);
#200=DIRECTION('',(0.000000,0.000000,-1.000000));
#201=VECTOR('',#200,147.600000);
#202=LINE('',#25,#201);
#203=EDGE_CURVE('',#26,#24,#202,.T.);
#204=ORIENTED_EDGE('',*,*,#203,.T.);
#205=DIRECTION('',(-1.000000,0.000000,0.000000));
#206=VECTOR('',#205,7.800000);
#207=LINE('',#23,#206);
#208=EDGE_CURVE('',#24,#16,#207,.T.);
#209=ORIENTED_EDGE('',*,*,#208,.T.);
#210=EDGE_LOOP('',(#199,#204,#209));
#211=FACE_OUTER_BOUND('',#210,.T.);
#212=ADVANCED_FACE('',(#211),#194,.T.);
#213=CARTESIAN_POINT('',(-51.900000,35.800000,16.000000));
#214=DIRECTION('',(0.000000,0.000000,-1.000000));
#215=DIRECTION('',(1.000000,0.000000,0.000000));
#216=AXIS2_PLACEMENT_3D('',#213,#214,#215);
#217=PLANE('',#216);
#218=DIRECTION('',(1.000000,0.000000,0.000000));
#219=VECTOR('',#218,7.800000);
#220=LINE('',#15,#219);
#221=EDGE_CURVE('',#16,#24,#220,.T.);
#222=ORIENTED_EDGE('',*,*,#221,.T.);
#223=DIRECTION('',(0.000000,-1.000000,0.000000));
#224=VECTOR('',#223,71.600000);
#225=LINE('',#23,#224);
#226=EDGE_CURVE('',#24,#22,#225,.T.);
#227=ORIENTED_EDGE('',*,*,#226,.T.);
#228=DIRECTION('',(-0.108298,0.994118,0.000000));
#229=VECTOR('',#228,72.023607);
#230=LINE('',#21,#229);
#231=EDGE_CURVE('',#22,#16,#230,.T.);
#232=ORIENTED_EDGE('',*,*,#231,.T.);
#233=EDGE_LOOP('',(#222,#227,#232));
#234=FACE_OUTER_BOUND('',#233,.T.);
#235=ADVANCED_FACE('',(#234),#217,.T.);
#236=CARTESIAN_POINT('',(-51.900000,35.800000,16.000000));
#237=DIRECTION('',(0.000000,0.000000,-1.000000));
#238=DIRECTION('',(1.000000,0.000000,0.000000));
#239=AXIS2_PLACEMENT_3D('',#236,#237,#238);
#240=PLANE('',#239);
#241=DIRECTION('',(0.108298,-0.994118,0.000000));
#242=VECTOR('',#241,72.023607);
#243=LINE('',#15,#242);
#244=EDGE_CURVE('',#16,#22,#243,.T.);
#245=ORIENTED_EDGE('',*,*,#244,.T.);
#246=DIRECTION('',(-1.000000,0.000000,0.000000));
#247=VECTOR('',#246,7.800000);
#248=LINE('',#21,#247);
#249=EDGE_CURVE('',#22,#14,#248,.T.);
#250=ORIENTED_EDGE('',*,*,#249,.T.);
#251=DIRECTION('',(0.000000,1.000000,0.000000));
#252=VECTOR('',#251,71.600000);
#253=LINE('',#13,#252);
#254=EDGE_CURVE('',#14,#16,#253,.T.);
#255=ORIENTED_EDGE('',*,*,#254,.T.);
#256=EDGE_LOOP('',(#245,#250,#255));
#257=FACE_OUTER_BOUND('',#256,.T.);
#258=ADVANCED_FACE('',(#257),#240,.T.);
#259=CARTESIAN_POINT('',(-51.900000,-35.800000,163.600000));
#260=DIRECTION('',(0.000000,0.000000,1.000000));
#261=DIRECTION('',(1.000000,0.000000,0.000000));
#262=AXIS2_PLACEMENT_3D('',#259,#260,#261);
#263=PLANE('',#262);
#264=DIRECTION('',(1.000000,0.000000,0.000000));
#265=VECTOR('',#264,7.800000);
#266=LINE('',#19,#265);
#267=EDGE_CURVE('',#20,#28,#266,.T.);
#268=ORIENTED_EDGE('',*,*,#267,.T.);
#269=DIRECTION('',(0.000000,1.000000,0.000000));
#270=VECTOR('',#269,71.600000);
#271=LINE('',#27,#270);
#272=EDGE_CURVE('',#28,#26,#271,.T.);
#273=ORIENTED_EDGE('',*,*,#272,.T.);
#274=DIRECTION('',(-0.108298,-0.994118,0.000000));
#275=VECTOR('',#274,72.023607);
#276=LINE('',#25,#275);
#277=EDGE_CURVE('',#26,#20,#276,.T.);
#278=ORIENTED_EDGE('',*,*,#277,.T.);
#279=EDGE_LOOP('',(#268,#273,#278));
#280=FACE_OUTER_BOUND('',#279,.T.);
#281=ADVANCED_FACE('',(#280),#263,.T.);
#282=CARTESIAN_POINT('',(-51.900000,-35.800000,163.600000));
#283=DIRECTION('',(0.000000,0.000000,1.000000));
#284=DIRECTION('',(1.000000,0.000000,0.000000));
#285=AXIS2_PLACEMENT_3D('',#282,#283,#284);
#286=PLANE('',#285);
#287=DIRECTION('',(0.108298,0.994118,0.000000));
#288=VECTOR('',#287,72.023607);
#289=LINE('',#19,#288);
#290=EDGE_CURVE('',#20,#26,#289,.T.);
#291=ORIENTED_EDGE('',*,*,#290,.T.);
#292=DIRECTION('',(-1.000000,0.000000,0.000000));
#293=VECTOR('',#292,7.800000);
#294=LINE('',#25,#293);
#295=EDGE_CURVE('',#26,#18,#294,.T.);
#296=ORIENTED_EDGE('',*,*,#295,.T.);
#297=DIRECTION('',(0.000000,-1.000000,0.000000));
#298=VECTOR('',#297,71.600000);
#299=LINE('',#17,#298);
#300=EDGE_CURVE('',#18,#20,#299,.T.);
#301=ORIENTED_EDGE('',*,*,#300,.T.);
#302=EDGE_LOOP('',(#291,#296,#301));
#303=FACE_OUTER_BOUND('',#302,.T.);
#304=ADVANCED_FACE('',(#303),#286,.T.);
#305=CLOSED_SHELL('',(#51,#74,#97,#120,#143,#166,#189,#212,#235,#258,#281,#304));
#306=FACETED_BREP('phone_reference',#305);
#307=SHAPE_REPRESENTATION('phone_reference',(#306),#12);
#308=SHAPE_DEFINITION_REPRESENTATION(#7,#307);
ENDSEC;
END-ISO-10303-21;
