solid retainer_right
  facet normal -1.000000 0.000000 0.000000
    outer loop
      vertex -43.500000 -42.300000 158.600000
      vertex -43.500000 -36.300000 158.600000
      vertex -43.500000 -36.300000 21.000000
    endloop
  endfacet
  facet normal -1.000000 0.000000 0.000000
    outer loop
      vertex -43.500000 -42.300000 158.600000
      vertex -43.500000 -36.300000 21.000000
      vertex -43.500000 -42.300000 21.000000
    endloop
  endfacet
  facet normal 1.000000 0.000000 0.000000
    outer loop
      vertex -40.500000 -42.300000 21.000000
      vertex -40.500000 -36.300000 21.000000
      vertex -40.500000 -36.300000 158.600000
    endloop
  endfacet
  facet normal 1.000000 0.000000 0.000000
    outer loop
      vertex -40.500000 -42.300000 21.000000
      vertex -40.500000 -36.300000 158.600000
      vertex -40.500000 -42.300000 158.600000
    endloop
  endfacet
  facet normal 0.000000 -1.000000 0.000000
    outer loop
      vertex -40.500000 -42.300000 21.000000
      vertex -40.500000 -42.300000 158.600000
      vertex -43.500000 -42.300000 158.600000
    endloop
  endfacet
  facet normal 0.000000 -1.000000 0.000000
    outer loop
      vertex -40.500000 -42.300000 21.000000
      vertex -43.500000 -42.300000 158.600000
      vertex -43.500000 -42.300000 21.000000
    endloop
  endfacet
  facet normal 0.000000 1.000000 0.000000
    outer loop
      vertex -43.500000 -36.300000 21.000000
      vertex -43.500000 -36.300000 158.600000
      vertex -40.500000 -36.300000 158.600000
    endloop
  endfacet
  facet normal 0.000000 1.000000 0.000000
    outer loop
      vertex -43.500000 -36.300000 21.000000
      vertex -40.500000 -36.300000 158.600000
      vertex -40.500000 -36.300000 21.000000
    endloop
  endfacet
  facet normal 0.000000 0.000000 -1.000000
    outer loop
      vertex -43.500000 -36.300000 21.000000
      vertex -40.500000 -36.300000 21.000000
      vertex -40.500000 -42.300000 21.000000
    endloop
  endfacet
  facet normal 0.000000 0.000000 -1.000000
    outer loop
      vertex -43.500000 -36.300000 21.000000
      vertex -40.500000 -42.300000 21.000000
      vertex -43.500000 -42.300000 21.000000
    endloop
  endfacet
  facet normal 0.000000 0.000000 1.000000
    outer loop
      vertex -43.500000 -42.300000 158.600000
      vertex -40.500000 -42.300000 158.600000
      vertex -40.500000 -36.300000 158.600000
    endloop
  endfacet
  facet normal 0.000000 0.000000 1.000000
    outer loop
      vertex -43.500000 -42.300000 158.600000
      vertex -40.500000 -36.300000 158.600000
      vertex -43.500000 -36.300000 158.600000
    endloop
  endfacet
endsolid retainer_right
