solid x_ballast_carriage
  facet normal -1.000000 0.000000 0.000000
    outer loop
      vertex 4.000000 -9.500000 19.000000
      vertex 4.000000 9.500000 19.000000
      vertex 4.000000 9.500000 9.500000
    endloop
  endfacet
  facet normal -1.000000 0.000000 0.000000
    outer loop
      vertex 4.000000 -9.500000 19.000000
      vertex 4.000000 9.500000 9.500000
      vertex 4.000000 -9.500000 9.500000
    endloop
  endfacet
  facet normal 1.000000 0.000000 0.000000
    outer loop
      vertex 36.000000 -9.500000 9.500000
      vertex 36.000000 9.500000 9.500000
      vertex 36.000000 9.500000 19.000000
    endloop
  endfacet
  facet normal 1.000000 0.000000 0.000000
    outer loop
      vertex 36.000000 -9.500000 9.500000
      vertex 36.000000 9.500000 19.000000
      vertex 36.000000 -9.500000 19.000000
    endloop
  endfacet
  facet normal 0.000000 -1.000000 0.000000
    outer loop
      vertex 36.000000 -9.500000 9.500000
      vertex 36.000000 -9.500000 19.000000
      vertex 4.000000 -9.500000 19.000000
    endloop
  endfacet
  facet normal 0.000000 -1.000000 0.000000
    outer loop
      vertex 36.000000 -9.500000 9.500000
      vertex 4.000000 -9.500000 19.000000
      vertex 4.000000 -9.500000 9.500000
    endloop
  endfacet
  facet normal 0.000000 1.000000 0.000000
    outer loop
      vertex 4.000000 9.500000 9.500000
      vertex 4.000000 9.500000 19.000000
      vertex 36.000000 9.500000 19.000000
    endloop
  endfacet
  facet normal 0.000000 1.000000 0.000000
    outer loop
      vertex 4.000000 9.500000 9.500000
      vertex 36.000000 9.500000 19.000000
      vertex 36.000000 9.500000 9.500000
    endloop
  endfacet
  facet normal 0.000000 0.000000 -1.000000
    outer loop
      vertex 4.000000 9.500000 9.500000
      vertex 36.000000 9.500000 9.500000
      vertex 36.000000 -9.500000 9.500000
    endloop
  endfacet
  facet normal 0.000000 0.000000 -1.000000
    outer loop
      vertex 4.000000 9.500000 9.500000
      vertex 36.000000 -9.500000 9.500000
      vertex 4.000000 -9.500000 9.500000
    endloop
  endfacet
  facet normal 0.000000 0.000000 1.000000
    outer loop
      vertex 4.000000 -9.500000 19.000000
      vertex 36.000000 -9.500000 19.000000
      vertex 36.000000 9.500000 19.000000
    endloop
  endfacet
  facet normal 0.000000 0.000000 1.000000
    outer loop
      vertex 4.000000 -9.500000 19.000000
      vertex 36.000000 9.500000 19.000000
      vertex 4.000000 9.500000 19.000000
    endloop
  endfacet
endsolid x_ballast_carriage
