solid x_end_stop_targetward
  facet normal -1.000000 0.000000 0.000000
    outer loop
      vertex 68.000000 -14.000000 24.000000
      vertex 68.000000 14.000000 24.000000
      vertex 68.000000 14.000000 9.000000
    endloop
  endfacet
  facet normal -1.000000 0.000000 0.000000
    outer loop
      vertex 68.000000 -14.000000 24.000000
      vertex 68.000000 14.000000 9.000000
      vertex 68.000000 -14.000000 9.000000
    endloop
  endfacet
  facet normal 1.000000 0.000000 0.000000
    outer loop
      vertex 72.000000 -14.000000 9.000000
      vertex 72.000000 14.000000 9.000000
      vertex 72.000000 14.000000 24.000000
    endloop
  endfacet
  facet normal 1.000000 0.000000 0.000000
    outer loop
      vertex 72.000000 -14.000000 9.000000
      vertex 72.000000 14.000000 24.000000
      vertex 72.000000 -14.000000 24.000000
    endloop
  endfacet
  facet normal 0.000000 -1.000000 0.000000
    outer loop
      vertex 72.000000 -14.000000 9.000000
      vertex 72.000000 -14.000000 24.000000
      vertex 68.000000 -14.000000 24.000000
    endloop
  endfacet
  facet normal 0.000000 -1.000000 0.000000
    outer loop
      vertex 72.000000 -14.000000 9.000000
      vertex 68.000000 -14.000000 24.000000
      vertex 68.000000 -14.000000 9.000000
    endloop
  endfacet
  facet normal 0.000000 1.000000 0.000000
    outer loop
      vertex 68.000000 14.000000 9.000000
      vertex 68.000000 14.000000 24.000000
      vertex 72.000000 14.000000 24.000000
    endloop
  endfacet
  facet normal 0.000000 1.000000 0.000000
    outer loop
      vertex 68.000000 14.000000 9.000000
      vertex 72.000000 14.000000 24.000000
      vertex 72.000000 14.000000 9.000000
    endloop
  endfacet
  facet normal 0.000000 0.000000 -1.000000
    outer loop
      vertex 68.000000 14.000000 9.000000
      vertex 72.000000 14.000000 9.000000
      vertex 72.000000 -14.000000 9.000000
    endloop
  endfacet
  facet normal 0.000000 0.000000 -1.000000
    outer loop
      vertex 68.000000 14.000000 9.000000
      vertex 72.000000 -14.000000 9.000000
      vertex 68.000000 -14.000000 9.000000
    endloop
  endfacet
  facet normal 0.000000 0.000000 1.000000
    outer loop
      vertex 68.000000 -14.000000 24.000000
      vertex 72.000000 -14.000000 24.000000
      vertex 72.000000 14.000000 24.000000
    endloop
  endfacet
  facet normal 0.000000 0.000000 1.000000
    outer loop
      vertex 68.000000 -14.000000 24.000000
      vertex 72.000000 14.000000 24.000000
      vertex 68.000000 14.000000 24.000000
    endloop
  endfacet
endsolid x_end_stop_targetward
